NoNameFixed.glyphspackage
{
glyphname = AE;
layers = (
{
layerId = master01;
paths = (
{
closed = 1;
nodes = (
"499 9 OFFCURVE",
"492 0 OFFCURVE",
"459 0 CURVE SMOOTH",
"265 0 LINE SMOOTH",
"249 0 OFFCURVE",
"224 0 OFFCURVE",
"224 31 CURVE SMOOTH",
"224 61 OFFCURVE",
"250 61 OFFCURVE",
"264 61 CURVE",
"264 183 LINE",
"153 183 LINE",
"128 61 LINE",
"151 61 OFFCURVE",
"174 61 OFFCURVE",
"174 30 CURVE SMOOTH",
"174 0 OFFCURVE",
"149 0 OFFCURVE",
"134 0 CURVE SMOOTH",
"63 0 LINE SMOOTH",
"48 0 OFFCURVE",
"23 0 OFFCURVE",
"23 30 CURVE SMOOTH",
"23 61 OFFCURVE",
"45 61 OFFCURVE",
"71 61 CURVE",
"170 550 LINE",
"154 550 OFFCURVE",
"130 550 OFFCURVE",
"130 581 CURVE SMOOTH",
"130 611 OFFCURVE",
"155 611 OFFCURVE",
"170 611 CURVE SMOOTH",
"451 611 LINE SMOOTH",
"485 611 OFFCURVE",
"491 601 OFFCURVE",
"491 570 CURVE SMOOTH",
"491 497 LINE SMOOTH",
"491 483 OFFCURVE",
"491 456 OFFCURVE",
"463 456 CURVE SMOOTH",
"435 456 OFFCURVE",
"435 483 OFFCURVE",
"435 497 CURVE SMOOTH",
"435 550 LINE",
"320 550 LINE",
"320 347 LINE",
"435 347 LINE SMOOTH",
"451 347 OFFCURVE",
"475 347 OFFCURVE",
"475 316 CURVE SMOOTH",
"475 286 OFFCURVE",
"450 286 OFFCURVE",
"435 286 CURVE SMOOTH",
"320 286 LINE",
"320 61 LINE",
"443 61 LINE",
"443 130 LINE SMOOTH",
"443 144 OFFCURVE",
"443 171 OFFCURVE",
"471 171 CURVE SMOOTH",
"499 171 OFFCURVE",
"499 144 OFFCURVE",
"499 130 CURVE SMOOTH",
"499 41 LINE SMOOTH"
);
},
{
closed = 1;
nodes = (
"264 550 LINE",
"227 550 LINE",
"165 244 LINE",
"264 244 LINE"
);
}
);
width = 525;
}
);
unicode = 00C6;
}
{
glyphname = Ccedilla;
layers = (
{
layerId = master01;
paths = (
{
closed = 1;
nodes = (
"484 94 OFFCURVE",
"427 21 OFFCURVE",
"342 -3 CURVE",
"342 -9 LINE",
"413 -23 OFFCURVE",
"441 -67 OFFCURVE",
"441 -106 CURVE SMOOTH",
"441 -208 OFFCURVE",
"301 -208 OFFCURVE",
"206 -208 CURVE SMOOTH",
"191 -208 OFFCURVE",
"175 -200 OFFCURVE",
"175 -177 CURVE SMOOTH",
"175 -146 OFFCURVE",
"197 -146 OFFCURVE",
"235 -146 CURVE SMOOTH",
"273 -146 OFFCURVE",
"372 -146 OFFCURVE",
"372 -106 CURVE SMOOTH",
"372 -86 OFFCURVE",
"349 -68 OFFCURVE",
"305 -66 CURVE SMOOTH",
"273 -64 OFFCURVE",
"273 -44 OFFCURVE",
"273 -24 CURVE SMOOTH",
"273 -11 LINE",
"147 -5 OFFCURVE",
"40 127 OFFCURVE",
"40 306 CURVE SMOOTH",
"40 488 OFFCURVE",
"152 622 OFFCURVE",
"281 622 CURVE SMOOTH",
"332 622 OFFCURVE",
"378 602 OFFCURVE",
"411 574 CURVE",
"424 599 OFFCURVE",
"424 601 OFFCURVE",
"426 605 CURVE",
"431 612 OFFCURVE",
"436 622 OFFCURVE",
"454 622 CURVE SMOOTH",
"484 622 OFFCURVE",
"484 597 OFFCURVE",
"484 581 CURVE SMOOTH",
"484 442 LINE SMOOTH",
"484 422 OFFCURVE",
"484 401 OFFCURVE",
"449 401 CURVE SMOOTH",
"419 401 OFFCURVE",
"417 417 OFFCURVE",
"414 434 CURVE SMOOTH",
"400 515 OFFCURVE",
"345 561 OFFCURVE",
"285 561 CURVE SMOOTH",
"196 561 OFFCURVE",
"109 455 OFFCURVE",
"109 306 CURVE SMOOTH",
"109 156 OFFCURVE",
"195 50 OFFCURVE",
"286 50 CURVE SMOOTH",
"327 50 OFFCURVE",
"408 74 OFFCURVE",
"415 172 CURVE SMOOTH",
"417 201 OFFCURVE",
"440 201 OFFCURVE",
"449 201 CURVE SMOOTH",
"460 201 OFFCURVE",
"484 201 OFFCURVE",
"484 168 CURVE SMOOTH"
);
}
);
width = 525;
}
);
unicode = 00C7;
}
{
glyphname = Eth;
layers = (
{
layerId = master01;
paths = (
{
closed = 1;
nodes = (
"485 140 OFFCURVE",
"397 0 OFFCURVE",
"266 0 CURVE SMOOTH",
"60 0 LINE SMOOTH",
"45 0 OFFCURVE",
"19 0 OFFCURVE",
"19 30 CURVE SMOOTH",
"19 61 OFFCURVE",
"44 61 OFFCURVE",
"60 61 CURVE SMOOTH",
"82 61 LINE",
"82 275 LINE",
"54 275 LINE SMOOTH",
"37 275 OFFCURVE",
"23 288 OFFCURVE",
"23 306 CURVE SMOOTH",
"23 323 OFFCURVE",
"37 337 OFFCURVE",
"54 337 CURVE SMOOTH",
"82 337 LINE",
"82 550 LINE",
"60 550 LINE SMOOTH",
"45 550 OFFCURVE",
"19 550 OFFCURVE",
"19 580 CURVE SMOOTH",
"19 611 OFFCURVE",
"44 611 OFFCURVE",
"60 611 CURVE SMOOTH",
"266 611 LINE SMOOTH",
"399 611 OFFCURVE",
"485 461 OFFCURVE",
"485 301 CURVE SMOOTH"
);
},
{
closed = 1;
nodes = (
"416 417 OFFCURVE",
"360 550 OFFCURVE",
"247 550 CURVE SMOOTH",
"151 550 LINE",
"151 337 LINE",
"210 337 LINE SMOOTH",
"227 337 OFFCURVE",
"241 323 OFFCURVE",
"241 306 CURVE SMOOTH",
"241 288 OFFCURVE",
"227 275 OFFCURVE",
"210 275 CURVE SMOOTH",
"151 275 LINE",
"151 61 LINE",
"247 61 LINE SMOOTH",
"358 61 OFFCURVE",
"416 184 OFFCURVE",
"416 301 CURVE SMOOTH"
);
}
);
width = 525;
}
);
unicode = 00D0;
}
{
glyphname = Oslash;
layers = (
{
layerId = master01;
paths = (
{
closed = 1;
nodes = (
"468 16 OFFCURVE",
"446 -11 OFFCURVE",
"262 -11 CURVE SMOOTH",
"239 -11 OFFCURVE",
"218 -11 OFFCURVE",
"192 -9 CURVE",
"177 -55 LINE SMOOTH",
"173 -68 OFFCURVE",
"168 -85 OFFCURVE",
"147 -85 CURVE",
"147 -85 OFFCURVE",
"115 -83 OFFCURVE",
"115 -55 CURVE",
"115 -55 OFFCURVE",
"115 -47 OFFCURVE",
"132 4 CURVE",
"82 26 OFFCURVE",
"69 69 OFFCURVE",
"61 147 CURVE SMOOTH",
"56 195 OFFCURVE",
"56 260 OFFCURVE",
"56 305 CURVE SMOOTH",
"56 595 OFFCURVE",
"77 622 OFFCURVE",
"262 622 CURVE SMOOTH",
"285 622 OFFCURVE",
"306 622 OFFCURVE",
"332 620 CURVE",
"347 666 LINE SMOOTH",
"351 679 OFFCURVE",
"356 696 OFFCURVE",
"377 696 CURVE",
"377 696 OFFCURVE",
"409 694 OFFCURVE",
"409 666 CURVE",
"409 666 OFFCURVE",
"409 658 OFFCURVE",
"392 607 CURVE",
"457 579 OFFCURVE",
"468 510 OFFCURVE",
"468 305 CURVE SMOOTH"
);
},
{
closed = 1;
nodes = (
"412 509 OFFCURVE",
"391 524 OFFCURVE",
"370 540 CURVE",
"212 53 LINE",
"212 53 OFFCURVE",
"218 51 OFFCURVE",
"223 51 CURVE",
"234 50 OFFCURVE",
"236 50 OFFCURVE",
"262 50 CURVE SMOOTH",
"341 50 OFFCURVE",
"382 57 OFFCURVE",
"399 117 CURVE SMOOTH",
"412 165 OFFCURVE",
"412 245 OFFCURVE",
"412 306 CURVE SMOOTH"
);
},
{
closed = 1;
nodes = (
"312 558 OFFCURVE",
"306 560 OFFCURVE",
"301 560 CURVE",
"290 561 OFFCURVE",
"288 561 OFFCURVE",
"262 561 CURVE SMOOTH",
"183 561 OFFCURVE",
"142 554 OFFCURVE",
"125 494 CURVE SMOOTH",
"112 446 OFFCURVE",
"112 366 OFFCURVE",
"112 305 CURVE SMOOTH",
"112 102 OFFCURVE",
"133 87 OFFCURVE",
"154 71 CURVE",
"312 558 LINE"
);
}
);
width = 525;
}
);
unicode = 00D8;
}
{
glyphname = Thorn;
layers = (
{
layerId = master01;
paths = (
{
closed = 1;
nodes = (
"476 249 OFFCURVE",
"410 159 OFFCURVE",
"293 159 CURVE SMOOTH",
"178 159 LINE",
"178 61 LINE",
"196 61 OFFCURVE",
"229 61 OFFCURVE",
"233 60 CURVE SMOOTH",
"255 55 OFFCURVE",
"255 35 OFFCURVE",
"255 30 CURVE SMOOTH",
"255 0 OFFCURVE",
"230 0 OFFCURVE",
"212 0 CURVE SMOOTH",
"74 0 LINE SMOOTH",
"56 0 OFFCURVE",
"31 0 OFFCURVE",
"31 30 CURVE SMOOTH",
"31 58 OFFCURVE",
"54 60 OFFCURVE",
"56 61 CURVE",
"108 61 LINE",
"108 550 LINE",
"90 550 OFFCURVE",
"57 550 OFFCURVE",
"53 551 CURVE SMOOTH",
"31 556 OFFCURVE",
"31 576 OFFCURVE",
"31 581 CURVE SMOOTH",
"31 611 OFFCURVE",
"56 611 OFFCURVE",
"74 611 CURVE SMOOTH",
"212 611 LINE SMOOTH",
"230 611 OFFCURVE",
"255 611 OFFCURVE",
"255 581 CURVE SMOOTH",
"255 553 OFFCURVE",
"232 551 OFFCURVE",
"230 550 CURVE",
"178 550 LINE",
"178 507 LINE",
"292 507 LINE SMOOTH",
"413 507 OFFCURVE",
"476 415 OFFCURVE",
"476 333 CURVE SMOOTH"
);
},
{
closed = 1;
nodes = (
"406 376 OFFCURVE",
"374 446 OFFCURVE",
"278 446 CURVE SMOOTH",
"178 446 LINE",
"178 220 LINE",
"268 220 LINE SMOOTH",
"367 220 OFFCURVE",
"406 286 OFFCURVE",
"406 333 CURVE SMOOTH"
);
}
);
width = 525;
}
);
unicode = 00DE;
}
{
glyphname = acute;
layers = (
{
layerId = master01;
paths = (
{
closed = 1;
nodes = (
"369 576 OFFCURVE",
"365 563 OFFCURVE",
"341 552 CURVE SMOOTH",
"208 493 LINE SMOOTH",
"202 490 OFFCURVE",
"197 488 OFFCURVE",
"190 488 CURVE SMOOTH",
"164 488 OFFCURVE",
"157 520 OFFCURVE",
"157 528 CURVE SMOOTH",
"157 546 OFFCURVE",
"168 551 OFFCURVE",
"182 557 CURVE SMOOTH",
"315 617 LINE SMOOTH",
"326 622 OFFCURVE",
"334 622 OFFCURVE",
"334 622 CURVE",
"354 622 OFFCURVE",
"369 607 OFFCURVE",
"369 587 CURVE SMOOTH"
);
}
);
width = 525;
}
);
unicode = 00B4;
subCategory = Spacing;
}
{
glyphname = ae;
layers = (
{
layerId = master01;
paths = (
{
closed = 1;
nodes = (
"504 89 OFFCURVE",
"474 -6 OFFCURVE",
"389 -6 CURVE SMOOTH",
"324 -6 OFFCURVE",
"283 53 OFFCURVE",
"276 63 CURVE",
"250 19 OFFCURVE",
"197 -6 OFFCURVE",
"147 -6 CURVE SMOOTH",
"75 -6 OFFCURVE",
"33 59 OFFCURVE",
"33 118 CURVE SMOOTH",
"33 201 OFFCURVE",
"122 247 OFFCURVE",
"234 248 CURVE",
"234 281 LINE SMOOTH",
"234 344 OFFCURVE",
"203 379 OFFCURVE",
"154 379 CURVE SMOOTH",
"142 379 OFFCURVE",
"128 379 OFFCURVE",
"128 375 CURVE SMOOTH",
"128 372 OFFCURVE",
"129 369 OFFCURVE",
"129 366 CURVE",
"126 324 OFFCURVE",
"93 321 OFFCURVE",
"85 321 CURVE SMOOTH",
"61 321 OFFCURVE",
"40 337 OFFCURVE",
"40 367 CURVE SMOOTH",
"40 400 OFFCURVE",
"65 440 OFFCURVE",
"157 440 CURVE SMOOTH",
"211 440 OFFCURVE",
"248 411 OFFCURVE",
"272 368 CURVE",
"302 420 OFFCURVE",
"344 440 OFFCURVE",
"379 440 CURVE SMOOTH",
"451 440 OFFCURVE",
"504 366 OFFCURVE",
"504 233 CURVE SMOOTH",
"504 202 OFFCURVE",
"500 191 OFFCURVE",
"464 191 CURVE SMOOTH",
"292 191 LINE",
"300 106 OFFCURVE",
"350 55 OFFCURVE",
"394 55 CURVE SMOOTH",
"416 55 OFFCURVE",
"438 73 OFFCURVE",
"448 112 CURVE",
"450 118 OFFCURVE",
"454 137 OFFCURVE",
"476 137 CURVE SMOOTH",
"492 137 OFFCURVE",
"504 124 OFFCURVE",
"504 109 CURVE SMOOTH"
);
},
{
closed = 1;
nodes = (
"442 347 OFFCURVE",
"409 379 OFFCURVE",
"379 379 CURVE SMOOTH",
"336 379 OFFCURVE",
"298 315 OFFCURVE",
"292 251 CURVE",
"447 251 LINE"
);
},
{
closed = 1;
nodes = (
"155 186 OFFCURVE",
"89 162 OFFCURVE",
"89 119 CURVE SMOOTH",
"89 89 OFFCURVE",
"112 55 OFFCURVE",
"153 55 CURVE SMOOTH",
"160 55 OFFCURVE",
"188 57 OFFCURVE",
"211 76 CURVE SMOOTH",
"233 94 OFFCURVE",
"233 115 OFFCURVE",
"233 134 CURVE SMOOTH",
"233 163 OFFCURVE",
"233 178 OFFCURVE",
"234 189 CURVE"
);
}
);
width = 525;
}
);
unicode = 00E6;
}
{
glyphname = baht;
layers = (
{
layerId = master01;
paths = (
{
closed = 1;
nodes = (
"482 89 OFFCURVE",
"422 0 OFFCURVE",
"309 0 CURVE SMOOTH",
"285 0 LINE",
"286 -62 LINE SMOOTH",
"286 -79 OFFCURVE",
"272 -93 OFFCURVE",
"255 -93 CURVE SMOOTH",
"237 -93 OFFCURVE",
"224 -79 OFFCURVE",
"224 -62 CURVE SMOOTH",
"224 0 LINE",
"63 0 LINE SMOOTH",
"49 0 OFFCURVE",
"23 0 OFFCURVE",
"23 30 CURVE SMOOTH",
"23 61 OFFCURVE",
"48 61 OFFCURVE",
"64 61 CURVE SMOOTH",
"91 61 LINE",
"91 550 LINE",
"64 550 LINE SMOOTH",
"48 550 OFFCURVE",
"23 550 OFFCURVE",
"23 581 CURVE SMOOTH",
"23 611 OFFCURVE",
"49 611 OFFCURVE",
"63 611 CURVE SMOOTH",
"223 611 LINE",
"224 673 LINE SMOOTH",
"224 690 OFFCURVE",
"237 704 OFFCURVE",
"255 704 CURVE SMOOTH",
"272 704 OFFCURVE",
"286 690 OFFCURVE",
"286 673 CURVE SMOOTH",
"286 611 LINE",
"289 611 LINE SMOOTH",
"400 611 OFFCURVE",
"461 529 OFFCURVE",
"461 456 CURVE SMOOTH",
"461 394 OFFCURVE",
"417 342 OFFCURVE",
"353 320 CURVE",
"434 301 OFFCURVE",
"482 236 OFFCURVE",
"482 167 CURVE SMOOTH"
);
},
{
closed = 1;
nodes = (
"392 488 OFFCURVE",
"370 550 OFFCURVE",
"286 550 CURVE",
"286 349 LINE",
"365 359 OFFCURVE",
"392 417 OFFCURVE",
"392 455 CURVE SMOOTH"
);
},
{
closed = 1;
nodes = (
"224 550 LINE",
"160 550 LINE",
"160 348 LINE",
"224 348 LINE"
);
},
{
closed = 1;
nodes = (
"413 214 OFFCURVE",
"383 287 OFFCURVE",
"298 287 CURVE SMOOTH",
"286 287 LINE",
"285 61 LINE",
"287 61 LINE SMOOTH",
"374 61 OFFCURVE",
"413 120 OFFCURVE",
"413 169 CURVE SMOOTH"
);
},
{
closed = 1;
nodes = (
"223 287 LINE",
"160 287 LINE",
"160 61 LINE",
"224 61 LINE"
);
}
);
width = 525;
}
);
unicode = 0E3F;
}
{
glyphname = brokenbar;
layers = (
{
layerId = master01;
paths = (
{
closed = 1;
nodes = (
"297 389 OFFCURVE",
"281 376 OFFCURVE",
"262 376 CURVE SMOOTH",
"243 376 OFFCURVE",
"227 389 OFFCURVE",
"227 407 CURVE SMOOTH",
"227 647 LINE SMOOTH",
"227 659 OFFCURVE",
"227 694 OFFCURVE",
"262 694 CURVE SMOOTH",
"297 694 OFFCURVE",
"297 659 OFFCURVE",
"297 647 CURVE SMOOTH",
"297 407 LINE SMOOTH"
);
},
{
closed = 1;
nodes = (
"297 -48 OFFCURVE",
"297 -83 OFFCURVE",
"262 -83 CURVE SMOOTH",
"227 -83 OFFCURVE",
"227 -48 OFFCURVE",
"227 -36 CURVE SMOOTH",
"227 204 LINE SMOOTH",
"227 222 OFFCURVE",
"243 235 OFFCURVE",
"262 235 CURVE SMOOTH",
"281 235 OFFCURVE",
"297 222 OFFCURVE",
"297 204 CURVE SMOOTH",
"297 -36 LINE SMOOTH"
);
}
);
width = 525;
}
);
unicode = 00A6;
}
{
glyphname = ccedilla;
layers = (
{
layerId = master01;
paths = (
{
closed = 1;
nodes = (
"466 94 OFFCURVE",
"440 18 OFFCURVE",
"342 -1 CURVE",
"342 -9 LINE",
"413 -23 OFFCURVE",
"441 -67 OFFCURVE",
"441 -106 CURVE SMOOTH",
"441 -208 OFFCURVE",
"301 -208 OFFCURVE",
"206 -208 CURVE SMOOTH",
"191 -208 OFFCURVE",
"175 -200 OFFCURVE",
"175 -177 CURVE SMOOTH",
"175 -146 OFFCURVE",
"197 -146 OFFCURVE",
"235 -146 CURVE SMOOTH",
"273 -146 OFFCURVE",
"372 -146 OFFCURVE",
"372 -106 CURVE SMOOTH",
"372 -86 OFFCURVE",
"349 -68 OFFCURVE",
"305 -66 CURVE SMOOTH",
"273 -64 OFFCURVE",
"273 -44 OFFCURVE",
"273 -24 CURVE SMOOTH",
"273 -5 LINE",
"157 5 OFFCURVE",
"73 102 OFFCURVE",
"73 216 CURVE SMOOTH",
"73 304 OFFCURVE",
"133 440 OFFCURVE",
"305 440 CURVE SMOOTH",
"350 440 OFFCURVE",
"454 440 OFFCURVE",
"454 367 CURVE SMOOTH",
"454 338 OFFCURVE",
"433 321 OFFCURVE",
"409 321 CURVE SMOOTH",
"385 321 OFFCURVE",
"366 335 OFFCURVE",
"365 370 CURVE SMOOTH",
"365 379 OFFCURVE",
"326 379 OFFCURVE",
"305 379 CURVE SMOOTH",
"170 379 OFFCURVE",
"142 264 OFFCURVE",
"142 216 CURVE SMOOTH",
"142 125 OFFCURVE",
"214 55 OFFCURVE",
"299 55 CURVE SMOOTH",
"373 55 OFFCURVE",
"392 102 OFFCURVE",
"398 115 CURVE",
"405 135 OFFCURVE",
"415 137 OFFCURVE",
"431 137 CURVE SMOOTH",
"437 137 OFFCURVE",
"466 137 OFFCURVE",
"466 109 CURVE SMOOTH"
);
}
);
width = 525;
}
);
unicode = 00E7;
}
{
glyphname = cedilla;
layers = (
{
layerId = master01;
paths = (
{
closed = 1;
nodes = (
"428 -208 OFFCURVE",
"288 -208 OFFCURVE",
"193 -208 CURVE SMOOTH",
"178 -208 OFFCURVE",
"162 -200 OFFCURVE",
"162 -177 CURVE SMOOTH",
"162 -146 OFFCURVE",
"184 -146 OFFCURVE",
"222 -146 CURVE SMOOTH",
"260 -146 OFFCURVE",
"359 -146 OFFCURVE",
"359 -106 CURVE SMOOTH",
"359 -86 OFFCURVE",
"336 -68 OFFCURVE",
"292 -66 CURVE SMOOTH",
"260 -64 OFFCURVE",
"260 -44 OFFCURVE",
"260 -24 CURVE SMOOTH",
"260 3 LINE SMOOTH",
"260 23 OFFCURVE",
"260 45 OFFCURVE",
"295 45 CURVE SMOOTH",
"329 45 OFFCURVE",
"329 28 OFFCURVE",
"329 -9 CURVE",
"400 -23 OFFCURVE",
"428 -67 OFFCURVE",
"428 -106 CURVE SMOOTH"
);
}
);
width = 525;
}
);
unicode = 00B8;
subCategory = Spacing;
}
{
glyphname = cent;
layers = (
{
layerId = master01;
paths = (
{
closed = 1;
nodes = (
"466 93 OFFCURVE",
"436 7 OFFCURVE",
"320 -5 CURVE",
"320 -62 LINE SMOOTH",
"320 -79 OFFCURVE",
"306 -93 OFFCURVE",
"289 -93 CURVE SMOOTH",
"272 -93 OFFCURVE",
"258 -79 OFFCURVE",
"258 -62 CURVE SMOOTH",
"258 -3 LINE",
"150 14 OFFCURVE",
"73 107 OFFCURVE",
"73 216 CURVE SMOOTH",
"73 295 OFFCURVE",
"122 414 OFFCURVE",
"258 436 CURVE",
"258 493 LINE SMOOTH",
"258 510 OFFCURVE",
"272 524 OFFCURVE",
"289 524 CURVE SMOOTH",
"306 524 OFFCURVE",
"320 510 OFFCURVE",
"320 493 CURVE SMOOTH",
"320 440 LINE",
"369 439 OFFCURVE",
"454 433 OFFCURVE",
"454 367 CURVE SMOOTH",
"454 338 OFFCURVE",
"433 321 OFFCURVE",
"409 321 CURVE SMOOTH",
"385 321 OFFCURVE",
"366 335 OFFCURVE",
"365 370 CURVE SMOOTH",
"365 377 OFFCURVE",
"340 379 OFFCURVE",
"320 379 CURVE",
"320 56 LINE",
"377 64 OFFCURVE",
"393 103 OFFCURVE",
"398 115 CURVE",
"405 135 OFFCURVE",
"415 137 OFFCURVE",
"431 137 CURVE SMOOTH",
"437 137 OFFCURVE",
"466 137 OFFCURVE",
"466 109 CURVE SMOOTH"
);
},
{
closed = 1;
nodes = (
"258 374 LINE",
"163 350 OFFCURVE",
"142 258 OFFCURVE",
"142 216 CURVE SMOOTH",
"142 140 OFFCURVE",
"192 79 OFFCURVE",
"258 61 CURVE"
);
}
);
width = 525;
}
);
unicode = 00A2;
}
{
glyphname = copyright;
layers = (
{
components = (
{
name = bigcircle;
}
);
layerId = master01;
paths = (
{
closed = 1;
nodes = (
"362 140 OFFCURVE",
"316 92 OFFCURVE",
"253 92 CURVE SMOOTH",
"183 92 OFFCURVE",
"123 164 OFFCURVE",
"123 263 CURVE SMOOTH",
"123 361 OFFCURVE",
"183 433 OFFCURVE",
"253 433 CURVE SMOOTH",
"280 433 OFFCURVE",
"305 423 OFFCURVE",
"323 407 CURVE",
"330 421 OFFCURVE",
"330 422 OFFCURVE",
"331 424 CURVE",
"334 428 OFFCURVE",
"336 433 OFFCURVE",
"346 433 CURVE SMOOTH",
"362 433 OFFCURVE",
"362 420 OFFCURVE",
"362 411 CURVE SMOOTH",
"362 336 LINE SMOOTH",
"362 325 OFFCURVE",
"362 314 OFFCURVE",
"343 314 CURVE SMOOTH",
"327 314 OFFCURVE",
"326 323 OFFCURVE",
"325 332 CURVE",
"317 376 OFFCURVE",
"287 400 OFFCURVE",
"255 400 CURVE SMOOTH",
"207 400 OFFCURVE",
"160 343 OFFCURVE",
"160 263 CURVE SMOOTH",
"160 182 OFFCURVE",
"206 125 OFFCURVE",
"255 125 CURVE SMOOTH",
"278 125 OFFCURVE",
"321 138 OFFCURVE",
"325 190 CURVE SMOOTH",
"326 206 OFFCURVE",
"339 206 OFFCURVE",
"343 206 CURVE SMOOTH",
"349 206 OFFCURVE",
"362 206 OFFCURVE",
"362 188 CURVE SMOOTH"
);
}
);
width = 525;
}
);
unicode = 00A9;
}
{
glyphname = currency;
layers = (
{
layerId = master01;
paths = (
{
closed = 1;
nodes = (
"396 122 OFFCURVE",
"372 147 OFFCURVE",
"363 155 CURVE",
"340 179 LINE",
"317 165 OFFCURVE",
"291 157 OFFCURVE",
"263 157 CURVE SMOOTH",
"234 157 OFFCURVE",
"207 165 OFFCURVE",
"185 179 CURVE",
"162 156 LINE",
"153 148 OFFCURVE",
"128 123 OFFCURVE",
"104 148 CURVE SMOOTH",
"79 172 OFFCURVE",
"104 197 OFFCURVE",
"112 206 CURVE",
"135 229 LINE",
"122 251 OFFCURVE",
"114 278 OFFCURVE",
"114 306 CURVE SMOOTH",
"114 334 OFFCURVE",
"122 361 OFFCURVE",
"135 383 CURVE",
"111 407 LINE",
"103 416 OFFCURVE",
"78 440 OFFCURVE",
"103 465 CURVE SMOOTH",
"128 490 OFFCURVE",
"152 465 OFFCURVE",
"161 457 CURVE",
"185 433 LINE",
"207 447 OFFCURVE",
"234 455 OFFCURVE",
"263 455 CURVE SMOOTH",
"291 455 OFFCURVE",
"317 447 OFFCURVE",
"340 433 CURVE",
"362 456 LINE",
"371 464 OFFCURVE",
"396 489 OFFCURVE",
"420 464 CURVE SMOOTH",
"445 440 OFFCURVE",
"420 415 OFFCURVE",
"412 406 CURVE",
"389 384 LINE",
"403 361 OFFCURVE",
"411 335 OFFCURVE",
"411 306 CURVE SMOOTH",
"411 277 OFFCURVE",
"403 251 OFFCURVE",
"389 228 CURVE",
"413 205 LINE",
"421 196 OFFCURVE",
"446 172 OFFCURVE",
"421 147 CURVE SMOOTH"
);
},
{
closed = 1;
nodes = (
"341 349 OFFCURVE",
"306 385 OFFCURVE",
"263 385 CURVE SMOOTH",
"219 385 OFFCURVE",
"184 349 OFFCURVE",
"184 306 CURVE SMOOTH",
"184 263 OFFCURVE",
"219 227 OFFCURVE",
"263 227 CURVE SMOOTH",
"306 227 OFFCURVE",
"341 263 OFFCURVE",
"341 306 CURVE SMOOTH"
);
}
);
width = 525;
}
);
unicode = 00A4;
}
{
glyphname = degree;
layers = (
{
layerId = master01;
paths = (
{
closed = 1;
nodes = (
"408 385 OFFCURVE",
"343 319 OFFCURVE",
"263 319 CURVE SMOOTH",
"182 319 OFFCURVE",
"117 385 OFFCURVE",
"117 465 CURVE SMOOTH",
"117 546 OFFCURVE",
"182 611 OFFCURVE",
"263 611 CURVE SMOOTH",
"343 611 OFFCURVE",
"408 546 OFFCURVE",
"408 465 CURVE SMOOTH"
);
},
{
closed = 1;
nodes = (
"338 507 OFFCURVE",
"304 541 OFFCURVE",
"263 541 CURVE SMOOTH",
"221 541 OFFCURVE",
"187 507 OFFCURVE",
"187 465 CURVE SMOOTH",
"187 423 OFFCURVE",
"221 389 OFFCURVE",
"263 389 CURVE SMOOTH",
"304 389 OFFCURVE",
"338 423 OFFCURVE",
"338 465 CURVE SMOOTH"
);
}
);
width = 525;
}
);
unicode = 00B0;
}
{
glyphname = dieresis;
layers = (
{
layerId = master01;
paths = (
{
closed = 1;
nodes = (
"225 530 OFFCURVE",
"205 510 OFFCURVE",
"180 510 CURVE SMOOTH",
"155 510 OFFCURVE",
"135 530 OFFCURVE",
"135 555 CURVE SMOOTH",
"135 581 OFFCURVE",
"155 600 OFFCURVE",
"180 600 CURVE SMOOTH",
"205 600 OFFCURVE",
"225 581 OFFCURVE",
"225 555 CURVE SMOOTH"
);
},
{
closed = 1;
nodes = (
"390 530 OFFCURVE",
"370 510 OFFCURVE",
"345 510 CURVE SMOOTH",
"320 510 OFFCURVE",
"300 530 OFFCURVE",
"300 555 CURVE SMOOTH",
"300 581 OFFCURVE",
"320 600 OFFCURVE",
"345 600 CURVE SMOOTH",
"370 600 OFFCURVE",
"390 581 OFFCURVE",
"390 555 CURVE SMOOTH"
);
}
);
width = 525;
}
);
unicode = 00A8;
subCategory = Spacing;
}
{
glyphname = eth;
layers = (
{
layerId = master01;
paths = (
{
closed = 1;
nodes = (
"467 196 OFFCURVE",
"467 130 OFFCURVE",
"414 67 CURVE SMOOTH",
"369 14 OFFCURVE",
"311 -6 OFFCURVE",
"262 -6 CURVE SMOOTH",
"151 -6 OFFCURVE",
"57 91 OFFCURVE",
"57 215 CURVE SMOOTH",
"57 341 OFFCURVE",
"151 439 OFFCURVE",
"262 439 CURVE SMOOTH",
"297 439 OFFCURVE",
"325 428 OFFCURVE",
"331 426 CURVE",
"311 453 OFFCURVE",
"282 478 OFFCURVE",
"264 491 CURVE",
"249 500 LINE",
"161 464 LINE SMOOTH",
"156 462 OFFCURVE",
"151 461 OFFCURVE",
"146 461 CURVE SMOOTH",
"128 461 OFFCURVE",
"114 474 OFFCURVE",
"114 490 CURVE SMOOTH",
"114 504 OFFCURVE",
"124 516 OFFCURVE",
"138 522 CURVE SMOOTH",
"173 536 LINE",
"159 540 OFFCURVE",
"145 544 OFFCURVE",
"131 546 CURVE SMOOTH",
"117 548 OFFCURVE",
"105 549 OFFCURVE",
"95 549 CURVE SMOOTH",
"64 550 OFFCURVE",
"64 577 OFFCURVE",
"64 577 CURVE",
"64 589 OFFCURVE",
"76 611 OFFCURVE",
"106 611 CURVE SMOOTH",
"160 611 OFFCURVE",
"213 597 OFFCURVE",
"261 572 CURVE",
"351 608 LINE SMOOTH",
"356 610 OFFCURVE",
"361 611 OFFCURVE",
"366 611 CURVE SMOOTH",
"384 611 OFFCURVE",
"398 599 OFFCURVE",
"398 583 CURVE SMOOTH",
"398 569 OFFCURVE",
"388 556 OFFCURVE",
"374 551 CURVE SMOOTH",
"323 530 LINE",
"467 413 OFFCURVE",
"467 276 OFFCURVE",
"467 231 CURVE SMOOTH"
);
},
{
closed = 1;
nodes = (
"398 299 OFFCURVE",
"341 378 OFFCURVE",
"263 378 CURVE SMOOTH",
"192 378 OFFCURVE",
"128 313 OFFCURVE",
"128 223 CURVE SMOOTH",
"128 129 OFFCURVE",
"190 55 OFFCURVE",
"263 55 CURVE SMOOTH",
"341 55 OFFCURVE",
"398 137 OFFCURVE",
"398 219 CURVE SMOOTH"
);
}
);
width = 525;
}
);
unicode = 00F0;
}
{
glyphname = exclamdown;
layers = (
{
components = (
{
name = dotaccent;
transform = "{1, 0, 0, 1, -1, -216}";
}
);
layerId = master01;
paths = (
{
closed = 1;
nodes = (
"312 -229 OFFCURVE",
"271 -233 OFFCURVE",
"262 -233 CURVE SMOOTH",
"253 -233 OFFCURVE",
"212 -229 OFFCURVE",
"212 -176 CURVE SMOOTH",
"212 -123 OFFCURVE",
"216 -68 OFFCURVE",
"217 -16 CURVE SMOOTH",
"221 157 LINE SMOOTH",
"223 197 OFFCURVE",
"227 205 OFFCURVE",
"262 205 CURVE SMOOTH",
"274 205 OFFCURVE",
"301 205 OFFCURVE",
"302 180 CURVE SMOOTH",
"305 58 LINE",
"312 -176 LINE SMOOTH"
);
}
);
width = 525;
}
);
unicode = 00A1;
}
{
glyphname = germandbls;
layers = (
{
layerId = master01;
paths = (
{
closed = 1;
nodes = (
"495 65 OFFCURVE",
"404 -6 OFFCURVE",
"312 -6 CURVE SMOOTH",
"244 -6 OFFCURVE",
"210 32 OFFCURVE",
"210 69 CURVE SMOOTH",
"210 96 OFFCURVE",
"230 111 OFFCURVE",
"251 111 CURVE SMOOTH",
"264 111 OFFCURVE",
"276 104 OFFCURVE",
"283 95 CURVE",
"290 85 OFFCURVE",
"290 83 OFFCURVE",
"290 59 CURVE",
"296 56 OFFCURVE",
"305 55 OFFCURVE",
"312 55 CURVE SMOOTH",
"365 55 OFFCURVE",
"426 98 OFFCURVE",
"426 175 CURVE SMOOTH",
"426 230 OFFCURVE",
"397 362 OFFCURVE",
"262 370 CURVE",
"262 370 OFFCURVE",
"238 375 OFFCURVE",
"238 400 CURVE SMOOTH",
"238 423 OFFCURVE",
"254 430 OFFCURVE",
"266 431 CURVE",
"368 434 OFFCURVE",
"397 485 OFFCURVE",
"397 507 CURVE SMOOTH",
"397 531 OFFCURVE",
"350 556 OFFCURVE",
"288 556 CURVE SMOOTH",
"262 556 OFFCURVE",
"237 552 OFFCURVE",
"214 542 CURVE SMOOTH",
"180 527 OFFCURVE",
"180 514 OFFCURVE",
"180 494 CURVE SMOOTH",
"180 41 LINE SMOOTH",
"180 9 OFFCURVE",
"173 0 OFFCURVE",
"140 0 CURVE SMOOTH",
"57 0 LINE SMOOTH",
"42 0 OFFCURVE",
"17 0 OFFCURVE",
"17 30 CURVE SMOOTH",
"17 61 OFFCURVE",
"41 61 OFFCURVE",
"57 61 CURVE SMOOTH",
"111 61 LINE",
"111 370 LINE",
"57 370 LINE SMOOTH",
"42 370 OFFCURVE",
"17 370 OFFCURVE",
"17 400 CURVE SMOOTH",
"17 431 OFFCURVE",
"41 431 OFFCURVE",
"57 431 CURVE SMOOTH",
"111 431 LINE",
"111 501 LINE SMOOTH",
"111 594 OFFCURVE",
"225 617 OFFCURVE",
"289 617 CURVE SMOOTH",
"385 617 OFFCURVE",
"466 573 OFFCURVE",
"466 508 CURVE SMOOTH",
"466 478 OFFCURVE",
"452 432 OFFCURVE",
"383 395 CURVE",
"480 327 OFFCURVE",
"495 224 OFFCURVE",
"495 175 CURVE SMOOTH"
);
}
);
width = 525;
}
);
unicode = 00DF;
}
{
glyphname = guillemetleft;
layers = (
{
components = (
{
name = guilsinglleft;
transform = "{1, 0, 0, 1, 81, 0}";
}
);
layerId = master01;
paths = (
{
closed = 1;
nodes = (
"316 92 OFFCURVE",
"305 81 OFFCURVE",
"294 81 CURVE SMOOTH",
"289 81 OFFCURVE",
"286 82 OFFCURVE",
"276 90 CURVE SMOOTH",
"58 278 LINE",
"52 284 OFFCURVE",
"47 294 OFFCURVE",
"47 306 CURVE SMOOTH",
"47 323 OFFCURVE",
"55 330 OFFCURVE",
"61 336 CURVE",
"276 522 LINE SMOOTH",
"286 530 OFFCURVE",
"289 531 OFFCURVE",
"294 531 CURVE SMOOTH",
"305 531 OFFCURVE",
"316 520 OFFCURVE",
"316 499 CURVE SMOOTH",
"316 482 OFFCURVE",
"308 475 OFFCURVE",
"301 469 CURVE SMOOTH",
"113 306 LINE",
"301 143 LINE SMOOTH",
"308 137 OFFCURVE",
"316 130 OFFCURVE",
"316 113 CURVE SMOOTH"
);
}
);
width = 525;
}
);
unicode = 00AB;
}
{
glyphname = guillemetright;
layers = (
{
components = (
{
name = guilsinglright;
transform = "{1, 0, 0, 1, 80, 0}";
}
);
layerId = master01;
paths = (
{
closed = 1;
nodes = (
"315 294 OFFCURVE",
"310 284 OFFCURVE",
"304 278 CURVE",
"86 90 LINE SMOOTH",
"76 82 OFFCURVE",
"74 81 OFFCURVE",
"68 81 CURVE SMOOTH",
"57 81 OFFCURVE",
"46 92 OFFCURVE",
"46 113 CURVE SMOOTH",
"46 130 OFFCURVE",
"54 137 OFFCURVE",
"61 143 CURVE SMOOTH",
"249 306 LINE",
"61 469 LINE SMOOTH",
"54 475 OFFCURVE",
"46 482 OFFCURVE",
"46 499 CURVE SMOOTH",
"46 520 OFFCURVE",
"57 531 OFFCURVE",
"68 531 CURVE SMOOTH",
"74 531 OFFCURVE",
"76 530 OFFCURVE",
"86 522 CURVE SMOOTH",
"301 336 LINE",
"307 330 OFFCURVE",
"315 323 OFFCURVE",
"315 306 CURVE SMOOTH"
);
}
);
width = 525;
}
);
unicode = 00BB;
}
{
glyphname = logicalnot;
layers = (
{
layerId = master01;
paths = (
{
closed = 1;
nodes = (
"486 211 OFFCURVE",
"470 195 OFFCURVE",
"451 195 CURVE SMOOTH",
"432 195 OFFCURVE",
"416 211 OFFCURVE",
"416 230 CURVE SMOOTH",
"416 347 LINE",
"73 347 LINE SMOOTH",
"54 347 OFFCURVE",
"38 363 OFFCURVE",
"38 382 CURVE SMOOTH",
"38 401 OFFCURVE",
"54 417 OFFCURVE",
"73 417 CURVE SMOOTH",
"451 417 LINE SMOOTH",
"470 417 OFFCURVE",
"486 401 OFFCURVE",
"486 382 CURVE SMOOTH",
"486 230 LINE SMOOTH"
);
}
);
width = 525;
}
);
unicode = 00AC;
}
{
glyphname = macron;
layers = (
{
layerId = master01;
paths = (
{
closed = 1;
nodes = (
"452 524 OFFCURVE",
"428 524 OFFCURVE",
"412 524 CURVE SMOOTH",
"115 524 LINE SMOOTH",
"98 524 OFFCURVE",
"74 524 OFFCURVE",
"74 556 CURVE SMOOTH",
"74 587 OFFCURVE",
"98 587 OFFCURVE",
"114 587 CURVE SMOOTH",
"412 587 LINE SMOOTH",
"429 587 OFFCURVE",
"452 587 OFFCURVE",
"452 555 CURVE SMOOTH"
);
}
);
width = 525;
}
);
unicode = 00AF;
subCategory = Spacing;
}
{
glyphname = micro;
layers = (
{
layerId = master01;
paths = (
{
closed = 1;
nodes = (
"513 0 OFFCURVE",
"487 0 OFFCURVE",
"470 0 CURVE SMOOTH",
"401 0 LINE SMOOTH",
"383 0 OFFCURVE",
"359 0 OFFCURVE",
"357 31 CURVE",
"326 8 OFFCURVE",
"290 -6 OFFCURVE",
"239 -6 CURVE SMOOTH",
"228 -6 OFFCURVE",
"195 -6 OFFCURVE",
"166 5 CURVE",
"166 -161 LINE",
"208 -161 LINE SMOOTH",
"226 -161 OFFCURVE",
"251 -161 OFFCURVE",
"251 -192 CURVE SMOOTH",
"251 -222 OFFCURVE",
"225 -222 OFFCURVE",
"208 -222 CURVE SMOOTH",
"54 -222 LINE SMOOTH",
"36 -222 OFFCURVE",
"11 -222 OFFCURVE",
"11 -191 CURVE SMOOTH",
"11 -161 OFFCURVE",
"37 -161 OFFCURVE",
"54 -161 CURVE SMOOTH",
"96 -161 LINE",
"96 369 LINE",
"54 369 LINE SMOOTH",
"36 369 OFFCURVE",
"11 369 OFFCURVE",
"11 400 CURVE SMOOTH",
"11 430 OFFCURVE",
"37 430 OFFCURVE",
"54 430 CURVE SMOOTH",
"123 430 LINE SMOOTH",
"159 430 OFFCURVE",
"166 422 OFFCURVE",
"166 387 CURVE SMOOTH",
"166 121 LINE SMOOTH",
"166 87 OFFCURVE",
"166 55 OFFCURVE",
"245 55 CURVE SMOOTH",
"259 55 OFFCURVE",
"293 55 OFFCURVE",
"326 81 CURVE SMOOTH",
"358 107 OFFCURVE",
"358 137 OFFCURVE",
"358 158 CURVE SMOOTH",
"358 369 LINE",
"316 369 LINE SMOOTH",
"298 369 OFFCURVE",
"273 369 OFFCURVE",
"273 400 CURVE SMOOTH",
"273 430 OFFCURVE",
"299 430 OFFCURVE",
"316 430 CURVE SMOOTH",
"385 430 LINE SMOOTH",
"421 430 OFFCURVE",
"428 422 OFFCURVE",
"428 387 CURVE SMOOTH",
"428 61 LINE",
"470 61 LINE SMOOTH",
"488 61 OFFCURVE",
"513 61 OFFCURVE",
"513 30 CURVE SMOOTH"
);
}
);
width = 525;
}
);
unicode = 00B5;
}
{
glyphname = multiply;
layers = (
{
layerId = master01;
paths = (
{
closed = 1;
nodes = (
"396 122 OFFCURVE",
"372 147 OFFCURVE",
"363 155 CURVE",
"262 257 LINE",
"162 156 LINE",
"153 148 OFFCURVE",
"128 123 OFFCURVE",
"104 148 CURVE SMOOTH",
"79 172 OFFCURVE",
"104 197 OFFCURVE",
"112 206 CURVE",
"213 306 LINE",
"111 407 LINE",
"103 416 OFFCURVE",
"78 440 OFFCURVE",
"103 465 CURVE SMOOTH",
"128 490 OFFCURVE",
"152 465 OFFCURVE",
"161 457 CURVE",
"262 355 LINE",
"362 456 LINE",
"371 464 OFFCURVE",
"396 489 OFFCURVE",
"420 464 CURVE SMOOTH",
"445 440 OFFCURVE",
"420 415 OFFCURVE",
"412 406 CURVE",
"311 306 LINE",
"413 205 LINE",
"421 196 OFFCURVE",
"446 172 OFFCURVE",
"421 147 CURVE SMOOTH"
);
}
);
width = 525;
}
);
unicode = 00D7;
}
{
glyphname = one.superior;
layers = (
{
layerId = master01;
paths = (
{
closed = 1;
nodes = (
"347 311 OFFCURVE",
"334 311 OFFCURVE",
"327 311 CURVE SMOOTH",
"201 311 LINE SMOOTH",
"194 311 OFFCURVE",
"181 311 OFFCURVE",
"181 326 CURVE SMOOTH",
"181 342 OFFCURVE",
"193 342 OFFCURVE",
"201 342 CURVE SMOOTH",
"247 342 LINE",
"247 553 LINE",
"225 534 OFFCURVE",
"204 531 OFFCURVE",
"195 531 CURVE SMOOTH",
"187 531 OFFCURVE",
"178 533 OFFCURVE",
"178 546 CURVE SMOOTH",
"178 560 OFFCURVE",
"189 561 OFFCURVE",
"197 561 CURVE",
"206 562 OFFCURVE",
"232 568 OFFCURVE",
"251 610 CURVE SMOOTH",
"254 616 OFFCURVE",
"257 622 OFFCURVE",
"266 622 CURVE SMOOTH",
"281 622 OFFCURVE",
"281 610 OFFCURVE",
"281 602 CURVE SMOOTH",
"281 342 LINE",
"327 342 LINE SMOOTH",
"335 342 OFFCURVE",
"347 342 OFFCURVE",
"347 326 CURVE SMOOTH"
);
}
);
width = 525;
}
);
unicode = 00B9;
}
{
glyphname = onehalf;
layers = (
{
components = (
{
name = one.superior;
transform = "{1, 0, 0, 1, -152, 0}";
}
);
layerId = master01;
paths = (
{
closed = 1;
nodes = (
"499 5 OFFCURVE",
"496 0 OFFCURVE",
"479 0 CURVE SMOOTH",
"310 0 LINE SMOOTH",
"302 0 OFFCURVE",
"289 0 OFFCURVE",
"289 16 CURVE SMOOTH",
"289 23 OFFCURVE",
"292 25 OFFCURVE",
"297 29 CURVE SMOOTH",
"407 122 LINE SMOOTH",
"440 150 OFFCURVE",
"465 179 OFFCURVE",
"465 214 CURVE SMOOTH",
"465 258 OFFCURVE",
"426 281 OFFCURVE",
"385 281 CURVE SMOOTH",
"358 281 OFFCURVE",
"334 265 OFFCURVE",
"327 242 CURVE",
"331 239 OFFCURVE",
"334 232 OFFCURVE",
"334 226 CURVE SMOOTH",
"334 212 OFFCURVE",
"322 204 OFFCURVE",
"312 204 CURVE SMOOTH",
"303 204 OFFCURVE",
"289 209 OFFCURVE",
"289 228 CURVE SMOOTH",
"289 270 OFFCURVE",
"329 311 OFFCURVE",
"388 311 CURVE SMOOTH",
"449 311 OFFCURVE",
"499 274 OFFCURVE",
"499 214 CURVE SMOOTH",
"499 174 OFFCURVE",
"476 142 OFFCURVE",
"445 114 CURVE SMOOTH",
"423 94 OFFCURVE",
"375 56 OFFCURVE",
"346 31 CURVE",
"465 31 LINE",
"465 45 OFFCURVE",
"465 54 OFFCURVE",
"482 54 CURVE SMOOTH",
"499 54 OFFCURVE",
"499 43 OFFCURVE",
"499 34 CURVE SMOOTH",
"499 21 LINE SMOOTH"
);
},
{
closed = 1;
nodes = (
"455 585 OFFCURVE",
"453 579 OFFCURVE",
"451 574 CURVE",
"136 3 LINE SMOOTH",
"130 -8 OFFCURVE",
"118 -15 OFFCURVE",
"105 -15 CURVE SMOOTH",
"86 -15 OFFCURVE",
"70 1 OFFCURVE",
"70 20 CURVE SMOOTH",
"70 26 OFFCURVE",
"72 32 OFFCURVE",
"74 37 CURVE",
"389 608 LINE SMOOTH",
"395 619 OFFCURVE",
"407 626 OFFCURVE",
"420 626 CURVE SMOOTH",
"439 626 OFFCURVE",
"455 610 OFFCURVE",
"455 591 CURVE SMOOTH"
);
}
);
width = 525;
}
);
unicode = 00BD;
}
{
glyphname = onequarter;
layers = (
{
components = (
{
name = one.superior;
transform = "{1, 0, 0, 1, -152, 0}";
}
);
layerId = master01;
paths = (
{
closed = 1;
nodes = (
"499 85 OFFCURVE",
"487 85 OFFCURVE",
"479 85 CURVE SMOOTH",
"440 85 LINE",
"440 31 LINE",
"471 31 LINE SMOOTH",
"479 31 OFFCURVE",
"491 31 OFFCURVE",
"491 15 CURVE SMOOTH",
"491 0 OFFCURVE",
"479 0 OFFCURVE",
"471 0 CURVE SMOOTH",
"381 0 LINE SMOOTH",
"374 0 OFFCURVE",
"361 0 OFFCURVE",
"361 15 CURVE SMOOTH",
"361 31 OFFCURVE",
"373 31 OFFCURVE",
"381 31 CURVE SMOOTH",
"412 31 LINE",
"412 85 LINE",
"286 85 LINE SMOOTH",
"271 85 OFFCURVE",
"266 88 OFFCURVE",
"266 105 CURVE SMOOTH",
"266 115 OFFCURVE",
"266 116 OFFCURVE",
"271 122 CURVE",
"385 301 LINE SMOOTH",
"391 311 OFFCURVE",
"394 312 OFFCURVE",
"406 312 CURVE SMOOTH",
"420 312 LINE SMOOTH",
"437 312 OFFCURVE",
"440 308 OFFCURVE",
"440 291 CURVE SMOOTH",
"440 115 LINE",
"479 115 LINE SMOOTH",
"487 115 OFFCURVE",
"499 115 OFFCURVE",
"499 100 CURVE SMOOTH"
);
},
{
closed = 1;
nodes = (
"481 585 OFFCURVE",
"480 579 OFFCURVE",
"477 574 CURVE SMOOTH",
"162 3 LINE SMOOTH",
"156 -8 OFFCURVE",
"144 -15 OFFCURVE",
"131 -15 CURVE SMOOTH",
"112 -15 OFFCURVE",
"96 1 OFFCURVE",
"96 20 CURVE SMOOTH",
"96 26 OFFCURVE",
"98 32 OFFCURVE",
"101 37 CURVE SMOOTH",
"416 608 LINE SMOOTH",
"422 619 OFFCURVE",
"433 626 OFFCURVE",
"446 626 CURVE SMOOTH",
"466 626 OFFCURVE",
"481 610 OFFCURVE",
"481 591 CURVE SMOOTH"
);
},
{
closed = 1;
nodes = (
"412 290 LINE",
"301 115 LINE",
"412 115 LINE"
);
}
);
width = 525;
}
);
unicode = 00BC;
}
{
glyphname = ordfeminine;
layers = (
{
layerId = master01;
paths = (
{
closed = 1;
nodes = (
"427 314 OFFCURVE",
"411 314 OFFCURVE",
"392 314 CURVE SMOOTH",
"365 314 OFFCURVE",
"331 315 OFFCURVE",
"316 337 CURVE",
"283 315 OFFCURVE",
"240 310 OFFCURVE",
"214 310 CURVE SMOOTH",
"142 310 OFFCURVE",
"98 355 OFFCURVE",
"98 404 CURVE SMOOTH",
"98 471 OFFCURVE",
"184 506 OFFCURVE",
"308 508 CURVE",
"308 558 OFFCURVE",
"272 579 OFFCURVE",
"219 579 CURVE SMOOTH",
"194 579 LINE",
"180 577 OFFCURVE",
"179 577 OFFCURVE",
"179 571 CURVE",
"178 545 OFFCURVE",
"159 539 OFFCURVE",
"148 539 CURVE SMOOTH",
"131 539 OFFCURVE",
"117 550 OFFCURVE",
"117 571 CURVE SMOOTH",
"117 622 OFFCURVE",
"188 622 OFFCURVE",
"218 622 CURVE SMOOTH",
"319 622 OFFCURVE",
"357 563 OFFCURVE",
"357 514 CURVE SMOOTH",
"357 362 LINE",
"362 360 OFFCURVE",
"369 357 OFFCURVE",
"399 357 CURVE SMOOTH",
"409 357 OFFCURVE",
"427 357 OFFCURVE",
"427 336 CURVE SMOOTH"
);
},
{
closed = 1;
nodes = (
"396 246 OFFCURVE",
"382 237 OFFCURVE",
"365 237 CURVE SMOOTH",
"160 237 LINE SMOOTH",
"143 237 OFFCURVE",
"129 246 OFFCURVE",
"129 258 CURVE SMOOTH",
"129 270 OFFCURVE",
"143 280 OFFCURVE",
"160 280 CURVE SMOOTH",
"365 280 LINE SMOOTH",
"382 280 OFFCURVE",
"396 270 OFFCURVE",
"396 258 CURVE SMOOTH"
);
},
{
closed = 1;
nodes = (
"308 467 LINE",
"207 464 OFFCURVE",
"147 438 OFFCURVE",
"147 404 CURVE SMOOTH",
"147 376 OFFCURVE",
"175 353 OFFCURVE",
"219 353 CURVE SMOOTH",
"224 353 OFFCURVE",
"256 353 OFFCURVE",
"281 365 CURVE SMOOTH",
"308 377 OFFCURVE",
"308 392 OFFCURVE",
"308 408 CURVE SMOOTH"
);
}
);
width = 525;
}
);
unicode = 00AA;
}
{
glyphname = ordmasculine;
layers = (
{
layerId = master01;
paths = (
{
closed = 1;
nodes = (
"406 377 OFFCURVE",
"339 310 OFFCURVE",
"263 310 CURVE SMOOTH",
"186 310 OFFCURVE",
"119 376 OFFCURVE",
"119 465 CURVE SMOOTH",
"119 553 OFFCURVE",
"184 622 OFFCURVE",
"263 622 CURVE SMOOTH",
"341 622 OFFCURVE",
"406 553 OFFCURVE",
"406 465 CURVE SMOOTH"
);
},
{
closed = 1;
nodes = (
"375 246 OFFCURVE",
"361 237 OFFCURVE",
"344 237 CURVE SMOOTH",
"181 237 LINE SMOOTH",
"164 237 OFFCURVE",
"150 246 OFFCURVE",
"150 258 CURVE SMOOTH",
"150 270 OFFCURVE",
"164 280 OFFCURVE",
"181 280 CURVE SMOOTH",
"344 280 LINE SMOOTH",
"361 280 OFFCURVE",
"375 270 OFFCURVE",
"375 258 CURVE SMOOTH"
);
},
{
closed = 1;
nodes = (
"358 534 OFFCURVE",
"313 579 OFFCURVE",
"263 579 CURVE SMOOTH",
"213 579 OFFCURVE",
"167 534 OFFCURVE",
"167 470 CURVE SMOOTH",
"167 405 OFFCURVE",
"211 353 OFFCURVE",
"263 353 CURVE SMOOTH",
"314 353 OFFCURVE",
"358 405 OFFCURVE",
"358 470 CURVE SMOOTH"
);
}
);
width = 525;
}
);
unicode = 00BA;
}
{
glyphname = oslash;
layers = (
{
layerId = master01;
paths = (
{
closed = 1;
nodes = (
"481 538 OFFCURVE",
"481 532 OFFCURVE",
"474 520 CURVE SMOOTH",
"399 390 LINE",
"448 345 OFFCURVE",
"479 283 OFFCURVE",
"479 216 CURVE SMOOTH",
"479 92 OFFCURVE",
"380 -6 OFFCURVE",
"262 -6 CURVE SMOOTH",
"244 -6 OFFCURVE",
"213 -4 OFFCURVE",
"179 11 CURVE",
"102 -121 LINE",
"98 -129 OFFCURVE",
"91 -140 OFFCURVE",
"75 -140 CURVE SMOOTH",
"63 -140 OFFCURVE",
"43 -130 OFFCURVE",
"43 -110 CURVE SMOOTH",
"43 -102 OFFCURVE",
"53 -84 OFFCURVE",
"60 -72 CURVE SMOOTH",
"126 42 LINE",
"67 93 OFFCURVE",
"45 158 OFFCURVE",
"45 216 CURVE SMOOTH",
"45 338 OFFCURVE",
"141 440 OFFCURVE",
"262 440 CURVE SMOOTH",
"302 440 OFFCURVE",
"330 429 OFFCURVE",
"347 422 CURVE",
"422 552 LINE SMOOTH",
"427 561 OFFCURVE",
"433 571 OFFCURVE",
"449 571 CURVE SMOOTH",
"461 571 OFFCURVE",
"481 561 OFFCURVE",
"481 541 CURVE SMOOTH"
);
},
{
closed = 1;
nodes = (
"423 252 OFFCURVE",
"410 301 OFFCURVE",
"368 338 CURVE",
"210 63 LINE",
"229 57 OFFCURVE",
"235 55 OFFCURVE",
"262 55 CURVE SMOOTH",
"350 55 OFFCURVE",
"423 126 OFFCURVE",
"423 216 CURVE SMOOTH"
);
},
{
closed = 1;
nodes = (
"296 377 OFFCURVE",
"290 379 OFFCURVE",
"262 379 CURVE SMOOTH",
"174 379 OFFCURVE",
"101 306 OFFCURVE",
"101 216 CURVE SMOOTH",
"101 181 OFFCURVE",
"112 135 OFFCURVE",
"156 94 CURVE",
"316 370 LINE"
);
}
);
width = 525;
}
);
unicode = 00F8;
}
{
glyphname = paragraph;
layers = (
{
layerId = master01;
paths = (
{
closed = 1;
nodes = (
"500 654 OFFCURVE",
"484 654 OFFCURVE",
"472 654 CURVE SMOOTH",
"429 654 LINE",
"429 -161 LINE SMOOTH",
"429 -175 OFFCURVE",
"429 -194 OFFCURVE",
"412 -194 CURVE SMOOTH",
"394 -194 OFFCURVE",
"394 -175 OFFCURVE",
"394 -161 CURVE SMOOTH",
"394 654 LINE",
"334 654 LINE",
"334 -161 LINE SMOOTH",
"334 -175 OFFCURVE",
"334 -194 OFFCURVE",
"317 -194 CURVE SMOOTH",
"300 -194 OFFCURVE",
"300 -175 OFFCURVE",
"300 -161 CURVE SMOOTH",
"300 230 LINE",
"190 235 OFFCURVE",
"48 306 OFFCURVE",
"48 463 CURVE SMOOTH",
"48 589 OFFCURVE",
"143 694 OFFCURVE",
"263 694 CURVE SMOOTH",
"472 694 LINE SMOOTH",
"484 694 OFFCURVE",
"500 694 OFFCURVE",
"500 674 CURVE SMOOTH"
);
}
);
width = 525;
}
);
unicode = 00B6;
}
{
glyphname = plusminus;
layers = (
{
layerId = master01;
paths = (
{
closed = 1;
nodes = (
"486 0 OFFCURVE",
"451 0 OFFCURVE",
"439 0 CURVE SMOOTH",
"85 0 LINE SMOOTH",
"73 0 OFFCURVE",
"38 0 OFFCURVE",
"38 35 CURVE SMOOTH",
"38 70 OFFCURVE",
"73 70 OFFCURVE",
"85 70 CURVE SMOOTH",
"227 70 LINE",
"227 190 LINE",
"85 190 LINE SMOOTH",
"73 190 OFFCURVE",
"38 190 OFFCURVE",
"38 225 CURVE SMOOTH",
"38 260 OFFCURVE",
"73 260 OFFCURVE",
"85 260 CURVE SMOOTH",
"227 260 LINE",
"227 403 LINE SMOOTH",
"227 415 OFFCURVE",
"227 450 OFFCURVE",
"262 450 CURVE SMOOTH",
"297 450 OFFCURVE",
"297 415 OFFCURVE",
"297 403 CURVE SMOOTH",
"297 260 LINE",
"439 260 LINE SMOOTH",
"451 260 OFFCURVE",
"486 260 OFFCURVE",
"486 225 CURVE SMOOTH",
"486 190 OFFCURVE",
"451 190 OFFCURVE",
"439 190 CURVE SMOOTH",
"297 190 LINE",
"297 70 LINE",
"439 70 LINE SMOOTH",
"451 70 OFFCURVE",
"486 70 OFFCURVE",
"486 35 CURVE SMOOTH"
);
}
);
width = 525;
}
);
unicode = 00B1;
}
{
glyphname = questiondown;
layers = (
{
components = (
{
name = dotaccent;
transform = "{1, 0, 0, 1, -16, -216}";
}
);
layerId = master01;
paths = (
{
closed = 1;
nodes = (
"462 -228 OFFCURVE",
"280 -228 OFFCURVE",
"248 -228 CURVE SMOOTH",
"70 -228 OFFCURVE",
"62 -128 OFFCURVE",
"62 -104 CURVE SMOOTH",
"62 -46 OFFCURVE",
"104 -18 OFFCURVE",
"121 -6 CURVE SMOOTH",
"203 49 OFFCURVE",
"207 115 OFFCURVE",
"207 147 CURVE SMOOTH",
"207 164 LINE SMOOTH",
"207 200 OFFCURVE",
"217 205 OFFCURVE",
"247 205 CURVE SMOOTH",
"287 205 OFFCURVE",
"287 192 OFFCURVE",
"287 153 CURVE SMOOTH",
"287 113 OFFCURVE",
"287 28 OFFCURVE",
"162 -56 CURVE SMOOTH",
"150 -64 OFFCURVE",
"131 -77 OFFCURVE",
"131 -104 CURVE SMOOTH",
"131 -167 OFFCURVE",
"229 -167 OFFCURVE",
"249 -167 CURVE SMOOTH",
"265 -167 OFFCURVE",
"348 -167 OFFCURVE",
"382 -133 CURVE",
"375 -125 OFFCURVE",
"373 -114 OFFCURVE",
"373 -104 CURVE SMOOTH",
"373 -76 OFFCURVE",
"396 -59 OFFCURVE",
"417 -59 CURVE SMOOTH",
"438 -59 OFFCURVE",
"462 -74 OFFCURVE",
"462 -106 CURVE SMOOTH"
);
}
);
width = 525;
}
);
unicode = 00BF;
}
{
glyphname = registered;
layers = (
{
components = (
{
name = bigcircle;
}
);
layerId = master01;
paths = (
{
closed = 1;
nodes = (
"412 130 OFFCURVE",
"399 95 OFFCURVE",
"365 95 CURVE SMOOTH",
"347 95 OFFCURVE",
"332 103 OFFCURVE",
"323 119 CURVE SMOOTH",
"313 137 OFFCURVE",
"313 153 OFFCURVE",
"313 188 CURVE SMOOTH",
"313 211 OFFCURVE",
"313 223 OFFCURVE",
"301 234 CURVE SMOOTH",
"283 249 OFFCURVE",
"267 249 OFFCURVE",
"257 249 CURVE SMOOTH",
"215 249 LINE",
"215 134 LINE",
"228 134 LINE SMOOTH",
"237 134 OFFCURVE",
"250 134 OFFCURVE",
"250 117 CURVE SMOOTH",
"250 101 OFFCURVE",
"236 101 OFFCURVE",
"228 101 CURVE SMOOTH",
"164 101 LINE SMOOTH",
"156 101 OFFCURVE",
"143 101 OFFCURVE",
"143 117 CURVE SMOOTH",
"143 134 OFFCURVE",
"156 134 OFFCURVE",
"164 134 CURVE SMOOTH",
"178 134 LINE",
"178 397 LINE",
"164 397 LINE SMOOTH",
"156 397 OFFCURVE",
"143 397 OFFCURVE",
"143 414 CURVE SMOOTH",
"143 430 OFFCURVE",
"156 430 OFFCURVE",
"164 430 CURVE SMOOTH",
"260 430 LINE SMOOTH",
"323 430 OFFCURVE",
"364 386 OFFCURVE",
"364 340 CURVE SMOOTH",
"364 318 OFFCURVE",
"354 285 OFFCURVE",
"319 265 CURVE",
"326 259 OFFCURVE",
"338 247 OFFCURVE",
"345 232 CURVE",
"350 219 OFFCURVE",
"350 215 OFFCURVE",
"350 181 CURVE SMOOTH",
"350 152 OFFCURVE",
"350 128 OFFCURVE",
"365 128 CURVE SMOOTH",
"374 128 OFFCURVE",
"375 148 OFFCURVE",
"375 152 CURVE",
"376 168 OFFCURVE",
"388 168 OFFCURVE",
"394 168 CURVE SMOOTH",
"399 168 OFFCURVE",
"412 168 OFFCURVE",
"412 151 CURVE SMOOTH"
);
},
{
closed = 1;
nodes = (
"327 366 OFFCURVE",
"303 397 OFFCURVE",
"254 397 CURVE SMOOTH",
"215 397 LINE",
"215 282 LINE",
"254 282 LINE SMOOTH",
"303 282 OFFCURVE",
"327 313 OFFCURVE",
"327 340 CURVE SMOOTH"
);
}
);
width = 525;
}
);
unicode = 00AE;
}
{
glyphname = section;
layers = (
{
layerId = master01;
paths = (
{
closed = 1;
nodes = (
"490 151 OFFCURVE",
"467 114 OFFCURVE",
"433 92 CURVE",
"447 73 OFFCURVE",
"456 50 OFFCURVE",
"456 25 CURVE SMOOTH",
"456 -66 OFFCURVE",
"362 -122 OFFCURVE",
"263 -122 CURVE SMOOTH",
"167 -122 OFFCURVE",
"70 -80 OFFCURVE",
"70 5 CURVE SMOOTH",
"70 29 OFFCURVE",
"90 49 OFFCURVE",
"114 49 CURVE SMOOTH",
"138 49 OFFCURVE",
"158 29 OFFCURVE",
"158 5 CURVE SMOOTH",
"158 -5 OFFCURVE",
"154 -15 OFFCURVE",
"149 -22 CURVE",
"168 -48 OFFCURVE",
"218 -52 OFFCURVE",
"263 -52 CURVE SMOOTH",
"324 -52 OFFCURVE",
"386 -28 OFFCURVE",
"386 25 CURVE SMOOTH",
"386 71 OFFCURVE",
"333 89 OFFCURVE",
"286 105 CURVE SMOOTH",
"183 140 LINE SMOOTH",
"104 167 OFFCURVE",
"36 226 OFFCURVE",
"36 306 CURVE SMOOTH",
"36 348 OFFCURVE",
"59 386 OFFCURVE",
"93 407 CURVE",
"79 427 OFFCURVE",
"70 449 OFFCURVE",
"70 475 CURVE SMOOTH",
"70 566 OFFCURVE",
"164 622 OFFCURVE",
"263 622 CURVE SMOOTH",
"359 622 OFFCURVE",
"456 580 OFFCURVE",
"456 495 CURVE SMOOTH",
"456 471 OFFCURVE",
"436 451 OFFCURVE",
"412 451 CURVE SMOOTH",
"388 451 OFFCURVE",
"368 471 OFFCURVE",
"368 495 CURVE SMOOTH",
"368 505 OFFCURVE",
"372 515 OFFCURVE",
"377 522 CURVE",
"358 548 OFFCURVE",
"308 552 OFFCURVE",
"263 552 CURVE SMOOTH",
"202 552 OFFCURVE",
"140 528 OFFCURVE",
"140 475 CURVE SMOOTH",
"140 429 OFFCURVE",
"193 411 OFFCURVE",
"240 395 CURVE SMOOTH",
"343 360 LINE SMOOTH",
"422 333 OFFCURVE",
"490 274 OFFCURVE",
"490 194 CURVE SMOOTH"
);
},
{
closed = 1;
nodes = (
"420 245 OFFCURVE",
"371 276 OFFCURVE",
"320 294 CURVE SMOOTH",
"217 329 LINE SMOOTH",
"192 337 OFFCURVE",
"168 348 OFFCURVE",
"146 361 CURVE",
"122 355 OFFCURVE",
"106 331 OFFCURVE",
"106 306 CURVE SMOOTH",
"106 255 OFFCURVE",
"155 224 OFFCURVE",
"206 206 CURVE SMOOTH",
"309 171 LINE SMOOTH",
"334 162 OFFCURVE",
"358 151 OFFCURVE",
"380 138 CURVE",
"404 145 OFFCURVE",
"420 168 OFFCURVE",
"420 194 CURVE SMOOTH"
);
}
);
width = 525;
}
);
unicode = 00A7;
}
{
glyphname = sterling;
layers = (
{
layerId = master01;
paths = (
{
closed = 1;
nodes = (
"507 65 OFFCURVE",
"465 -11 OFFCURVE",
"394 -11 CURVE SMOOTH",
"341 -11 OFFCURVE",
"299 25 OFFCURVE",
"257 56 CURVE",
"231 14 OFFCURVE",
"174 -11 OFFCURVE",
"114 -11 CURVE SMOOTH",
"61 -11 OFFCURVE",
"18 30 OFFCURVE",
"18 82 CURVE SMOOTH",
"18 141 OFFCURVE",
"80 176 OFFCURVE",
"144 176 CURVE SMOOTH",
"162 176 OFFCURVE",
"178 172 OFFCURVE",
"193 166 CURVE",
"183 202 OFFCURVE",
"165 236 OFFCURVE",
"148 271 CURVE",
"83 271 LINE SMOOTH",
"64 271 OFFCURVE",
"48 286 OFFCURVE",
"48 306 CURVE SMOOTH",
"48 325 OFFCURVE",
"64 341 OFFCURVE",
"83 341 CURVE SMOOTH",
"115 341 LINE",
"104 369 OFFCURVE",
"96 399 OFFCURVE",
"96 431 CURVE SMOOTH",
"96 530 OFFCURVE",
"176 611 OFFCURVE",
"276 611 CURVE SMOOTH",
"371 611 OFFCURVE",
"455 543 OFFCURVE",
"455 451 CURVE SMOOTH",
"455 427 OFFCURVE",
"435 407 OFFCURVE",
"411 407 CURVE SMOOTH",
"387 407 OFFCURVE",
"367 427 OFFCURVE",
"367 451 CURVE SMOOTH",
"367 463 OFFCURVE",
"372 473 OFFCURVE",
"379 481 CURVE",
"364 518 OFFCURVE",
"321 541 OFFCURVE",
"276 541 CURVE SMOOTH",
"215 541 OFFCURVE",
"166 491 OFFCURVE",
"166 431 CURVE SMOOTH",
"166 399 OFFCURVE",
"174 369 OFFCURVE",
"185 341 CURVE",
"346 341 LINE SMOOTH",
"365 341 OFFCURVE",
"381 325 OFFCURVE",
"381 306 CURVE SMOOTH",
"381 286 OFFCURVE",
"365 271 OFFCURVE",
"346 271 CURVE SMOOTH",
"218 271 LINE",
"243 221 OFFCURVE",
"269 171 OFFCURVE",
"271 116 CURVE",
"309 87 OFFCURVE",
"346 59 OFFCURVE",
"394 59 CURVE SMOOTH",
"429 59 OFFCURVE",
"437 103 OFFCURVE",
"437 144 CURVE SMOOTH",
"437 163 OFFCURVE",
"453 179 OFFCURVE",
"472 179 CURVE SMOOTH",
"492 179 OFFCURVE",
"507 163 OFFCURVE",
"507 144 CURVE SMOOTH"
);
},
{
closed = 1;
nodes = (
"182 101 OFFCURVE",
"164 106 OFFCURVE",
"144 106 CURVE SMOOTH",
"118 106 OFFCURVE",
"88 105 OFFCURVE",
"88 82 CURVE SMOOTH",
"88 69 OFFCURVE",
"100 59 OFFCURVE",
"114 59 CURVE SMOOTH",
"150 59 OFFCURVE",
"188 68 OFFCURVE",
"199 93 CURVE"
);
}
);
width = 525;
}
);
unicode = 00A3;
}
{
glyphname = three.superior;
layers = (
{
layerId = master01;
paths = (
{
closed = 1;
nodes = (
"372 352 OFFCURVE",
"329 306 OFFCURVE",
"264 306 CURVE SMOOTH",
"202 306 OFFCURVE",
"154 335 OFFCURVE",
"154 379 CURVE SMOOTH",
"154 395 OFFCURVE",
"165 403 OFFCURVE",
"176 403 CURVE SMOOTH",
"189 403 OFFCURVE",
"198 393 OFFCURVE",
"198 381 CURVE SMOOTH",
"198 371 OFFCURVE",
"195 368 OFFCURVE",
"192 365 CURVE",
"205 342 OFFCURVE",
"244 336 OFFCURVE",
"264 336 CURVE SMOOTH",
"309 336 OFFCURVE",
"337 368 OFFCURVE",
"337 398 CURVE SMOOTH",
"337 427 OFFCURVE",
"312 461 OFFCURVE",
"262 461 CURVE SMOOTH",
"239 461 LINE SMOOTH",
"231 461 OFFCURVE",
"219 461 OFFCURVE",
"219 476 CURVE SMOOTH",
"219 491 OFFCURVE",
"227 491 OFFCURVE",
"255 493 CURVE SMOOTH",
"273 494 OFFCURVE",
"286 495 OFFCURVE",
"302 508 CURVE SMOOTH",
"315 519 OFFCURVE",
"323 536 OFFCURVE",
"323 551 CURVE SMOOTH",
"323 574 OFFCURVE",
"298 592 OFFCURVE",
"264 592 CURVE SMOOTH",
"259 592 OFFCURVE",
"224 592 OFFCURVE",
"208 576 CURVE",
"210 575 OFFCURVE",
"213 570 OFFCURVE",
"213 563 CURVE SMOOTH",
"213 549 OFFCURVE",
"201 540 OFFCURVE",
"191 540 CURVE SMOOTH",
"181 540 OFFCURVE",
"168 547 OFFCURVE",
"168 564 CURVE SMOOTH",
"168 598 OFFCURVE",
"203 622 OFFCURVE",
"263 622 CURVE SMOOTH",
"321 622 OFFCURVE",
"357 589 OFFCURVE",
"357 552 CURVE SMOOTH",
"357 525 OFFCURVE",
"343 496 OFFCURVE",
"315 478 CURVE",
"348 463 OFFCURVE",
"372 434 OFFCURVE",
"372 398 CURVE SMOOTH"
);
}
);
width = 525;
}
);
unicode = 00B3;
}
{
glyphname = threequarters;
layers = (
{
layerId = master01;
paths = (
{
closed = 1;
nodes = (
"240 352 OFFCURVE",
"198 306 OFFCURVE",
"132 306 CURVE SMOOTH",
"71 306 OFFCURVE",
"22 335 OFFCURVE",
"22 379 CURVE SMOOTH",
"22 395 OFFCURVE",
"33 403 OFFCURVE",
"45 403 CURVE SMOOTH",
"57 403 OFFCURVE",
"67 393 OFFCURVE",
"67 381 CURVE SMOOTH",
"67 371 OFFCURVE",
"63 368 OFFCURVE",
"61 365 CURVE",
"74 342 OFFCURVE",
"112 336 OFFCURVE",
"132 336 CURVE SMOOTH",
"178 336 OFFCURVE",
"206 368 OFFCURVE",
"206 398 CURVE SMOOTH",
"206 427 OFFCURVE",
"180 461 OFFCURVE",
"131 461 CURVE SMOOTH",
"108 461 LINE SMOOTH",
"100 461 OFFCURVE",
"88 461 OFFCURVE",
"88 476 CURVE SMOOTH",
"88 491 OFFCURVE",
"95 491 OFFCURVE",
"124 493 CURVE SMOOTH",
"142 494 OFFCURVE",
"154 495 OFFCURVE",
"170 508 CURVE SMOOTH",
"184 519 OFFCURVE",
"191 536 OFFCURVE",
"191 551 CURVE SMOOTH",
"191 574 OFFCURVE",
"166 592 OFFCURVE",
"132 592 CURVE SMOOTH",
"128 592 OFFCURVE",
"92 592 OFFCURVE",
"77 576 CURVE",
"78 575 OFFCURVE",
"81 570 OFFCURVE",
"81 563 CURVE SMOOTH",
"81 549 OFFCURVE",
"70 540 OFFCURVE",
"59 540 CURVE SMOOTH",
"49 540 OFFCURVE",
"37 547 OFFCURVE",
"37 564 CURVE SMOOTH",
"37 598 OFFCURVE",
"72 622 OFFCURVE",
"132 622 CURVE SMOOTH",
"189 622 OFFCURVE",
"226 589 OFFCURVE",
"226 552 CURVE SMOOTH",
"226 525 OFFCURVE",
"212 496 OFFCURVE",
"184 478 CURVE",
"217 463 OFFCURVE",
"240 434 OFFCURVE",
"240 398 CURVE SMOOTH"
);
},
{
closed = 1;
nodes = (
"499 85 OFFCURVE",
"487 85 OFFCURVE",
"479 85 CURVE SMOOTH",
"440 85 LINE",
"440 31 LINE",
"471 31 LINE SMOOTH",
"479 31 OFFCURVE",
"491 31 OFFCURVE",
"491 15 CURVE SMOOTH",
"491 0 OFFCURVE",
"479 0 OFFCURVE",
"471 0 CURVE SMOOTH",
"381 0 LINE SMOOTH",
"374 0 OFFCURVE",
"361 0 OFFCURVE",
"361 15 CURVE SMOOTH",
"361 31 OFFCURVE",
"373 31 OFFCURVE",
"381 31 CURVE SMOOTH",
"412 31 LINE",
"412 85 LINE",
"286 85 LINE SMOOTH",
"271 85 OFFCURVE",
"266 88 OFFCURVE",
"266 105 CURVE SMOOTH",
"266 115 OFFCURVE",
"266 116 OFFCURVE",
"271 122 CURVE",
"385 301 LINE SMOOTH",
"391 311 OFFCURVE",
"394 312 OFFCURVE",
"406 312 CURVE SMOOTH",
"420 312 LINE SMOOTH",
"437 312 OFFCURVE",
"440 308 OFFCURVE",
"440 291 CURVE SMOOTH",
"440 115 LINE",
"479 115 LINE SMOOTH",
"487 115 OFFCURVE",
"499 115 OFFCURVE",
"499 100 CURVE SMOOTH"
);
},
{
closed = 1;
nodes = (
"481 585 OFFCURVE",
"480 579 OFFCURVE",
"477 574 CURVE SMOOTH",
"162 3 LINE SMOOTH",
"156 -8 OFFCURVE",
"144 -15 OFFCURVE",
"131 -15 CURVE SMOOTH",
"112 -15 OFFCURVE",
"96 1 OFFCURVE",
"96 20 CURVE SMOOTH",
"96 26 OFFCURVE",
"98 32 OFFCURVE",
"101 37 CURVE SMOOTH",
"416 608 LINE SMOOTH",
"422 619 OFFCURVE",
"433 626 OFFCURVE",
"446 626 CURVE SMOOTH",
"466 626 OFFCURVE",
"481 610 OFFCURVE",
"481 591 CURVE SMOOTH"
);
},
{
closed = 1;
nodes = (
"412 290 LINE",
"301 115 LINE",
"412 115 LINE"
);
}
);
width = 525;
}
);
unicode = 00BE;
}
{
glyphname = two.superior;
layers = (
{
layerId = master01;
paths = (
{
closed = 1;
nodes = (
"368 316 OFFCURVE",
"364 311 OFFCURVE",
"348 311 CURVE SMOOTH",
"178 311 LINE SMOOTH",
"170 311 OFFCURVE",
"158 311 OFFCURVE",
"158 327 CURVE SMOOTH",
"158 334 OFFCURVE",
"161 336 OFFCURVE",
"165 340 CURVE",
"276 433 LINE SMOOTH",
"309 461 OFFCURVE",
"333 490 OFFCURVE",
"333 525 CURVE SMOOTH",
"333 569 OFFCURVE",
"295 592 OFFCURVE",
"254 592 CURVE SMOOTH",
"226 592 OFFCURVE",
"203 576 OFFCURVE",
"195 553 CURVE",
"200 550 OFFCURVE",
"202 543 OFFCURVE",
"202 537 CURVE SMOOTH",
"202 523 OFFCURVE",
"191 515 OFFCURVE",
"180 515 CURVE SMOOTH",
"172 515 OFFCURVE",
"158 520 OFFCURVE",
"158 539 CURVE SMOOTH",
"158 581 OFFCURVE",
"197 622 OFFCURVE",
"256 622 CURVE SMOOTH",
"317 622 OFFCURVE",
"368 585 OFFCURVE",
"368 525 CURVE SMOOTH",
"368 485 OFFCURVE",
"345 453 OFFCURVE",
"313 425 CURVE SMOOTH",
"292 405 OFFCURVE",
"244 367 OFFCURVE",
"214 342 CURVE",
"333 342 LINE",
"333 356 OFFCURVE",
"333 365 OFFCURVE",
"351 365 CURVE SMOOTH",
"368 365 OFFCURVE",
"368 354 OFFCURVE",
"368 345 CURVE SMOOTH",
"368 332 LINE SMOOTH"
);
}
);
width = 525;
}
);
unicode = 00B2;
}
{
glyphname = yen;
layers = (
{
layerId = master01;
paths = (
{
closed = 1;
nodes = (
"505 550 OFFCURVE",
"480 550 OFFCURVE",
"465 550 CURVE SMOOTH",
"444 550 LINE",
"381 419 LINE",
"420 419 LINE SMOOTH",
"439 419 OFFCURVE",
"455 403 OFFCURVE",
"455 384 CURVE SMOOTH",
"455 364 OFFCURVE",
"439 349 OFFCURVE",
"420 349 CURVE SMOOTH",
"347 349 LINE",
"306 263 LINE",
"420 263 LINE SMOOTH",
"439 263 OFFCURVE",
"455 248 OFFCURVE",
"455 228 CURVE SMOOTH",
"455 209 OFFCURVE",
"439 193 OFFCURVE",
"420 193 CURVE SMOOTH",
"297 193 LINE",
"297 61 LINE",
"322 61 LINE SMOOTH",
"338 61 OFFCURVE",
"362 61 OFFCURVE",
"362 30 CURVE SMOOTH",
"362 0 OFFCURVE",
"337 0 OFFCURVE",
"322 0 CURVE SMOOTH",
"203 0 LINE SMOOTH",
"187 0 OFFCURVE",
"163 0 OFFCURVE",
"163 31 CURVE SMOOTH",
"163 61 OFFCURVE",
"188 61 OFFCURVE",
"203 61 CURVE SMOOTH",
"228 61 LINE",
"228 193 LINE",
"105 193 LINE SMOOTH",
"86 193 OFFCURVE",
"70 209 OFFCURVE",
"70 228 CURVE SMOOTH",
"70 248 OFFCURVE",
"86 263 OFFCURVE",
"105 263 CURVE SMOOTH",
"219 263 LINE",
"177 349 LINE",
"105 349 LINE SMOOTH",
"86 349 OFFCURVE",
"70 364 OFFCURVE",
"70 384 CURVE SMOOTH",
"70 403 OFFCURVE",
"86 419 OFFCURVE",
"105 419 CURVE SMOOTH",
"143 419 LINE",
"80 550 LINE",
"59 550 LINE SMOOTH",
"43 550 OFFCURVE",
"19 550 OFFCURVE",
"19 581 CURVE SMOOTH",
"19 611 OFFCURVE",
"44 611 OFFCURVE",
"59 611 CURVE SMOOTH",
"163 611 LINE SMOOTH",
"178 611 OFFCURVE",
"203 611 OFFCURVE",
"203 581 CURVE SMOOTH",
"203 550 OFFCURVE",
"181 550 OFFCURVE",
"157 550 CURVE",
"219 419 LINE",
"309 419 LINE",
"367 550 LINE",
"343 550 OFFCURVE",
"321 550 OFFCURVE",
"321 581 CURVE SMOOTH",
"321 611 OFFCURVE",
"346 611 OFFCURVE",
"361 611 CURVE SMOOTH",
"465 611 LINE SMOOTH",
"481 611 OFFCURVE",
"505 611 OFFCURVE",
"505 580 CURVE SMOOTH"
);
},
{
closed = 1;
nodes = (
"250 349 LINE",
"255 335 OFFCURVE",
"260 323 OFFCURVE",
"262 314 CURVE",
"278 349 LINE"
);
}
);
width = 525;
}
);
unicode = 00A5;
}
{
glyphname = Alphadasia;
layers = (
{
components = (
{
name = dasia;
transform = "{1, 0, 0, 1, -171, 0}";
}
);
layerId = master01;
paths = (
{
closed = 1;
nodes = (
"477 61 OFFCURVE",
"497 61 OFFCURVE",
"497 30 CURVE SMOOTH",
"497 0 OFFCURVE",
"471 0 OFFCURVE",
"454 0 CURVE SMOOTH",
"352 0 LINE SMOOTH",
"334 0 OFFCURVE",
"310 0 OFFCURVE",
"310 30 CURVE SMOOTH",
"310 61 OFFCURVE",
"330 61 OFFCURVE",
"366 61 CURVE",
"343 165 LINE",
"181 165 LINE",
"158 61 LINE",
"194 61 OFFCURVE",
"214 61 OFFCURVE",
"214 30 CURVE SMOOTH",
"214 0 OFFCURVE",
"190 0 OFFCURVE",
"172 0 CURVE SMOOTH",
"70 0 LINE SMOOTH",
"53 0 OFFCURVE",
"27 0 OFFCURVE",
"27 30 CURVE SMOOTH",
"27 43 OFFCURVE",
"33 53 OFFCURVE",
"44 59 CURVE",
"50 61 OFFCURVE",
"73 61 OFFCURVE",
"87 61 CURVE",
"208 585 LINE SMOOTH",
"217 623 OFFCURVE",
"233 623 OFFCURVE",
"262 623 CURVE SMOOTH",
"293 623 OFFCURVE",
"307 622 OFFCURVE",
"316 584 CURVE SMOOTH",
"437 61 LINE"
);
},
{
closed = 1;
nodes = (
"262 540 LINE",
"196 226 LINE",
"328 226 LINE"
);
}
);
width = 525;
}
);
unicode = 1F09;
}
{
glyphname = Alphadasiaoxia;
layers = (
{
layerId = master01;
paths = (
{
closed = 1;
nodes = (
"105 608 OFFCURVE",
"93 619 OFFCURVE",
"77 619 CURVE SMOOTH",
"30 619 OFFCURVE",
"20 574 OFFCURVE",
"20 561 CURVE SMOOTH",
"20 514 OFFCURVE",
"68 502 OFFCURVE",
"83 502 CURVE SMOOTH",
"96 502 OFFCURVE",
"105 513 OFFCURVE",
"105 524 CURVE SMOOTH",
"105 552 OFFCURVE",
"60 537 OFFCURVE",
"60 561 CURVE SMOOTH",
"60 562 OFFCURVE",
"62 563 OFFCURVE",
"62 565 CURVE SMOOTH",
"62 566 LINE",
"68 563 OFFCURVE",
"68 562 OFFCURVE",
"77 562 CURVE SMOOTH",
"99 562 OFFCURVE",
"105 578 OFFCURVE",
"105 590 CURVE SMOOTH"
);
},
{
closed = 1;
nodes = (
"210 584 OFFCURVE",
"201 598 OFFCURVE",
"186 598 CURVE SMOOTH",
"180 598 OFFCURVE",
"172 596 OFFCURVE",
"168 592 CURVE",
"165 590 OFFCURVE",
"118 526 OFFCURVE",
"117 522 CURVE",
"110 504 OFFCURVE",
"132 486 OFFCURVE",
"148 497 CURVE",
"151 500 OFFCURVE",
"202 554 OFFCURVE",
"205 559 CURVE",
"208 562 OFFCURVE",
"210 568 OFFCURVE",
"210 573 CURVE SMOOTH"
);
},
{
closed = 1;
nodes = (
"487 61 OFFCURVE",
"505 61 OFFCURVE",
"505 30 CURVE SMOOTH",
"505 0 OFFCURVE",
"482 0 OFFCURVE",
"467 0 CURVE SMOOTH",
"375 0 LINE SMOOTH",
"359 0 OFFCURVE",
"337 0 OFFCURVE",
"337 30 CURVE SMOOTH",
"337 61 OFFCURVE",
"355 61 OFFCURVE",
"387 61 CURVE",
"367 165 LINE",
"221 165 LINE",
"200 61 LINE",
"233 61 OFFCURVE",
"251 61 OFFCURVE",
"251 30 CURVE SMOOTH",
"251 0 OFFCURVE",
"229 0 OFFCURVE",
"213 0 CURVE SMOOTH",
"121 0 LINE SMOOTH",
"106 0 OFFCURVE",
"82 0 OFFCURVE",
"82 30 CURVE SMOOTH",
"82 43 OFFCURVE",
"88 53 OFFCURVE",
"98 59 CURVE",
"103 61 OFFCURVE",
"124 61 OFFCURVE",
"136 61 CURVE",
"245 585 LINE SMOOTH",
"253 623 OFFCURVE",
"268 623 OFFCURVE",
"294 623 CURVE SMOOTH",
"322 623 OFFCURVE",
"334 622 OFFCURVE",
"342 584 CURVE SMOOTH",
"451 61 LINE"
);
},
{
closed = 1;
nodes = (
"294 540 LINE",
"234 226 LINE",
"353 226 LINE"
);
}
);
width = 525;
}
);
unicode = 1F0D;
}
{
glyphname = Alphadasiaoxiaprosgegrammeni;
layers = (
{
layerId = master01;
paths = (
{
closed = 1;
nodes = (
"509 125 OFFCURVE",
"512 120 OFFCURVE",
"512 104 CURVE SMOOTH",
"513 79 OFFCURVE",
"495 72 OFFCURVE",
"484 73 CURVE",
"484 -73 LINE",
"502 -72 OFFCURVE",
"514 -78 OFFCURVE",
"515 -105 CURVE SMOOTH",
"515 -116 OFFCURVE",
"513 -135 OFFCURVE",
"493 -133 CURVE",
"430 -133 LINE",
"410 -135 OFFCURVE",
"400 -132 OFFCURVE",
"400 -105 CURVE SMOOTH",
"400 -78 OFFCURVE",
"413 -72 OFFCURVE",
"431 -73 CURVE",
"431 73 LINE",
"419 72 OFFCURVE",
"402 79 OFFCURVE",
"403 104 CURVE SMOOTH",
"403 120 OFFCURVE",
"405 125 OFFCURVE",
"422 135 CURVE",
"492 135 LINE"
);
},
{
closed = 1;
nodes = (
"78 608 OFFCURVE",
"69 619 OFFCURVE",
"56 619 CURVE SMOOTH",
"18 619 OFFCURVE",
"10 574 OFFCURVE",
"10 561 CURVE SMOOTH",
"10 514 OFFCURVE",
"49 502 OFFCURVE",
"61 502 CURVE SMOOTH",
"71 502 OFFCURVE",
"78 513 OFFCURVE",
"78 524 CURVE SMOOTH",
"78 552 OFFCURVE",
"42 537 OFFCURVE",
"42 561 CURVE SMOOTH",
"42 562 OFFCURVE",
"44 563 OFFCURVE",
"44 565 CURVE SMOOTH",
"44 566 LINE",
"49 563 OFFCURVE",
"49 562 OFFCURVE",
"56 562 CURVE SMOOTH",
"73 562 OFFCURVE",
"78 578 OFFCURVE",
"78 590 CURVE SMOOTH"
);
},
{
closed = 1;
nodes = (
"162 584 OFFCURVE",
"155 598 OFFCURVE",
"143 598 CURVE SMOOTH",
"138 598 OFFCURVE",
"132 596 OFFCURVE",
"129 592 CURVE",
"126 590 OFFCURVE",
"89 526 OFFCURVE",
"88 522 CURVE",
"82 504 OFFCURVE",
"100 486 OFFCURVE",
"113 497 CURVE",
"115 500 OFFCURVE",
"156 554 OFFCURVE",
"158 559 CURVE",
"161 562 OFFCURVE",
"162 568 OFFCURVE",
"162 573 CURVE SMOOTH"
);
},
{
closed = 1;
nodes = (
"384 61 OFFCURVE",
"398 61 OFFCURVE",
"398 30 CURVE SMOOTH",
"398 0 OFFCURVE",
"380 0 OFFCURVE",
"368 0 CURVE SMOOTH",
"294 0 LINE SMOOTH",
"281 0 OFFCURVE",
"264 0 OFFCURVE",
"264 30 CURVE SMOOTH",
"264 61 OFFCURVE",
"278 61 OFFCURVE",
"304 61 CURVE",
"288 165 LINE",
"171 165 LINE",
"154 61 LINE",
"181 61 OFFCURVE",
"195 61 OFFCURVE",
"195 30 CURVE SMOOTH",
"195 0 OFFCURVE",
"177 0 OFFCURVE",
"165 0 CURVE SMOOTH",
"91 0 LINE SMOOTH",
"79 0 OFFCURVE",
"60 0 OFFCURVE",
"60 30 CURVE SMOOTH",
"60 43 OFFCURVE",
"65 53 OFFCURVE",
"73 59 CURVE",
"77 61 OFFCURVE",
"93 61 OFFCURVE",
"103 61 CURVE",
"190 585 LINE SMOOTH",
"197 623 OFFCURVE",
"209 623 OFFCURVE",
"229 623 CURVE SMOOTH",
"252 623 OFFCURVE",
"261 622 OFFCURVE",
"268 584 CURVE SMOOTH",
"355 61 LINE"
);
},
{
closed = 1;
nodes = (
"229 540 LINE",
"181 226 LINE",
"277 226 LINE"
);
}
);
width = 525;
}
);
unicode = 1F8D;
}
{
glyphname = Alphadasiaperispomeni;
layers = (
{
layerId = master01;
paths = (
{
closed = 1;
nodes = (
"152 590 OFFCURVE",
"143 599 OFFCURVE",
"131 599 CURVE SMOOTH",
"96 599 OFFCURVE",
"87 566 OFFCURVE",
"87 556 CURVE SMOOTH",
"87 521 OFFCURVE",
"125 512 OFFCURVE",
"135 512 CURVE SMOOTH",
"146 512 OFFCURVE",
"152 520 OFFCURVE",
"152 527 CURVE SMOOTH",
"152 549 OFFCURVE",
"119 538 OFFCURVE",
"119 556 CURVE SMOOTH",
"119 560 LINE",
"125 557 OFFCURVE",
"125 557 OFFCURVE",
"131 557 CURVE SMOOTH",
"147 557 OFFCURVE",
"152 568 OFFCURVE",
"152 578 CURVE SMOOTH"
);
},
{
closed = 1;
nodes = (
"223 671 OFFCURVE",
"222 657 OFFCURVE",
"222 653 CURVE",
"220 618 OFFCURVE",
"178 613 OFFCURVE",
"165 613 CURVE SMOOTH",
"133 613 OFFCURVE",
"102 636 OFFCURVE",
"83 636 CURVE SMOOTH",
"75 636 OFFCURVE",
"61 635 OFFCURVE",
"61 627 CURVE",
"60 608 OFFCURVE",
"25 607 OFFCURVE",
"25 630 CURVE SMOOTH",
"25 653 OFFCURVE",
"50 671 OFFCURVE",
"85 671 CURVE SMOOTH",
"122 670 OFFCURVE",
"136 648 OFFCURVE",
"165 648 CURVE SMOOTH",
"177 648 OFFCURVE",
"186 652 OFFCURVE",
"186 656 CURVE SMOOTH",
"186 659 OFFCURVE",
"188 671 OFFCURVE",
"203 671 CURVE SMOOTH"
);
},
{
closed = 1;
nodes = (
"482 61 OFFCURVE",
"500 61 OFFCURVE",
"500 30 CURVE SMOOTH",
"500 0 OFFCURVE",
"477 0 OFFCURVE",
"462 0 CURVE SMOOTH",
"370 0 LINE SMOOTH",
"354 0 OFFCURVE",
"332 0 OFFCURVE",
"332 30 CURVE SMOOTH",
"332 61 OFFCURVE",
"350 61 OFFCURVE",
"382 61 CURVE",
"362 165 LINE",
"216 165 LINE",
"195 61 LINE",
"228 61 OFFCURVE",
"246 61 OFFCURVE",
"246 30 CURVE SMOOTH",
"246 0 OFFCURVE",
"224 0 OFFCURVE",
"208 0 CURVE SMOOTH",
"116 0 LINE SMOOTH",
"101 0 OFFCURVE",
"77 0 OFFCURVE",
"77 30 CURVE SMOOTH",
"77 43 OFFCURVE",
"83 53 OFFCURVE",
"93 59 CURVE",
"98 61 OFFCURVE",
"119 61 OFFCURVE",
"131 61 CURVE",
"240 585 LINE SMOOTH",
"248 623 OFFCURVE",
"263 623 OFFCURVE",
"289 623 CURVE SMOOTH",
"317 623 OFFCURVE",
"329 622 OFFCURVE",
"337 584 CURVE SMOOTH",
"446 61 LINE"
);
},
{
closed = 1;
nodes = (
"289 540 LINE",
"229 226 LINE",
"348 226 LINE"
);
}
);
width = 525;
}
);
unicode = 1F0F;
}
{
glyphname = Alphadasiaperispomeniprosgegrammeni;
layers = (
{
layerId = master01;
paths = (
{
closed = 1;
nodes = (
"507 125 OFFCURVE",
"509 120 OFFCURVE",
"509 104 CURVE SMOOTH",
"510 79 OFFCURVE",
"493 72 OFFCURVE",
"481 73 CURVE",
"481 -73 LINE",
"499 -72 OFFCURVE",
"512 -78 OFFCURVE",
"512 -105 CURVE SMOOTH",
"512 -116 OFFCURVE",
"510 -135 OFFCURVE",
"490 -133 CURVE",
"427 -133 LINE",
"407 -135 OFFCURVE",
"397 -132 OFFCURVE",
"397 -105 CURVE SMOOTH",
"398 -78 OFFCURVE",
"410 -72 OFFCURVE",
"428 -73 CURVE",
"428 73 LINE",
"417 72 OFFCURVE",
"399 79 OFFCURVE",
"400 104 CURVE SMOOTH",
"400 120 OFFCURVE",
"402 125 OFFCURVE",
"419 135 CURVE",
"490 135 LINE"
);
},
{
closed = 1;
nodes = (
"114 590 OFFCURVE",
"107 599 OFFCURVE",
"98 599 CURVE SMOOTH",
"70 599 OFFCURVE",
"62 566 OFFCURVE",
"62 556 CURVE SMOOTH",
"62 521 OFFCURVE",
"93 512 OFFCURVE",
"101 512 CURVE SMOOTH",
"110 512 OFFCURVE",
"114 520 OFFCURVE",
"114 527 CURVE SMOOTH",
"114 549 OFFCURVE",
"88 538 OFFCURVE",
"88 556 CURVE SMOOTH",
"88 560 LINE",
"93 557 OFFCURVE",
"93 557 OFFCURVE",
"98 557 CURVE SMOOTH",
"110 557 OFFCURVE",
"114 568 OFFCURVE",
"114 578 CURVE SMOOTH"
);
},
{
closed = 1;
nodes = (
"171 671 OFFCURVE",
"170 657 OFFCURVE",
"170 653 CURVE",
"169 618 OFFCURVE",
"135 613 OFFCURVE",
"125 613 CURVE SMOOTH",
"99 613 OFFCURVE",
"74 636 OFFCURVE",
"59 636 CURVE SMOOTH",
"53 636 OFFCURVE",
"42 635 OFFCURVE",
"42 627 CURVE",
"41 608 OFFCURVE",
"13 607 OFFCURVE",
"13 630 CURVE SMOOTH",
"13 653 OFFCURVE",
"33 671 OFFCURVE",
"61 671 CURVE SMOOTH",
"90 670 OFFCURVE",
"102 648 OFFCURVE",
"125 648 CURVE SMOOTH",
"134 648 OFFCURVE",
"142 652 OFFCURVE",
"142 656 CURVE SMOOTH",
"142 659 OFFCURVE",
"143 671 OFFCURVE",
"155 671 CURVE SMOOTH"
);
},
{
closed = 1;
nodes = (
"378 61 OFFCURVE",
"393 61 OFFCURVE",
"393 30 CURVE SMOOTH",
"393 0 OFFCURVE",
"374 0 OFFCURVE",
"362 0 CURVE SMOOTH",
"289 0 LINE SMOOTH",
"276 0 OFFCURVE",
"258 0 OFFCURVE",
"258 30 CURVE SMOOTH",
"258 61 OFFCURVE",
"273 61 OFFCURVE",
"298 61 CURVE",
"282 165 LINE",
"166 165 LINE",
"149 61 LINE",
"175 61 OFFCURVE",
"190 61 OFFCURVE",
"190 30 CURVE SMOOTH",
"190 0 OFFCURVE",
"172 0 OFFCURVE",
"159 0 CURVE SMOOTH",
"86 0 LINE SMOOTH",
"74 0 OFFCURVE",
"54 0 OFFCURVE",
"54 30 CURVE SMOOTH",
"54 43 OFFCURVE",
"59 53 OFFCURVE",
"67 59 CURVE",
"71 61 OFFCURVE",
"88 61 OFFCURVE",
"98 61 CURVE",
"185 585 LINE SMOOTH",
"191 623 OFFCURVE",
"203 623 OFFCURVE",
"224 623 CURVE SMOOTH",
"246 623 OFFCURVE",
"256 622 OFFCURVE",
"262 584 CURVE SMOOTH",
"350 61 LINE"
);
},
{
closed = 1;
nodes = (
"224 540 LINE",
"176 226 LINE",
"271 226 LINE"
);
}
);
width = 525;
}
);
unicode = 1F8F;
}
{
glyphname = Alphadasiaprosgegrammeni;
layers = (
{
components = (
{
name = prosgegrammeni;
transform = "{1, 0, 0, 1, 183, 0}";
}
);
layerId = master01;
paths = (
{
closed = 1;
nodes = (
"118 584 OFFCURVE",
"112 564 OFFCURVE",
"89 564 CURVE SMOOTH",
"80 564 OFFCURVE",
"80 565 OFFCURVE",
"72 569 CURVE",
"72 562 LINE SMOOTH",
"72 530 OFFCURVE",
"120 550 OFFCURVE",
"120 512 CURVE SMOOTH",
"120 498 OFFCURVE",
"110 484 OFFCURVE",
"96 484 CURVE SMOOTH",
"80 484 OFFCURVE",
"27 500 OFFCURVE",
"27 562 CURVE SMOOTH",
"27 580 OFFCURVE",
"40 639 OFFCURVE",
"89 639 CURVE SMOOTH",
"107 639 OFFCURVE",
"118 624 OFFCURVE",
"118 601 CURVE SMOOTH"
);
},
{
closed = 1;
nodes = (
"382 61 OFFCURVE",
"398 61 OFFCURVE",
"398 30 CURVE SMOOTH",
"398 0 OFFCURVE",
"377 0 OFFCURVE",
"364 0 CURVE SMOOTH",
"282 0 LINE SMOOTH",
"268 0 OFFCURVE",
"248 0 OFFCURVE",
"248 30 CURVE SMOOTH",
"248 61 OFFCURVE",
"264 61 OFFCURVE",
"293 61 CURVE",
"275 165 LINE",
"145 165 LINE",
"127 61 LINE",
"156 61 OFFCURVE",
"172 61 OFFCURVE",
"172 30 CURVE SMOOTH",
"172 0 OFFCURVE",
"152 0 OFFCURVE",
"138 0 CURVE SMOOTH",
"56 0 LINE SMOOTH",
"43 0 OFFCURVE",
"22 0 OFFCURVE",
"22 30 CURVE SMOOTH",
"22 43 OFFCURVE",
"27 53 OFFCURVE",
"36 59 CURVE",
"40 61 OFFCURVE",
"59 61 OFFCURVE",
"70 61 CURVE",
"167 585 LINE SMOOTH",
"174 623 OFFCURVE",
"187 623 OFFCURVE",
"210 623 CURVE SMOOTH",
"235 623 OFFCURVE",
"246 622 OFFCURVE",
"253 584 CURVE SMOOTH",
"350 61 LINE"
);
},
{
closed = 1;
nodes = (
"210 540 LINE",
"157 226 LINE",
"263 226 LINE"
);
}
);
width = 525;
}
);
unicode = 1F89;
}
{
glyphname = Alphadasiavaria;
layers = (
{
layerId = master01;
paths = (
{
closed = 1;
nodes = (
"105 608 OFFCURVE",
"93 619 OFFCURVE",
"77 619 CURVE SMOOTH",
"30 619 OFFCURVE",
"20 574 OFFCURVE",
"20 561 CURVE SMOOTH",
"20 514 OFFCURVE",
"68 502 OFFCURVE",
"83 502 CURVE SMOOTH",
"96 502 OFFCURVE",
"105 513 OFFCURVE",
"105 524 CURVE SMOOTH",
"105 552 OFFCURVE",
"60 537 OFFCURVE",
"60 561 CURVE SMOOTH",
"60 562 OFFCURVE",
"62 563 OFFCURVE",
"62 565 CURVE SMOOTH",
"62 566 LINE",
"68 563 OFFCURVE",
"68 562 OFFCURVE",
"77 562 CURVE SMOOTH",
"99 562 OFFCURVE",
"105 578 OFFCURVE",
"105 590 CURVE SMOOTH"
);
},
{
closed = 1;
nodes = (
"117 584 OFFCURVE",
"126 598 OFFCURVE",
"141 598 CURVE SMOOTH",
"147 598 OFFCURVE",
"155 596 OFFCURVE",
"159 592 CURVE",
"162 590 OFFCURVE",
"209 526 OFFCURVE",
"210 522 CURVE",
"217 504 OFFCURVE",
"195 486 OFFCURVE",
"179 497 CURVE",
"176 500 OFFCURVE",
"125 554 OFFCURVE",
"122 559 CURVE",
"119 562 OFFCURVE",
"117 568 OFFCURVE",
"117 573 CURVE SMOOTH"
);
},
{
closed = 1;
nodes = (
"487 61 OFFCURVE",
"505 61 OFFCURVE",
"505 30 CURVE SMOOTH",
"505 0 OFFCURVE",
"482 0 OFFCURVE",
"467 0 CURVE SMOOTH",
"375 0 LINE SMOOTH",
"359 0 OFFCURVE",
"337 0 OFFCURVE",
"337 30 CURVE SMOOTH",
"337 61 OFFCURVE",
"355 61 OFFCURVE",
"387 61 CURVE",
"367 165 LINE",
"221 165 LINE",
"200 61 LINE",
"233 61 OFFCURVE",
"251 61 OFFCURVE",
"251 30 CURVE SMOOTH",
"251 0 OFFCURVE",
"229 0 OFFCURVE",
"213 0 CURVE SMOOTH",
"121 0 LINE SMOOTH",
"106 0 OFFCURVE",
"82 0 OFFCURVE",
"82 30 CURVE SMOOTH",
"82 43 OFFCURVE",
"88 53 OFFCURVE",
"98 59 CURVE",
"103 61 OFFCURVE",
"124 61 OFFCURVE",
"136 61 CURVE",
"245 585 LINE SMOOTH",
"253 623 OFFCURVE",
"268 623 OFFCURVE",
"294 623 CURVE SMOOTH",
"322 623 OFFCURVE",
"334 622 OFFCURVE",
"342 584 CURVE SMOOTH",
"451 61 LINE"
);
},
{
closed = 1;
nodes = (
"294 540 LINE",
"234 226 LINE",
"353 226 LINE"
);
}
);
width = 525;
}
);
unicode = 1F0B;
}
{
glyphname = Alphaprosgegrammeni;
layers = (
{
components = (
{
name = prosgegrammeni;
transform = "{1, 0, 0, 1, 180, 0}";
}
);
layerId = master01;
paths = (
{
closed = 1;
nodes = (
"385 61 OFFCURVE",
"401 61 OFFCURVE",
"401 30 CURVE SMOOTH",
"401 0 OFFCURVE",
"380 0 OFFCURVE",
"367 0 CURVE SMOOTH",
"285 0 LINE SMOOTH",
"271 0 OFFCURVE",
"251 0 OFFCURVE",
"251 30 CURVE SMOOTH",
"251 61 OFFCURVE",
"267 61 OFFCURVE",
"296 61 CURVE",
"278 165 LINE",
"148 165 LINE",
"130 61 LINE",
"159 61 OFFCURVE",
"175 61 OFFCURVE",
"175 30 CURVE SMOOTH",
"175 0 OFFCURVE",
"155 0 OFFCURVE",
"141 0 CURVE SMOOTH",
"59 0 LINE SMOOTH",
"46 0 OFFCURVE",
"25 0 OFFCURVE",
"25 30 CURVE SMOOTH",
"25 43 OFFCURVE",
"30 54 OFFCURVE",
"39 59 CURVE",
"43 62 OFFCURVE",
"62 61 OFFCURVE",
"73 61 CURVE",
"170 585 LINE SMOOTH",
"177 623 OFFCURVE",
"190 623 OFFCURVE",
"213 623 CURVE SMOOTH",
"238 623 OFFCURVE",
"249 622 OFFCURVE",
"256 584 CURVE SMOOTH",
"353 61 LINE"
);
},
{
closed = 1;
nodes = (
"213 540 LINE",
"160 226 LINE",
"266 226 LINE"
);
}
);
width = 525;
}
);
unicode = 1FBC;
}
{
glyphname = Alphapsilioxiaprosgegrammeni;
layers = (
{
layerId = master01;
paths = (
{
closed = 1;
nodes = (
"507 125 OFFCURVE",
"510 120 OFFCURVE",
"510 104 CURVE SMOOTH",
"511 79 OFFCURVE",
"493 72 OFFCURVE",
"482 73 CURVE",
"482 -73 LINE",
"500 -72 OFFCURVE",
"512 -78 OFFCURVE",
"513 -105 CURVE SMOOTH",
"513 -116 OFFCURVE",
"511 -135 OFFCURVE",
"491 -133 CURVE",
"428 -133 LINE",
"408 -135 OFFCURVE",
"398 -132 OFFCURVE",
"398 -105 CURVE SMOOTH",
"398 -78 OFFCURVE",
"411 -72 OFFCURVE",
"429 -73 CURVE",
"429 73 LINE",
"417 72 OFFCURVE",
"400 79 OFFCURVE",
"401 104 CURVE SMOOTH",
"401 120 OFFCURVE",
"403 125 OFFCURVE",
"420 135 CURVE",
"490 135 LINE"
);
},
{
closed = 1;
nodes = (
"12 608 OFFCURVE",
"22 619 OFFCURVE",
"35 619 CURVE SMOOTH",
"72 619 OFFCURVE",
"80 574 OFFCURVE",
"80 561 CURVE SMOOTH",
"80 514 OFFCURVE",
"42 502 OFFCURVE",
"30 502 CURVE SMOOTH",
"19 502 OFFCURVE",
"12 513 OFFCURVE",
"12 524 CURVE SMOOTH",
"12 552 OFFCURVE",
"48 537 OFFCURVE",
"48 561 CURVE SMOOTH",
"48 562 OFFCURVE",
"47 563 OFFCURVE",
"47 565 CURVE SMOOTH",
"47 566 LINE",
"42 563 OFFCURVE",
"42 562 OFFCURVE",
"35 562 CURVE SMOOTH",
"17 562 OFFCURVE",
"12 578 OFFCURVE",
"12 590 CURVE SMOOTH"
);
},
{
closed = 1;
nodes = (
"164 584 OFFCURVE",
"157 598 OFFCURVE",
"145 598 CURVE SMOOTH",
"140 598 OFFCURVE",
"134 596 OFFCURVE",
"131 592 CURVE",
"128 590 OFFCURVE",
"91 526 OFFCURVE",
"90 522 CURVE",
"84 504 OFFCURVE",
"102 486 OFFCURVE",
"115 497 CURVE",
"117 500 OFFCURVE",
"158 554 OFFCURVE",
"160 559 CURVE",
"163 562 OFFCURVE",
"164 568 OFFCURVE",
"164 573 CURVE SMOOTH"
);
},
{
closed = 1;
nodes = (
"386 61 OFFCURVE",
"400 61 OFFCURVE",
"400 30 CURVE SMOOTH",
"400 0 OFFCURVE",
"382 0 OFFCURVE",
"370 0 CURVE SMOOTH",
"296 0 LINE SMOOTH",
"283 0 OFFCURVE",
"266 0 OFFCURVE",
"266 30 CURVE SMOOTH",
"266 61 OFFCURVE",
"280 61 OFFCURVE",
"306 61 CURVE",
"290 165 LINE",
"173 165 LINE",
"156 61 LINE",
"183 61 OFFCURVE",
"197 61 OFFCURVE",
"197 30 CURVE SMOOTH",
"197 0 OFFCURVE",
"179 0 OFFCURVE",
"167 0 CURVE SMOOTH",
"93 0 LINE SMOOTH",
"81 0 OFFCURVE",
"62 0 OFFCURVE",
"62 30 CURVE SMOOTH",
"62 43 OFFCURVE",
"67 53 OFFCURVE",
"75 59 CURVE",
"79 61 OFFCURVE",
"95 61 OFFCURVE",
"105 61 CURVE",
"192 585 LINE SMOOTH",
"199 623 OFFCURVE",
"211 623 OFFCURVE",
"231 623 CURVE SMOOTH",
"254 623 OFFCURVE",
"263 622 OFFCURVE",
"270 584 CURVE SMOOTH",
"357 61 LINE"
);
},
{
closed = 1;
nodes = (
"231 540 LINE",
"183 226 LINE",
"279 226 LINE"
);
}
);
width = 525;
}
);
unicode = 1F8C;
}
{
glyphname = Alphapsiliperispomeni;
layers = (
{
layerId = master01;
paths = (
{
closed = 1;
nodes = (
"87 590 OFFCURVE",
"96 599 OFFCURVE",
"108 599 CURVE SMOOTH",
"143 599 OFFCURVE",
"152 566 OFFCURVE",
"152 556 CURVE SMOOTH",
"152 521 OFFCURVE",
"114 512 OFFCURVE",
"104 512 CURVE SMOOTH",
"93 512 OFFCURVE",
"87 520 OFFCURVE",
"87 527 CURVE SMOOTH",
"87 549 OFFCURVE",
"120 538 OFFCURVE",
"120 556 CURVE SMOOTH",
"120 560 LINE",
"114 557 OFFCURVE",
"114 557 OFFCURVE",
"108 557 CURVE SMOOTH",
"92 557 OFFCURVE",
"87 568 OFFCURVE",
"87 578 CURVE SMOOTH"
);
},
{
closed = 1;
nodes = (
"223 671 OFFCURVE",
"222 657 OFFCURVE",
"222 653 CURVE",
"220 618 OFFCURVE",
"178 613 OFFCURVE",
"165 613 CURVE SMOOTH",
"133 613 OFFCURVE",
"102 636 OFFCURVE",
"83 636 CURVE SMOOTH",
"75 636 OFFCURVE",
"61 635 OFFCURVE",
"61 627 CURVE",
"60 608 OFFCURVE",
"25 607 OFFCURVE",
"25 630 CURVE SMOOTH",
"25 653 OFFCURVE",
"50 671 OFFCURVE",
"85 671 CURVE SMOOTH",
"122 670 OFFCURVE",
"136 648 OFFCURVE",
"165 648 CURVE SMOOTH",
"177 648 OFFCURVE",
"186 652 OFFCURVE",
"186 656 CURVE SMOOTH",
"186 659 OFFCURVE",
"188 671 OFFCURVE",
"203 671 CURVE SMOOTH"
);
},
{
closed = 1;
nodes = (
"482 61 OFFCURVE",
"500 61 OFFCURVE",
"500 30 CURVE SMOOTH",
"500 0 OFFCURVE",
"477 0 OFFCURVE",
"462 0 CURVE SMOOTH",
"370 0 LINE SMOOTH",
"354 0 OFFCURVE",
"332 0 OFFCURVE",
"332 30 CURVE SMOOTH",
"332 61 OFFCURVE",
"350 61 OFFCURVE",
"382 61 CURVE",
"362 165 LINE",
"216 165 LINE",
"195 61 LINE",
"228 61 OFFCURVE",
"246 61 OFFCURVE",
"246 30 CURVE SMOOTH",
"246 0 OFFCURVE",
"224 0 OFFCURVE",
"208 0 CURVE SMOOTH",
"116 0 LINE SMOOTH",
"101 0 OFFCURVE",
"77 0 OFFCURVE",
"77 30 CURVE SMOOTH",
"77 43 OFFCURVE",
"83 53 OFFCURVE",
"93 59 CURVE",
"98 61 OFFCURVE",
"119 61 OFFCURVE",
"131 61 CURVE",
"240 585 LINE SMOOTH",
"248 623 OFFCURVE",
"263 623 OFFCURVE",
"289 623 CURVE SMOOTH",
"317 623 OFFCURVE",
"329 622 OFFCURVE",
"337 584 CURVE SMOOTH",
"446 61 LINE"
);
},
{
closed = 1;
nodes = (
"289 540 LINE",
"229 226 LINE",
"348 226 LINE"
);
}
);
width = 525;
}
);
unicode = 1F0E;
}
{
glyphname = Alphapsiliperispomeniprosgegrammeni;
layers = (
{
layerId = master01;
paths = (
{
closed = 1;
nodes = (
"502 125 OFFCURVE",
"504 120 OFFCURVE",
"504 104 CURVE SMOOTH",
"505 79 OFFCURVE",
"488 72 OFFCURVE",
"476 73 CURVE",
"476 -73 LINE",
"494 -72 OFFCURVE",
"507 -78 OFFCURVE",
"507 -105 CURVE SMOOTH",
"507 -116 OFFCURVE",
"505 -135 OFFCURVE",
"485 -133 CURVE",
"422 -133 LINE",
"402 -135 OFFCURVE",
"392 -132 OFFCURVE",
"392 -105 CURVE SMOOTH",
"393 -78 OFFCURVE",
"405 -72 OFFCURVE",
"423 -73 CURVE",
"423 73 LINE",
"412 72 OFFCURVE",
"394 79 OFFCURVE",
"395 104 CURVE SMOOTH",
"395 120 OFFCURVE",
"397 125 OFFCURVE",
"414 135 CURVE",
"485 135 LINE"
);
},
{
closed = 1;
nodes = (
"67 590 OFFCURVE",
"75 599 OFFCURVE",
"84 599 CURVE SMOOTH",
"112 599 OFFCURVE",
"119 566 OFFCURVE",
"119 556 CURVE SMOOTH",
"119 521 OFFCURVE",
"89 512 OFFCURVE",
"81 512 CURVE SMOOTH",
"72 512 OFFCURVE",
"67 520 OFFCURVE",
"67 527 CURVE SMOOTH",
"67 549 OFFCURVE",
"94 538 OFFCURVE",
"94 556 CURVE SMOOTH",
"94 560 LINE",
"89 557 OFFCURVE",
"89 557 OFFCURVE",
"84 557 CURVE SMOOTH",
"71 557 OFFCURVE",
"67 568 OFFCURVE",
"67 578 CURVE SMOOTH"
);
},
{
closed = 1;
nodes = (
"176 671 OFFCURVE",
"175 657 OFFCURVE",
"175 653 CURVE",
"174 618 OFFCURVE",
"140 613 OFFCURVE",
"130 613 CURVE SMOOTH",
"104 613 OFFCURVE",
"79 636 OFFCURVE",
"64 636 CURVE SMOOTH",
"58 636 OFFCURVE",
"47 635 OFFCURVE",
"47 627 CURVE",
"46 608 OFFCURVE",
"18 607 OFFCURVE",
"18 630 CURVE SMOOTH",
"18 653 OFFCURVE",
"38 671 OFFCURVE",
"66 671 CURVE SMOOTH",
"95 670 OFFCURVE",
"107 648 OFFCURVE",
"130 648 CURVE SMOOTH",
"139 648 OFFCURVE",
"147 652 OFFCURVE",
"147 656 CURVE SMOOTH",
"147 659 OFFCURVE",
"148 671 OFFCURVE",
"160 671 CURVE SMOOTH"
);
},
{
closed = 1;
nodes = (
"383 61 OFFCURVE",
"398 61 OFFCURVE",
"398 30 CURVE SMOOTH",
"398 0 OFFCURVE",
"379 0 OFFCURVE",
"367 0 CURVE SMOOTH",
"294 0 LINE SMOOTH",
"281 0 OFFCURVE",
"263 0 OFFCURVE",
"263 30 CURVE SMOOTH",
"263 61 OFFCURVE",
"278 61 OFFCURVE",
"303 61 CURVE",
"287 165 LINE",
"171 165 LINE",
"154 61 LINE",
"180 61 OFFCURVE",
"195 61 OFFCURVE",
"195 30 CURVE SMOOTH",
"195 0 OFFCURVE",
"177 0 OFFCURVE",
"164 0 CURVE SMOOTH",
"91 0 LINE SMOOTH",
"79 0 OFFCURVE",
"59 0 OFFCURVE",
"59 30 CURVE SMOOTH",
"59 43 OFFCURVE",
"64 53 OFFCURVE",
"72 59 CURVE",
"76 61 OFFCURVE",
"93 61 OFFCURVE",
"103 61 CURVE",
"190 585 LINE SMOOTH",
"196 623 OFFCURVE",
"208 623 OFFCURVE",
"229 623 CURVE SMOOTH",
"251 623 OFFCURVE",
"261 622 OFFCURVE",
"267 584 CURVE SMOOTH",
"355 61 LINE"
);
},
{
closed = 1;
nodes = (
"229 540 LINE",
"181 226 LINE",
"276 226 LINE"
);
}
);
width = 525;
}
);
unicode = 1F8E;
}
{
glyphname = Alphapsiliprosgegrammeni;
layers = (
{
components = (
{
name = prosgegrammeni;
transform = "{1, 0, 0, 1, 183, 0}";
}
);
layerId = master01;
paths = (
{
closed = 1;
nodes = (
"28 624 OFFCURVE",
"40 639 OFFCURVE",
"57 639 CURVE SMOOTH",
"107 639 OFFCURVE",
"120 580 OFFCURVE",
"120 562 CURVE SMOOTH",
"120 500 OFFCURVE",
"67 484 OFFCURVE",
"51 484 CURVE SMOOTH",
"36 484 OFFCURVE",
"27 498 OFFCURVE",
"27 512 CURVE SMOOTH",
"27 550 OFFCURVE",
"75 530 OFFCURVE",
"75 562 CURVE SMOOTH",
"75 569 LINE",
"67 565 OFFCURVE",
"67 564 OFFCURVE",
"57 564 CURVE SMOOTH",
"35 564 OFFCURVE",
"28 584 OFFCURVE",
"28 601 CURVE SMOOTH"
);
},
{
closed = 1;
nodes = (
"382 61 OFFCURVE",
"398 61 OFFCURVE",
"398 30 CURVE SMOOTH",
"398 0 OFFCURVE",
"377 0 OFFCURVE",
"364 0 CURVE SMOOTH",
"282 0 LINE SMOOTH",
"268 0 OFFCURVE",
"248 0 OFFCURVE",
"248 30 CURVE SMOOTH",
"248 61 OFFCURVE",
"264 61 OFFCURVE",
"293 61 CURVE",
"275 165 LINE",
"145 165 LINE",
"127 61 LINE",
"156 61 OFFCURVE",
"172 61 OFFCURVE",
"172 30 CURVE SMOOTH",
"172 0 OFFCURVE",
"152 0 OFFCURVE",
"138 0 CURVE SMOOTH",
"56 0 LINE SMOOTH",
"43 0 OFFCURVE",
"22 0 OFFCURVE",
"22 30 CURVE SMOOTH",
"22 43 OFFCURVE",
"27 53 OFFCURVE",
"36 59 CURVE",
"40 61 OFFCURVE",
"59 61 OFFCURVE",
"70 61 CURVE",
"167 585 LINE SMOOTH",
"174 623 OFFCURVE",
"187 623 OFFCURVE",
"210 623 CURVE SMOOTH",
"235 623 OFFCURVE",
"246 622 OFFCURVE",
"253 584 CURVE SMOOTH",
"350 61 LINE"
);
},
{
closed = 1;
nodes = (
"210 540 LINE",
"157 226 LINE",
"263 226 LINE"
);
}
);
width = 525;
}
);
unicode = 1F88;
}
{
glyphname = Alphapsilivaria;
layers = (
{
layerId = master01;
paths = (
{
closed = 1;
nodes = (
"20 608 OFFCURVE",
"32 619 OFFCURVE",
"48 619 CURVE SMOOTH",
"95 619 OFFCURVE",
"105 574 OFFCURVE",
"105 561 CURVE SMOOTH",
"105 514 OFFCURVE",
"57 502 OFFCURVE",
"42 502 CURVE SMOOTH",
"29 502 OFFCURVE",
"20 513 OFFCURVE",
"20 524 CURVE SMOOTH",
"20 552 OFFCURVE",
"65 537 OFFCURVE",
"65 561 CURVE SMOOTH",
"65 562 OFFCURVE",
"63 563 OFFCURVE",
"63 565 CURVE SMOOTH",
"63 566 LINE",
"57 563 OFFCURVE",
"57 562 OFFCURVE",
"48 562 CURVE SMOOTH",
"26 562 OFFCURVE",
"20 578 OFFCURVE",
"20 590 CURVE SMOOTH"
);
},
{
closed = 1;
nodes = (
"117 584 OFFCURVE",
"126 598 OFFCURVE",
"141 598 CURVE SMOOTH",
"147 598 OFFCURVE",
"155 596 OFFCURVE",
"159 592 CURVE",
"162 590 OFFCURVE",
"209 526 OFFCURVE",
"210 522 CURVE",
"217 504 OFFCURVE",
"195 486 OFFCURVE",
"179 497 CURVE",
"176 500 OFFCURVE",
"125 554 OFFCURVE",
"122 559 CURVE",
"119 562 OFFCURVE",
"117 568 OFFCURVE",
"117 573 CURVE SMOOTH"
);
},
{
closed = 1;
nodes = (
"487 61 OFFCURVE",
"505 61 OFFCURVE",
"505 30 CURVE SMOOTH",
"505 0 OFFCURVE",
"482 0 OFFCURVE",
"467 0 CURVE SMOOTH",
"375 0 LINE SMOOTH",
"359 0 OFFCURVE",
"337 0 OFFCURVE",
"337 30 CURVE SMOOTH",
"337 61 OFFCURVE",
"355 61 OFFCURVE",
"387 61 CURVE",
"367 165 LINE",
"221 165 LINE",
"200 61 LINE",
"233 61 OFFCURVE",
"251 61 OFFCURVE",
"251 30 CURVE SMOOTH",
"251 0 OFFCURVE",
"229 0 OFFCURVE",
"213 0 CURVE SMOOTH",
"121 0 LINE SMOOTH",
"106 0 OFFCURVE",
"82 0 OFFCURVE",
"82 30 CURVE SMOOTH",
"82 43 OFFCURVE",
"88 53 OFFCURVE",
"98 59 CURVE",
"103 61 OFFCURVE",
"124 61 OFFCURVE",
"136 61 CURVE",
"245 585 LINE SMOOTH",
"253 623 OFFCURVE",
"268 623 OFFCURVE",
"294 623 CURVE SMOOTH",
"322 623 OFFCURVE",
"334 622 OFFCURVE",
"342 584 CURVE SMOOTH",
"451 61 LINE"
);
},
{
closed = 1;
nodes = (
"294 540 LINE",
"234 226 LINE",
"353 226 LINE"
);
}
);
width = 525;
}
);
unicode = 1F0A;
}
{
glyphname = Alphapsilivariaprosgegrammeni;
layers = (
{
layerId = master01;
paths = (
{
closed = 1;
nodes = (
"504 125 OFFCURVE",
"506 120 OFFCURVE",
"506 104 CURVE SMOOTH",
"507 79 OFFCURVE",
"490 72 OFFCURVE",
"478 73 CURVE",
"478 -73 LINE",
"496 -72 OFFCURVE",
"509 -78 OFFCURVE",
"509 -105 CURVE SMOOTH",
"509 -116 OFFCURVE",
"507 -135 OFFCURVE",
"487 -133 CURVE",
"424 -133 LINE",
"404 -135 OFFCURVE",
"394 -132 OFFCURVE",
"394 -105 CURVE SMOOTH",
"395 -78 OFFCURVE",
"407 -72 OFFCURVE",
"425 -73 CURVE",
"425 73 LINE",
"414 72 OFFCURVE",
"396 79 OFFCURVE",
"397 104 CURVE SMOOTH",
"397 120 OFFCURVE",
"399 125 OFFCURVE",
"416 135 CURVE",
"487 135 LINE"
);
},
{
closed = 1;
nodes = (
"16 608 OFFCURVE",
"25 619 OFFCURVE",
"38 619 CURVE SMOOTH",
"76 619 OFFCURVE",
"84 574 OFFCURVE",
"84 561 CURVE SMOOTH",
"84 514 OFFCURVE",
"45 502 OFFCURVE",
"33 502 CURVE SMOOTH",
"23 502 OFFCURVE",
"16 513 OFFCURVE",
"16 524 CURVE SMOOTH",
"16 552 OFFCURVE",
"52 537 OFFCURVE",
"52 561 CURVE SMOOTH",
"52 562 OFFCURVE",
"50 563 OFFCURVE",
"50 565 CURVE SMOOTH",
"50 566 LINE",
"45 563 OFFCURVE",
"45 562 OFFCURVE",
"38 562 CURVE SMOOTH",
"21 562 OFFCURVE",
"16 578 OFFCURVE",
"16 590 CURVE SMOOTH"
);
},
{
closed = 1;
nodes = (
"93 584 OFFCURVE",
"101 598 OFFCURVE",
"113 598 CURVE SMOOTH",
"117 598 OFFCURVE",
"124 596 OFFCURVE",
"127 592 CURVE",
"129 590 OFFCURVE",
"167 526 OFFCURVE",
"168 522 CURVE SMOOTH",
"173 504 OFFCURVE",
"156 486 OFFCURVE",
"143 497 CURVE",
"141 500 OFFCURVE",
"100 554 OFFCURVE",
"97 559 CURVE SMOOTH",
"95 562 OFFCURVE",
"93 568 OFFCURVE",
"93 573 CURVE SMOOTH"
);
},
{
closed = 1;
nodes = (
"389 61 OFFCURVE",
"404 61 OFFCURVE",
"404 30 CURVE SMOOTH",
"404 0 OFFCURVE",
"385 0 OFFCURVE",
"373 0 CURVE SMOOTH",
"300 0 LINE SMOOTH",
"287 0 OFFCURVE",
"269 0 OFFCURVE",
"269 30 CURVE SMOOTH",
"269 61 OFFCURVE",
"284 61 OFFCURVE",
"309 61 CURVE",
"293 165 LINE",
"177 165 LINE",
"160 61 LINE",
"186 61 OFFCURVE",
"201 61 OFFCURVE",
"201 30 CURVE SMOOTH",
"201 0 OFFCURVE",
"183 0 OFFCURVE",
"170 0 CURVE SMOOTH",
"97 0 LINE SMOOTH",
"85 0 OFFCURVE",
"65 0 OFFCURVE",
"65 30 CURVE SMOOTH",
"65 43 OFFCURVE",
"70 53 OFFCURVE",
"78 59 CURVE",
"82 61 OFFCURVE",
"99 61 OFFCURVE",
"109 61 CURVE",
"196 585 LINE SMOOTH",
"202 623 OFFCURVE",
"214 623 OFFCURVE",
"235 623 CURVE SMOOTH",
"257 623 OFFCURVE",
"267 622 OFFCURVE",
"273 584 CURVE SMOOTH",
"361 61 LINE"
);
},
{
closed = 1;
nodes = (
"235 540 LINE",
"187 226 LINE",
"282 226 LINE"
);
}
);
width = 525;
}
);
unicode = 1F8A;
}
{
glyphname = Alphavaria;
layers = (
{
layerId = master01;
paths = (
{
closed = 1;
nodes = (
"25 621 OFFCURVE",
"37 641 OFFCURVE",
"57 641 CURVE SMOOTH",
"65 641 OFFCURVE",
"75 638 OFFCURVE",
"81 632 CURVE",
"85 629 OFFCURVE",
"147 544 OFFCURVE",
"149 539 CURVE",
"157 515 OFFCURVE",
"129 491 OFFCURVE",
"107 506 CURVE",
"103 510 OFFCURVE",
"35 582 OFFCURVE",
"31 588 CURVE",
"27 593 OFFCURVE",
"25 600 OFFCURVE",
"25 607 CURVE SMOOTH"
);
},
{
closed = 1;
nodes = (
"477 61 OFFCURVE",
"497 61 OFFCURVE",
"497 30 CURVE SMOOTH",
"497 0 OFFCURVE",
"471 0 OFFCURVE",
"454 0 CURVE SMOOTH",
"352 0 LINE SMOOTH",
"334 0 OFFCURVE",
"310 0 OFFCURVE",
"310 30 CURVE SMOOTH",
"310 61 OFFCURVE",
"330 61 OFFCURVE",
"366 61 CURVE",
"343 165 LINE",
"181 165 LINE",
"158 61 LINE",
"194 61 OFFCURVE",
"214 61 OFFCURVE",
"214 30 CURVE SMOOTH",
"214 0 OFFCURVE",
"190 0 OFFCURVE",
"172 0 CURVE SMOOTH",
"70 0 LINE SMOOTH",
"53 0 OFFCURVE",
"27 0 OFFCURVE",
"27 30 CURVE SMOOTH",
"27 43 OFFCURVE",
"33 53 OFFCURVE",
"44 59 CURVE",
"50 61 OFFCURVE",
"73 61 OFFCURVE",
"87 61 CURVE",
"208 585 LINE SMOOTH",
"217 623 OFFCURVE",
"233 623 OFFCURVE",
"262 623 CURVE SMOOTH",
"293 623 OFFCURVE",
"307 622 OFFCURVE",
"316 584 CURVE SMOOTH",
"437 61 LINE"
);
},
{
closed = 1;
nodes = (
"262 540 LINE",
"196 226 LINE",
"328 226 LINE"
);
}
);
width = 525;
}
);
unicode = 1FBA;
}
{
glyphname = Epsilondasia;
layers = (
{
layerId = master01;
paths = (
{
closed = 1;
nodes = (
"124 578 OFFCURVE",
"118 563 OFFCURVE",
"97 563 CURVE SMOOTH",
"88 563 OFFCURVE",
"88 564 OFFCURVE",
"80 567 CURVE",
"80 562 LINE SMOOTH",
"80 538 OFFCURVE",
"125 553 OFFCURVE",
"125 524 CURVE SMOOTH",
"125 514 OFFCURVE",
"116 503 OFFCURVE",
"103 503 CURVE SMOOTH",
"88 503 OFFCURVE",
"38 515 OFFCURVE",
"38 562 CURVE SMOOTH",
"38 575 OFFCURVE",
"50 620 OFFCURVE",
"97 620 CURVE SMOOTH",
"113 620 OFFCURVE",
"124 608 OFFCURVE",
"124 591 CURVE SMOOTH"
);
},
{
closed = 1;
nodes = (
"487 9 OFFCURVE",
"483 0 OFFCURVE",
"461 0 CURVE SMOOTH",
"201 0 LINE SMOOTH",
"191 0 OFFCURVE",
"174 0 OFFCURVE",
"174 30 CURVE SMOOTH",
"174 61 OFFCURVE",
"190 61 OFFCURVE",
"201 61 CURVE SMOOTH",
"221 61 LINE",
"221 550 LINE",
"201 550 LINE SMOOTH",
"191 550 OFFCURVE",
"174 550 OFFCURVE",
"174 581 CURVE SMOOTH",
"174 611 OFFCURVE",
"191 611 OFFCURVE",
"201 611 CURVE SMOOTH",
"447 611 LINE SMOOTH",
"468 611 OFFCURVE",
"473 601 OFFCURVE",
"473 570 CURVE SMOOTH",
"473 497 LINE SMOOTH",
"473 477 OFFCURVE",
"473 456 OFFCURVE",
"449 456 CURVE SMOOTH",
"427 456 OFFCURVE",
"427 478 OFFCURVE",
"427 497 CURVE SMOOTH",
"427 550 LINE",
"266 550 LINE",
"266 347 LINE",
"352 347 LINE",
"352 388 OFFCURVE",
"352 404 OFFCURVE",
"375 404 CURVE SMOOTH",
"398 404 OFFCURVE",
"398 382 OFFCURVE",
"398 363 CURVE SMOOTH",
"398 270 LINE SMOOTH",
"398 251 OFFCURVE",
"398 229 OFFCURVE",
"375 229 CURVE SMOOTH",
"352 229 OFFCURVE",
"352 245 OFFCURVE",
"352 286 CURVE",
"266 286 LINE",
"266 61 LINE",
"441 61 LINE",
"441 130 LINE SMOOTH",
"441 150 OFFCURVE",
"441 171 OFFCURVE",
"465 171 CURVE SMOOTH",
"487 171 OFFCURVE",
"487 149 OFFCURVE",
"487 130 CURVE SMOOTH",
"487 41 LINE SMOOTH"
);
}
);
width = 525;
}
);
unicode = 1F19;
}
{
glyphname = Epsilondasiaoxia;
layers = (
{
layerId = master01;
paths = (
{
closed = 1;
nodes = (
"96 578 OFFCURVE",
"90 562 OFFCURVE",
"68 562 CURVE SMOOTH",
"59 562 OFFCURVE",
"59 563 OFFCURVE",
"53 566 CURVE",
"51 565 OFFCURVE",
"51 563 OFFCURVE",
"51 561 CURVE SMOOTH",
"51 537 OFFCURVE",
"96 552 OFFCURVE",
"96 524 CURVE SMOOTH",
"96 513 OFFCURVE",
"87 502 OFFCURVE",
"74 502 CURVE SMOOTH",
"59 502 OFFCURVE",
"11 514 OFFCURVE",
"11 561 CURVE SMOOTH",
"11 574 OFFCURVE",
"21 619 OFFCURVE",
"68 619 CURVE SMOOTH",
"84 619 OFFCURVE",
"96 608 OFFCURVE",
"96 590 CURVE SMOOTH"
);
},
{
closed = 1;
nodes = (
"196 589 OFFCURVE",
"194 583 OFFCURVE",
"191 580 CURVE",
"188 575 OFFCURVE",
"137 521 OFFCURVE",
"134 518 CURVE",
"118 507 OFFCURVE",
"97 525 OFFCURVE",
"104 543 CURVE",
"105 547 OFFCURVE",
"151 611 OFFCURVE",
"154 613 CURVE",
"158 617 OFFCURVE",
"166 619 OFFCURVE",
"172 619 CURVE SMOOTH",
"187 619 OFFCURVE",
"196 605 OFFCURVE",
"196 594 CURVE SMOOTH"
);
},
{
closed = 1;
nodes = (
"514 9 OFFCURVE",
"510 0 OFFCURVE",
"488 0 CURVE SMOOTH",
"228 0 LINE SMOOTH",
"218 0 OFFCURVE",
"201 0 OFFCURVE",
"201 30 CURVE SMOOTH",
"201 61 OFFCURVE",
"217 61 OFFCURVE",
"228 61 CURVE SMOOTH",
"248 61 LINE",
"248 550 LINE",
"228 550 LINE SMOOTH",
"218 550 OFFCURVE",
"201 550 OFFCURVE",
"201 581 CURVE SMOOTH",
"201 611 OFFCURVE",
"218 611 OFFCURVE",
"228 611 CURVE SMOOTH",
"474 611 LINE SMOOTH",
"495 611 OFFCURVE",
"500 601 OFFCURVE",
"500 570 CURVE SMOOTH",
"500 497 LINE SMOOTH",
"500 477 OFFCURVE",
"500 456 OFFCURVE",
"476 456 CURVE SMOOTH",
"454 456 OFFCURVE",
"454 478 OFFCURVE",
"454 497 CURVE SMOOTH",
"454 550 LINE",
"293 550 LINE",
"293 347 LINE",
"379 347 LINE",
"379 388 OFFCURVE",
"379 404 OFFCURVE",
"402 404 CURVE SMOOTH",
"425 404 OFFCURVE",
"425 382 OFFCURVE",
"425 363 CURVE SMOOTH",
"425 270 LINE SMOOTH",
"425 251 OFFCURVE",
"425 229 OFFCURVE",
"402 229 CURVE SMOOTH",
"379 229 OFFCURVE",
"379 245 OFFCURVE",
"379 286 CURVE",
"293 286 LINE",
"293 61 LINE",
"468 61 LINE",
"468 130 LINE SMOOTH",
"468 150 OFFCURVE",
"468 171 OFFCURVE",
"492 171 CURVE SMOOTH",
"514 171 OFFCURVE",
"514 149 OFFCURVE",
"514 130 CURVE SMOOTH",
"514 41 LINE SMOOTH"
);
}
);
width = 525;
}
);
unicode = 1F1D;
}
{
glyphname = Epsilonpsili;
layers = (
{
layerId = master01;
paths = (
{
closed = 1;
nodes = (
"39 608 OFFCURVE",
"50 620 OFFCURVE",
"66 620 CURVE SMOOTH",
"113 620 OFFCURVE",
"125 575 OFFCURVE",
"125 562 CURVE SMOOTH",
"125 515 OFFCURVE",
"75 503 OFFCURVE",
"60 503 CURVE SMOOTH",
"47 503 OFFCURVE",
"38 514 OFFCURVE",
"38 524 CURVE SMOOTH",
"38 553 OFFCURVE",
"83 538 OFFCURVE",
"83 562 CURVE SMOOTH",
"83 567 LINE",
"75 564 OFFCURVE",
"75 563 OFFCURVE",
"66 563 CURVE SMOOTH",
"45 563 OFFCURVE",
"39 578 OFFCURVE",
"39 591 CURVE SMOOTH"
);
},
{
closed = 1;
nodes = (
"487 9 OFFCURVE",
"483 0 OFFCURVE",
"461 0 CURVE SMOOTH",
"201 0 LINE SMOOTH",
"191 0 OFFCURVE",
"174 0 OFFCURVE",
"174 30 CURVE SMOOTH",
"174 61 OFFCURVE",
"190 61 OFFCURVE",
"201 61 CURVE SMOOTH",
"221 61 LINE",
"221 550 LINE",
"201 550 LINE SMOOTH",
"191 550 OFFCURVE",
"174 550 OFFCURVE",
"174 581 CURVE SMOOTH",
"174 611 OFFCURVE",
"191 611 OFFCURVE",
"201 611 CURVE SMOOTH",
"447 611 LINE SMOOTH",
"468 611 OFFCURVE",
"473 601 OFFCURVE",
"473 570 CURVE SMOOTH",
"473 497 LINE SMOOTH",
"473 477 OFFCURVE",
"473 456 OFFCURVE",
"449 456 CURVE SMOOTH",
"427 456 OFFCURVE",
"427 478 OFFCURVE",
"427 497 CURVE SMOOTH",
"427 550 LINE",
"266 550 LINE",
"266 347 LINE",
"352 347 LINE",
"352 388 OFFCURVE",
"352 404 OFFCURVE",
"375 404 CURVE SMOOTH",
"398 404 OFFCURVE",
"398 382 OFFCURVE",
"398 363 CURVE SMOOTH",
"398 270 LINE SMOOTH",
"398 251 OFFCURVE",
"398 229 OFFCURVE",
"375 229 CURVE SMOOTH",
"352 229 OFFCURVE",
"352 245 OFFCURVE",
"352 286 CURVE",
"266 286 LINE",
"266 61 LINE",
"441 61 LINE",
"441 130 LINE SMOOTH",
"441 150 OFFCURVE",
"441 171 OFFCURVE",
"465 171 CURVE SMOOTH",
"487 171 OFFCURVE",
"487 149 OFFCURVE",
"487 130 CURVE SMOOTH",
"487 41 LINE SMOOTH"
);
}
);
width = 525;
}
);
unicode = 1F18;
}
{
glyphname = Epsilonpsilioxia;
layers = (
{
layerId = master01;
paths = (
{
closed = 1;
nodes = (
"12 608 OFFCURVE",
"24 619 OFFCURVE",
"40 619 CURVE SMOOTH",
"87 619 OFFCURVE",
"97 574 OFFCURVE",
"97 561 CURVE SMOOTH",
"97 514 OFFCURVE",
"49 502 OFFCURVE",
"34 502 CURVE SMOOTH",
"21 502 OFFCURVE",
"12 513 OFFCURVE",
"12 524 CURVE SMOOTH",
"12 552 OFFCURVE",
"57 537 OFFCURVE",
"57 561 CURVE SMOOTH",
"57 563 OFFCURVE",
"57 565 OFFCURVE",
"55 566 CURVE",
"49 563 OFFCURVE",
"49 562 OFFCURVE",
"40 562 CURVE SMOOTH",
"18 562 OFFCURVE",
"12 578 OFFCURVE",
"12 590 CURVE SMOOTH"
);
},
{
closed = 1;
nodes = (
"191 590 OFFCURVE",
"189 584 OFFCURVE",
"186 581 CURVE",
"183 576 OFFCURVE",
"132 522 OFFCURVE",
"129 519 CURVE",
"113 508 OFFCURVE",
"92 526 OFFCURVE",
"99 544 CURVE",
"100 548 OFFCURVE",
"146 612 OFFCURVE",
"149 614 CURVE",
"153 618 OFFCURVE",
"161 620 OFFCURVE",
"167 620 CURVE SMOOTH",
"182 620 OFFCURVE",
"191 606 OFFCURVE",
"191 595 CURVE SMOOTH"
);
},
{
closed = 1;
nodes = (
"509 9 OFFCURVE",
"505 0 OFFCURVE",
"483 0 CURVE SMOOTH",
"223 0 LINE SMOOTH",
"213 0 OFFCURVE",
"196 0 OFFCURVE",
"196 30 CURVE SMOOTH",
"196 61 OFFCURVE",
"212 61 OFFCURVE",
"223 61 CURVE SMOOTH",
"243 61 LINE",
"243 550 LINE",
"223 550 LINE SMOOTH",
"213 550 OFFCURVE",
"196 550 OFFCURVE",
"196 581 CURVE SMOOTH",
"196 611 OFFCURVE",
"213 611 OFFCURVE",
"223 611 CURVE SMOOTH",
"469 611 LINE SMOOTH",
"490 611 OFFCURVE",
"495 601 OFFCURVE",
"495 570 CURVE SMOOTH",
"495 497 LINE SMOOTH",
"495 477 OFFCURVE",
"495 456 OFFCURVE",
"471 456 CURVE SMOOTH",
"449 456 OFFCURVE",
"449 478 OFFCURVE",
"449 497 CURVE SMOOTH",
"449 550 LINE",
"288 550 LINE",
"288 347 LINE",
"374 347 LINE",
"374 388 OFFCURVE",
"374 404 OFFCURVE",
"397 404 CURVE SMOOTH",
"420 404 OFFCURVE",
"420 382 OFFCURVE",
"420 363 CURVE SMOOTH",
"420 270 LINE SMOOTH",
"420 251 OFFCURVE",
"420 229 OFFCURVE",
"397 229 CURVE SMOOTH",
"374 229 OFFCURVE",
"374 245 OFFCURVE",
"374 286 CURVE",
"288 286 LINE",
"288 61 LINE",
"463 61 LINE",
"463 130 LINE SMOOTH",
"463 150 OFFCURVE",
"463 171 OFFCURVE",
"487 171 CURVE SMOOTH",
"509 171 OFFCURVE",
"509 149 OFFCURVE",
"509 130 CURVE SMOOTH",
"509 41 LINE SMOOTH"
);
}
);
width = 525;
}
);
unicode = 1F1C;
}
{
glyphname = Epsilonpsilivaria;
layers = (
{
layerId = master01;
paths = (
{
closed = 1;
nodes = (
"16 608 OFFCURVE",
"28 619 OFFCURVE",
"44 619 CURVE SMOOTH",
"91 619 OFFCURVE",
"101 574 OFFCURVE",
"101 561 CURVE SMOOTH",
"101 514 OFFCURVE",
"53 502 OFFCURVE",
"38 502 CURVE SMOOTH",
"25 502 OFFCURVE",
"16 513 OFFCURVE",
"16 524 CURVE SMOOTH",
"16 552 OFFCURVE",
"61 537 OFFCURVE",
"61 561 CURVE SMOOTH",
"61 563 OFFCURVE",
"61 565 OFFCURVE",
"59 566 CURVE",
"53 563 OFFCURVE",
"53 562 OFFCURVE",
"44 562 CURVE SMOOTH",
"22 562 OFFCURVE",
"16 578 OFFCURVE",
"16 590 CURVE SMOOTH"
);
},
{
closed = 1;
nodes = (
"113 584 OFFCURVE",
"122 598 OFFCURVE",
"137 598 CURVE SMOOTH",
"143 598 OFFCURVE",
"151 596 OFFCURVE",
"155 592 CURVE",
"158 590 OFFCURVE",
"205 526 OFFCURVE",
"206 522 CURVE",
"213 504 OFFCURVE",
"191 486 OFFCURVE",
"175 497 CURVE",
"172 500 OFFCURVE",
"121 554 OFFCURVE",
"118 559 CURVE",
"115 562 OFFCURVE",
"113 568 OFFCURVE",
"113 573 CURVE SMOOTH"
);
},
{
closed = 1;
nodes = (
"509 9 OFFCURVE",
"505 0 OFFCURVE",
"483 0 CURVE SMOOTH",
"223 0 LINE SMOOTH",
"213 0 OFFCURVE",
"196 0 OFFCURVE",
"196 30 CURVE SMOOTH",
"196 61 OFFCURVE",
"212 61 OFFCURVE",
"223 61 CURVE SMOOTH",
"243 61 LINE",
"243 550 LINE",
"223 550 LINE SMOOTH",
"213 550 OFFCURVE",
"196 550 OFFCURVE",
"196 581 CURVE SMOOTH",
"196 611 OFFCURVE",
"213 611 OFFCURVE",
"223 611 CURVE SMOOTH",
"469 611 LINE SMOOTH",
"490 611 OFFCURVE",
"495 601 OFFCURVE",
"495 570 CURVE SMOOTH",
"495 497 LINE SMOOTH",
"495 477 OFFCURVE",
"495 456 OFFCURVE",
"471 456 CURVE SMOOTH",
"449 456 OFFCURVE",
"449 478 OFFCURVE",
"449 497 CURVE SMOOTH",
"449 550 LINE",
"288 550 LINE",
"288 347 LINE",
"374 347 LINE",
"374 388 OFFCURVE",
"374 404 OFFCURVE",
"397 404 CURVE SMOOTH",
"420 404 OFFCURVE",
"420 382 OFFCURVE",
"420 363 CURVE SMOOTH",
"420 270 LINE SMOOTH",
"420 251 OFFCURVE",
"420 229 OFFCURVE",
"397 229 CURVE SMOOTH",
"374 229 OFFCURVE",
"374 245 OFFCURVE",
"374 286 CURVE",
"288 286 LINE",
"288 61 LINE",
"463 61 LINE",
"463 130 LINE SMOOTH",
"463 150 OFFCURVE",
"463 171 OFFCURVE",
"487 171 CURVE SMOOTH",
"509 171 OFFCURVE",
"509 149 OFFCURVE",
"509 130 CURVE SMOOTH",
"509 41 LINE SMOOTH"
);
}
);
width = 525;
}
);
unicode = 1F1A;
}
{
glyphname = Epsilonvaria;
layers = (
{
layerId = master01;
paths = (
{
closed = 1;
nodes = (
"25 621 OFFCURVE",
"37 641 OFFCURVE",
"57 641 CURVE SMOOTH",
"65 641 OFFCURVE",
"75 638 OFFCURVE",
"81 632 CURVE",
"85 629 OFFCURVE",
"147 544 OFFCURVE",
"149 539 CURVE",
"157 515 OFFCURVE",
"129 491 OFFCURVE",
"107 506 CURVE",
"103 510 OFFCURVE",
"35 582 OFFCURVE",
"31 588 CURVE",
"27 593 OFFCURVE",
"25 600 OFFCURVE",
"25 607 CURVE SMOOTH"
);
},
{
closed = 1;
nodes = (
"508 9 OFFCURVE",
"503 0 OFFCURVE",
"479 0 CURVE SMOOTH",
"190 0 LINE SMOOTH",
"179 0 OFFCURVE",
"160 0 OFFCURVE",
"160 30 CURVE SMOOTH",
"160 61 OFFCURVE",
"178 61 OFFCURVE",
"190 61 CURVE SMOOTH",
"212 61 LINE",
"212 550 LINE",
"190 550 LINE SMOOTH",
"179 550 OFFCURVE",
"160 550 OFFCURVE",
"160 581 CURVE SMOOTH",
"160 611 OFFCURVE",
"179 611 OFFCURVE",
"190 611 CURVE SMOOTH",
"463 611 LINE SMOOTH",
"487 611 OFFCURVE",
"492 601 OFFCURVE",
"492 570 CURVE SMOOTH",
"492 497 LINE SMOOTH",
"492 477 OFFCURVE",
"492 456 OFFCURVE",
"466 456 CURVE SMOOTH",
"441 456 OFFCURVE",
"441 478 OFFCURVE",
"441 497 CURVE SMOOTH",
"441 550 LINE",
"262 550 LINE",
"262 347 LINE",
"358 347 LINE",
"358 388 OFFCURVE",
"358 404 OFFCURVE",
"384 404 CURVE SMOOTH",
"409 404 OFFCURVE",
"409 382 OFFCURVE",
"409 363 CURVE SMOOTH",
"409 270 LINE SMOOTH",
"409 251 OFFCURVE",
"409 229 OFFCURVE",
"384 229 CURVE SMOOTH",
"358 229 OFFCURVE",
"358 245 OFFCURVE",
"358 286 CURVE",
"262 286 LINE",
"262 61 LINE",
"457 61 LINE",
"457 130 LINE SMOOTH",
"457 150 OFFCURVE",
"457 171 OFFCURVE",
"483 171 CURVE SMOOTH",
"508 171 OFFCURVE",
"508 149 OFFCURVE",
"508 130 CURVE SMOOTH",
"508 41 LINE SMOOTH"
);
}
);
width = 525;
}
);
unicode = 1FC8;
}
{
glyphname = Etadasia;
layers = (
{
layerId = master01;
paths = (
{
closed = 1;
nodes = (
"116 578 OFFCURVE",
"110 563 OFFCURVE",
"88 563 CURVE SMOOTH",
"80 563 OFFCURVE",
"80 564 OFFCURVE",
"72 567 CURVE",
"72 562 LINE SMOOTH",
"72 538 OFFCURVE",
"116 553 OFFCURVE",
"116 524 CURVE SMOOTH",
"116 514 OFFCURVE",
"108 503 OFFCURVE",
"94 503 CURVE SMOOTH",
"80 503 OFFCURVE",
"30 515 OFFCURVE",
"30 562 CURVE SMOOTH",
"30 575 OFFCURVE",
"42 620 OFFCURVE",
"88 620 CURVE SMOOTH",
"104 620 OFFCURVE",
"116 608 OFFCURVE",
"116 591 CURVE SMOOTH"
);
},
{
closed = 1;
nodes = (
"496 0 OFFCURVE",
"478 0 OFFCURVE",
"468 0 CURVE SMOOTH",
"384 0 LINE SMOOTH",
"374 0 OFFCURVE",
"356 0 OFFCURVE",
"356 31 CURVE SMOOTH",
"356 61 OFFCURVE",
"374 61 OFFCURVE",
"384 61 CURVE SMOOTH",
"402 61 LINE",
"402 287 LINE",
"254 287 LINE",
"254 61 LINE",
"272 61 LINE SMOOTH",
"282 61 OFFCURVE",
"300 61 OFFCURVE",
"300 30 CURVE SMOOTH",
"300 0 OFFCURVE",
"282 0 OFFCURVE",
"272 0 CURVE SMOOTH",
"188 0 LINE SMOOTH",
"178 0 OFFCURVE",
"160 0 OFFCURVE",
"160 30 CURVE SMOOTH",
"160 61 OFFCURVE",
"176 61 OFFCURVE",
"188 61 CURVE SMOOTH",
"206 61 LINE",
"206 550 LINE",
"188 550 LINE SMOOTH",
"178 550 OFFCURVE",
"160 550 OFFCURVE",
"160 580 CURVE SMOOTH",
"160 611 OFFCURVE",
"176 611 OFFCURVE",
"188 611 CURVE SMOOTH",
"272 611 LINE SMOOTH",
"282 611 OFFCURVE",
"300 611 OFFCURVE",
"300 580 CURVE SMOOTH",
"300 550 OFFCURVE",
"282 550 OFFCURVE",
"272 550 CURVE SMOOTH",
"254 550 LINE",
"254 348 LINE",
"402 348 LINE",
"402 550 LINE",
"384 550 LINE SMOOTH",
"374 550 OFFCURVE",
"356 550 OFFCURVE",
"356 581 CURVE SMOOTH",
"356 611 OFFCURVE",
"374 611 OFFCURVE",
"384 611 CURVE SMOOTH",
"468 611 LINE SMOOTH",
"478 611 OFFCURVE",
"496 611 OFFCURVE",
"496 580 CURVE SMOOTH",
"496 550 OFFCURVE",
"478 550 OFFCURVE",
"468 550 CURVE SMOOTH",
"450 550 LINE",
"450 61 LINE",
"468 61 LINE SMOOTH",
"478 61 OFFCURVE",
"496 61 OFFCURVE",
"496 30 CURVE SMOOTH"
);
}
);
width = 525;
}
);
unicode = 1F29;
}
{
glyphname = Etadasiaoxia;
layers = (
{
layerId = master01;
paths = (
{
closed = 1;
nodes = (
"96 578 OFFCURVE",
"90 562 OFFCURVE",
"68 562 CURVE SMOOTH",
"59 562 OFFCURVE",
"59 563 OFFCURVE",
"53 566 CURVE",
"51 565 OFFCURVE",
"51 563 OFFCURVE",
"51 561 CURVE SMOOTH",
"51 537 OFFCURVE",
"96 552 OFFCURVE",
"96 524 CURVE SMOOTH",
"96 513 OFFCURVE",
"87 502 OFFCURVE",
"74 502 CURVE SMOOTH",
"59 502 OFFCURVE",
"11 514 OFFCURVE",
"11 561 CURVE SMOOTH",
"11 574 OFFCURVE",
"21 619 OFFCURVE",
"68 619 CURVE SMOOTH",
"84 619 OFFCURVE",
"96 608 OFFCURVE",
"96 590 CURVE SMOOTH"
);
},
{
closed = 1;
nodes = (
"201 590 OFFCURVE",
"199 584 OFFCURVE",
"196 581 CURVE",
"193 576 OFFCURVE",
"142 522 OFFCURVE",
"139 519 CURVE",
"123 508 OFFCURVE",
"101 526 OFFCURVE",
"108 544 CURVE",
"109 548 OFFCURVE",
"156 612 OFFCURVE",
"159 614 CURVE",
"163 618 OFFCURVE",
"171 620 OFFCURVE",
"177 620 CURVE SMOOTH",
"192 620 OFFCURVE",
"201 606 OFFCURVE",
"201 595 CURVE SMOOTH"
);
},
{
closed = 1;
nodes = (
"514 0 OFFCURVE",
"497 0 OFFCURVE",
"488 0 CURVE SMOOTH",
"413 0 LINE SMOOTH",
"404 0 OFFCURVE",
"388 0 OFFCURVE",
"388 31 CURVE SMOOTH",
"388 61 OFFCURVE",
"404 61 OFFCURVE",
"413 61 CURVE SMOOTH",
"429 61 LINE",
"429 287 LINE",
"296 287 LINE",
"296 61 LINE",
"312 61 LINE SMOOTH",
"321 61 OFFCURVE",
"337 61 OFFCURVE",
"337 30 CURVE SMOOTH",
"337 0 OFFCURVE",
"321 0 OFFCURVE",
"312 0 CURVE SMOOTH",
"236 0 LINE SMOOTH",
"227 0 OFFCURVE",
"211 0 OFFCURVE",
"211 30 CURVE SMOOTH",
"211 61 OFFCURVE",
"226 61 OFFCURVE",
"236 61 CURVE SMOOTH",
"253 61 LINE",
"253 550 LINE",
"236 550 LINE SMOOTH",
"227 550 OFFCURVE",
"210 550 OFFCURVE",
"210 580 CURVE SMOOTH",
"210 611 OFFCURVE",
"226 611 OFFCURVE",
"236 611 CURVE SMOOTH",
"312 611 LINE SMOOTH",
"321 611 OFFCURVE",
"337 611 OFFCURVE",
"337 580 CURVE SMOOTH",
"337 550 OFFCURVE",
"321 550 OFFCURVE",
"312 550 CURVE SMOOTH",
"296 550 LINE",
"296 348 LINE",
"429 348 LINE",
"429 550 LINE",
"413 550 LINE SMOOTH",
"404 550 OFFCURVE",
"388 550 OFFCURVE",
"388 581 CURVE SMOOTH",
"388 611 OFFCURVE",
"404 611 OFFCURVE",
"413 611 CURVE SMOOTH",
"488 611 LINE SMOOTH",
"497 611 OFFCURVE",
"514 611 OFFCURVE",
"514 580 CURVE SMOOTH",
"514 550 OFFCURVE",
"497 550 OFFCURVE",
"488 550 CURVE SMOOTH",
"472 550 LINE",
"472 61 LINE",
"488 61 LINE SMOOTH",
"497 61 OFFCURVE",
"514 61 OFFCURVE",
"514 30 CURVE SMOOTH"
);
}
);
width = 525;
}
);
unicode = 1F2D;
}
{
glyphname = Etadasiaoxiaprosgegrammeni;
layers = (
{
components = (
{
name = prosgegrammeni;
transform = "{1, 0, 0, 1, 201, 0}";
}
);
layerId = master01;
paths = (
{
closed = 1;
nodes = (
"72 578 OFFCURVE",
"67 562 OFFCURVE",
"49 562 CURVE SMOOTH",
"42 562 OFFCURVE",
"42 563 OFFCURVE",
"37 566 CURVE",
"36 565 OFFCURVE",
"36 563 OFFCURVE",
"36 561 CURVE SMOOTH",
"36 537 OFFCURVE",
"72 552 OFFCURVE",
"72 524 CURVE SMOOTH",
"72 513 OFFCURVE",
"64 502 OFFCURVE",
"54 502 CURVE SMOOTH",
"42 502 OFFCURVE",
"4 514 OFFCURVE",
"4 561 CURVE SMOOTH",
"4 574 OFFCURVE",
"12 619 OFFCURVE",
"49 619 CURVE SMOOTH",
"62 619 OFFCURVE",
"72 608 OFFCURVE",
"72 590 CURVE SMOOTH"
);
},
{
closed = 1;
nodes = (
"156 590 OFFCURVE",
"154 584 OFFCURVE",
"152 581 CURVE SMOOTH",
"149 576 OFFCURVE",
"108 522 OFFCURVE",
"106 519 CURVE",
"93 508 OFFCURVE",
"76 526 OFFCURVE",
"81 544 CURVE SMOOTH",
"82 548 OFFCURVE",
"120 612 OFFCURVE",
"122 614 CURVE",
"125 618 OFFCURVE",
"132 620 OFFCURVE",
"136 620 CURVE SMOOTH",
"148 620 OFFCURVE",
"156 606 OFFCURVE",
"156 595 CURVE SMOOTH"
);
},
{
closed = 1;
nodes = (
"406 0 OFFCURVE",
"392 0 OFFCURVE",
"385 0 CURVE SMOOTH",
"325 0 LINE SMOOTH",
"318 0 OFFCURVE",
"305 0 OFFCURVE",
"305 31 CURVE SMOOTH",
"305 61 OFFCURVE",
"318 61 OFFCURVE",
"325 61 CURVE SMOOTH",
"338 61 LINE",
"338 287 LINE",
"232 287 LINE",
"232 61 LINE",
"244 61 LINE SMOOTH",
"252 61 OFFCURVE",
"264 61 OFFCURVE",
"264 30 CURVE SMOOTH",
"264 0 OFFCURVE",
"252 0 OFFCURVE",
"244 0 CURVE SMOOTH",
"184 0 LINE SMOOTH",
"176 0 OFFCURVE",
"164 0 OFFCURVE",
"164 30 CURVE SMOOTH",
"164 61 OFFCURVE",
"176 61 OFFCURVE",
"184 61 CURVE SMOOTH",
"197 61 LINE",
"197 550 LINE",
"184 550 LINE SMOOTH",
"176 550 OFFCURVE",
"163 550 OFFCURVE",
"163 580 CURVE SMOOTH",
"163 611 OFFCURVE",
"176 611 OFFCURVE",
"184 611 CURVE SMOOTH",
"244 611 LINE SMOOTH",
"252 611 OFFCURVE",
"264 611 OFFCURVE",
"264 580 CURVE SMOOTH",
"264 550 OFFCURVE",
"252 550 OFFCURVE",
"244 550 CURVE SMOOTH",
"232 550 LINE",
"232 348 LINE",
"338 348 LINE",
"338 550 LINE",
"325 550 LINE SMOOTH",
"318 550 OFFCURVE",
"305 550 OFFCURVE",
"305 581 CURVE SMOOTH",
"305 611 OFFCURVE",
"318 611 OFFCURVE",
"325 611 CURVE SMOOTH",
"385 611 LINE SMOOTH",
"392 611 OFFCURVE",
"406 611 OFFCURVE",
"406 580 CURVE SMOOTH",
"406 550 OFFCURVE",
"392 550 OFFCURVE",
"385 550 CURVE SMOOTH",
"372 550 LINE",
"372 61 LINE",
"385 61 LINE SMOOTH",
"392 61 OFFCURVE",
"406 61 OFFCURVE",
"406 30 CURVE SMOOTH"
);
}
);
width = 525;
}
);
unicode = 1F9D;
}
{
glyphname = Etadasiaperispomeni;
layers = (
{
layerId = master01;
paths = (
{
closed = 1;
nodes = (
"145 590 OFFCURVE",
"136 599 OFFCURVE",
"124 599 CURVE SMOOTH",
"89 599 OFFCURVE",
"80 566 OFFCURVE",
"80 556 CURVE SMOOTH",
"80 521 OFFCURVE",
"118 512 OFFCURVE",
"128 512 CURVE SMOOTH",
"139 512 OFFCURVE",
"145 520 OFFCURVE",
"145 527 CURVE SMOOTH",
"145 549 OFFCURVE",
"112 538 OFFCURVE",
"112 556 CURVE SMOOTH",
"112 560 LINE",
"118 557 OFFCURVE",
"118 557 OFFCURVE",
"124 557 CURVE SMOOTH",
"140 557 OFFCURVE",
"145 568 OFFCURVE",
"145 578 CURVE SMOOTH"
);
},
{
closed = 1;
nodes = (
"216 671 OFFCURVE",
"215 657 OFFCURVE",
"215 653 CURVE",
"213 618 OFFCURVE",
"171 613 OFFCURVE",
"158 613 CURVE SMOOTH",
"126 613 OFFCURVE",
"95 636 OFFCURVE",
"76 636 CURVE SMOOTH",
"68 636 OFFCURVE",
"54 635 OFFCURVE",
"54 627 CURVE",
"53 608 OFFCURVE",
"18 607 OFFCURVE",
"18 630 CURVE SMOOTH",
"18 653 OFFCURVE",
"43 671 OFFCURVE",
"78 671 CURVE SMOOTH",
"115 670 OFFCURVE",
"129 648 OFFCURVE",
"158 648 CURVE SMOOTH",
"170 648 OFFCURVE",
"179 652 OFFCURVE",
"179 656 CURVE SMOOTH",
"179 659 OFFCURVE",
"181 671 OFFCURVE",
"196 671 CURVE SMOOTH"
);
},
{
closed = 1;
nodes = (
"507 0 OFFCURVE",
"490 0 OFFCURVE",
"481 0 CURVE SMOOTH",
"406 0 LINE SMOOTH",
"397 0 OFFCURVE",
"381 0 OFFCURVE",
"381 31 CURVE SMOOTH",
"381 61 OFFCURVE",
"397 61 OFFCURVE",
"406 61 CURVE SMOOTH",
"422 61 LINE",
"422 287 LINE",
"289 287 LINE",
"289 61 LINE",
"305 61 LINE SMOOTH",
"314 61 OFFCURVE",
"330 61 OFFCURVE",
"330 30 CURVE SMOOTH",
"330 0 OFFCURVE",
"314 0 OFFCURVE",
"305 0 CURVE SMOOTH",
"229 0 LINE SMOOTH",
"220 0 OFFCURVE",
"204 0 OFFCURVE",
"204 30 CURVE SMOOTH",
"204 61 OFFCURVE",
"219 61 OFFCURVE",
"229 61 CURVE SMOOTH",
"246 61 LINE",
"246 550 LINE",
"229 550 LINE SMOOTH",
"220 550 OFFCURVE",
"203 550 OFFCURVE",
"203 580 CURVE SMOOTH",
"203 611 OFFCURVE",
"219 611 OFFCURVE",
"229 611 CURVE SMOOTH",
"305 611 LINE SMOOTH",
"314 611 OFFCURVE",
"330 611 OFFCURVE",
"330 580 CURVE SMOOTH",
"330 550 OFFCURVE",
"314 550 OFFCURVE",
"305 550 CURVE SMOOTH",
"289 550 LINE",
"289 348 LINE",
"422 348 LINE",
"422 550 LINE",
"406 550 LINE SMOOTH",
"397 550 OFFCURVE",
"381 550 OFFCURVE",
"381 581 CURVE SMOOTH",
"381 611 OFFCURVE",
"397 611 OFFCURVE",
"406 611 CURVE SMOOTH",
"481 611 LINE SMOOTH",
"490 611 OFFCURVE",
"507 611 OFFCURVE",
"507 580 CURVE SMOOTH",
"507 550 OFFCURVE",
"490 550 OFFCURVE",
"481 550 CURVE SMOOTH",
"465 550 LINE",
"465 61 LINE",
"481 61 LINE SMOOTH",
"490 61 OFFCURVE",
"507 61 OFFCURVE",
"507 30 CURVE SMOOTH"
);
}
);
width = 525;
}
);
unicode = 1F2F;
}
{
glyphname = Etadasiaperispomeniprosgegrammeni;
layers = (
{
components = (
{
name = prosgegrammeni;
transform = "{1, 0, 0, 1, 193, 0}";
}
);
layerId = master01;
paths = (
{
closed = 1;
nodes = (
"114 590 OFFCURVE",
"106 599 OFFCURVE",
"97 599 CURVE SMOOTH",
"69 599 OFFCURVE",
"62 566 OFFCURVE",
"62 556 CURVE SMOOTH",
"62 521 OFFCURVE",
"92 512 OFFCURVE",
"100 512 CURVE SMOOTH",
"109 512 OFFCURVE",
"114 520 OFFCURVE",
"114 527 CURVE SMOOTH",
"114 549 OFFCURVE",
"87 538 OFFCURVE",
"87 556 CURVE SMOOTH",
"87 560 LINE",
"92 557 OFFCURVE",
"92 557 OFFCURVE",
"97 557 CURVE SMOOTH",
"110 557 OFFCURVE",
"114 568 OFFCURVE",
"114 578 CURVE SMOOTH"
);
},
{
closed = 1;
nodes = (
"170 671 OFFCURVE",
"170 657 OFFCURVE",
"170 653 CURVE",
"168 618 OFFCURVE",
"134 613 OFFCURVE",
"124 613 CURVE SMOOTH",
"98 613 OFFCURVE",
"74 636 OFFCURVE",
"58 636 CURVE SMOOTH",
"52 636 OFFCURVE",
"41 635 OFFCURVE",
"41 627 CURVE",
"40 608 OFFCURVE",
"12 607 OFFCURVE",
"12 630 CURVE SMOOTH",
"12 653 OFFCURVE",
"32 671 OFFCURVE",
"60 671 CURVE SMOOTH",
"90 670 OFFCURVE",
"101 648 OFFCURVE",
"124 648 CURVE SMOOTH",
"134 648 OFFCURVE",
"141 652 OFFCURVE",
"141 656 CURVE SMOOTH",
"141 659 OFFCURVE",
"142 671 OFFCURVE",
"154 671 CURVE SMOOTH"
);
},
{
closed = 1;
nodes = (
"403 0 OFFCURVE",
"390 0 OFFCURVE",
"382 0 CURVE SMOOTH",
"322 0 LINE SMOOTH",
"315 0 OFFCURVE",
"302 0 OFFCURVE",
"302 31 CURVE SMOOTH",
"302 61 OFFCURVE",
"315 61 OFFCURVE",
"322 61 CURVE SMOOTH",
"335 61 LINE",
"335 287 LINE",
"229 287 LINE",
"229 61 LINE",
"242 61 LINE SMOOTH",
"249 61 OFFCURVE",
"262 61 OFFCURVE",
"262 30 CURVE SMOOTH",
"262 0 OFFCURVE",
"249 0 OFFCURVE",
"242 0 CURVE SMOOTH",
"181 0 LINE SMOOTH",
"174 0 OFFCURVE",
"161 0 OFFCURVE",
"161 30 CURVE SMOOTH",
"161 61 OFFCURVE",
"173 61 OFFCURVE",
"181 61 CURVE SMOOTH",
"194 61 LINE",
"194 550 LINE",
"181 550 LINE SMOOTH",
"174 550 OFFCURVE",
"160 550 OFFCURVE",
"160 580 CURVE SMOOTH",
"160 611 OFFCURVE",
"173 611 OFFCURVE",
"181 611 CURVE SMOOTH",
"242 611 LINE SMOOTH",
"249 611 OFFCURVE",
"262 611 OFFCURVE",
"262 580 CURVE SMOOTH",
"262 550 OFFCURVE",
"249 550 OFFCURVE",
"242 550 CURVE SMOOTH",
"229 550 LINE",
"229 348 LINE",
"335 348 LINE",
"335 550 LINE",
"322 550 LINE SMOOTH",
"315 550 OFFCURVE",
"302 550 OFFCURVE",
"302 581 CURVE SMOOTH",
"302 611 OFFCURVE",
"315 611 OFFCURVE",
"322 611 CURVE SMOOTH",
"382 611 LINE SMOOTH",
"390 611 OFFCURVE",
"403 611 OFFCURVE",
"403 580 CURVE SMOOTH",
"403 550 OFFCURVE",
"390 550 OFFCURVE",
"382 550 CURVE SMOOTH",
"370 550 LINE",
"370 61 LINE",
"382 61 LINE SMOOTH",
"390 61 OFFCURVE",
"403 61 OFFCURVE",
"403 30 CURVE SMOOTH"
);
}
);
width = 525;
}
);
unicode = 1F9F;
}
{
glyphname = Etadasiaprosgegrammeni;
layers = (
{
components = (
{
name = prosgegrammeni;
transform = "{1, 0, 0, 1, 193, 0}";
}
);
layerId = master01;
paths = (
{
closed = 1;
nodes = (
"81 578 OFFCURVE",
"76 563 OFFCURVE",
"58 563 CURVE SMOOTH",
"52 563 OFFCURVE",
"52 564 OFFCURVE",
"45 567 CURVE",
"45 562 LINE SMOOTH",
"45 538 OFFCURVE",
"81 553 OFFCURVE",
"81 524 CURVE SMOOTH",
"81 514 OFFCURVE",
"74 503 OFFCURVE",
"63 503 CURVE SMOOTH",
"52 503 OFFCURVE",
"12 515 OFFCURVE",
"12 562 CURVE SMOOTH",
"12 575 OFFCURVE",
"21 620 OFFCURVE",
"58 620 CURVE SMOOTH",
"71 620 OFFCURVE",
"81 608 OFFCURVE",
"81 591 CURVE SMOOTH"
);
},
{
closed = 1;
nodes = (
"385 0 OFFCURVE",
"370 0 OFFCURVE",
"362 0 CURVE SMOOTH",
"295 0 LINE SMOOTH",
"287 0 OFFCURVE",
"273 0 OFFCURVE",
"273 31 CURVE SMOOTH",
"273 61 OFFCURVE",
"287 61 OFFCURVE",
"295 61 CURVE SMOOTH",
"309 61 LINE",
"309 287 LINE",
"191 287 LINE",
"191 61 LINE",
"205 61 LINE SMOOTH",
"213 61 OFFCURVE",
"228 61 OFFCURVE",
"228 30 CURVE SMOOTH",
"228 0 OFFCURVE",
"213 0 OFFCURVE",
"205 0 CURVE SMOOTH",
"138 0 LINE SMOOTH",
"130 0 OFFCURVE",
"116 0 OFFCURVE",
"116 30 CURVE SMOOTH",
"116 61 OFFCURVE",
"129 61 OFFCURVE",
"138 61 CURVE SMOOTH",
"153 61 LINE",
"153 550 LINE",
"138 550 LINE SMOOTH",
"130 550 OFFCURVE",
"116 550 OFFCURVE",
"116 580 CURVE SMOOTH",
"116 611 OFFCURVE",
"129 611 OFFCURVE",
"138 611 CURVE SMOOTH",
"205 611 LINE SMOOTH",
"213 611 OFFCURVE",
"228 611 OFFCURVE",
"228 580 CURVE SMOOTH",
"228 550 OFFCURVE",
"213 550 OFFCURVE",
"205 550 CURVE SMOOTH",
"191 550 LINE",
"191 348 LINE",
"309 348 LINE",
"309 550 LINE",
"295 550 LINE SMOOTH",
"287 550 OFFCURVE",
"273 550 OFFCURVE",
"273 581 CURVE SMOOTH",
"273 611 OFFCURVE",
"287 611 OFFCURVE",
"295 611 CURVE SMOOTH",
"362 611 LINE SMOOTH",
"370 611 OFFCURVE",
"385 611 OFFCURVE",
"385 580 CURVE SMOOTH",
"385 550 OFFCURVE",
"370 550 OFFCURVE",
"362 550 CURVE SMOOTH",
"348 550 LINE",
"348 61 LINE",
"362 61 LINE SMOOTH",
"370 61 OFFCURVE",
"385 61 OFFCURVE",
"385 30 CURVE SMOOTH"
);
}
);
width = 525;
}
);
unicode = 1F99;
}
{
glyphname = Etadasiavaria;
layers = (
{
layerId = master01;
paths = (
{
closed = 1;
nodes = (
"110 578 OFFCURVE",
"104 562 OFFCURVE",
"82 562 CURVE SMOOTH",
"73 562 OFFCURVE",
"73 563 OFFCURVE",
"67 566 CURVE",
"65 565 OFFCURVE",
"65 563 OFFCURVE",
"65 561 CURVE SMOOTH",
"65 537 OFFCURVE",
"110 552 OFFCURVE",
"110 524 CURVE SMOOTH",
"110 513 OFFCURVE",
"101 502 OFFCURVE",
"88 502 CURVE SMOOTH",
"73 502 OFFCURVE",
"25 514 OFFCURVE",
"25 561 CURVE SMOOTH",
"25 574 OFFCURVE",
"35 619 OFFCURVE",
"82 619 CURVE SMOOTH",
"98 619 OFFCURVE",
"110 608 OFFCURVE",
"110 590 CURVE SMOOTH"
);
},
{
closed = 1;
nodes = (
"122 584 OFFCURVE",
"131 598 OFFCURVE",
"146 598 CURVE SMOOTH",
"152 598 OFFCURVE",
"160 596 OFFCURVE",
"164 592 CURVE",
"167 590 OFFCURVE",
"214 526 OFFCURVE",
"215 522 CURVE",
"222 504 OFFCURVE",
"200 486 OFFCURVE",
"184 497 CURVE",
"181 500 OFFCURVE",
"130 554 OFFCURVE",
"127 559 CURVE",
"124 562 OFFCURVE",
"122 568 OFFCURVE",
"122 573 CURVE SMOOTH"
);
},
{
closed = 1;
nodes = (
"500 0 OFFCURVE",
"484 0 OFFCURVE",
"475 0 CURVE SMOOTH",
"399 0 LINE SMOOTH",
"390 0 OFFCURVE",
"374 0 OFFCURVE",
"374 31 CURVE SMOOTH",
"374 61 OFFCURVE",
"390 61 OFFCURVE",
"399 61 CURVE SMOOTH",
"416 61 LINE",
"416 287 LINE",
"282 287 LINE",
"282 61 LINE",
"299 61 LINE SMOOTH",
"308 61 OFFCURVE",
"324 61 OFFCURVE",
"324 30 CURVE SMOOTH",
"324 0 OFFCURVE",
"308 0 OFFCURVE",
"299 0 CURVE SMOOTH",
"223 0 LINE SMOOTH",
"214 0 OFFCURVE",
"198 0 OFFCURVE",
"198 30 CURVE SMOOTH",
"198 61 OFFCURVE",
"212 61 OFFCURVE",
"223 61 CURVE SMOOTH",
"239 61 LINE",
"239 550 LINE",
"223 550 LINE SMOOTH",
"214 550 OFFCURVE",
"197 550 OFFCURVE",
"197 580 CURVE SMOOTH",
"197 611 OFFCURVE",
"212 611 OFFCURVE",
"223 611 CURVE SMOOTH",
"299 611 LINE SMOOTH",
"308 611 OFFCURVE",
"324 611 OFFCURVE",
"324 580 CURVE SMOOTH",
"324 550 OFFCURVE",
"308 550 OFFCURVE",
"299 550 CURVE SMOOTH",
"282 550 LINE",
"282 348 LINE",
"416 348 LINE",
"416 550 LINE",
"399 550 LINE SMOOTH",
"390 550 OFFCURVE",
"374 550 OFFCURVE",
"374 581 CURVE SMOOTH",
"374 611 OFFCURVE",
"390 611 OFFCURVE",
"399 611 CURVE SMOOTH",
"475 611 LINE SMOOTH",
"484 611 OFFCURVE",
"500 611 OFFCURVE",
"500 580 CURVE SMOOTH",
"500 550 OFFCURVE",
"484 550 OFFCURVE",
"475 550 CURVE SMOOTH",
"459 550 LINE",
"459 61 LINE",
"475 61 LINE SMOOTH",
"484 61 OFFCURVE",
"500 61 OFFCURVE",
"500 30 CURVE SMOOTH"
);
}
);
width = 525;
}
);
unicode = 1F2B;
}
{
glyphname = Etadasiavariaprosgegrammeni;
layers = (
{
components = (
{
name = prosgegrammeni;
transform = "{1, 0, 0, 1, 194, 0}";
}
);
layerId = master01;
paths = (
{
closed = 1;
nodes = (
"79 578 OFFCURVE",
"74 562 OFFCURVE",
"56 562 CURVE SMOOTH",
"49 562 OFFCURVE",
"49 563 OFFCURVE",
"44 566 CURVE",
"43 565 OFFCURVE",
"43 563 OFFCURVE",
"43 561 CURVE SMOOTH",
"43 537 OFFCURVE",
"79 552 OFFCURVE",
"79 524 CURVE SMOOTH",
"79 513 OFFCURVE",
"72 502 OFFCURVE",
"61 502 CURVE SMOOTH",
"49 502 OFFCURVE",
"11 514 OFFCURVE",
"11 561 CURVE SMOOTH",
"11 574 OFFCURVE",
"19 619 OFFCURVE",
"56 619 CURVE SMOOTH",
"69 619 OFFCURVE",
"79 608 OFFCURVE",
"79 590 CURVE SMOOTH"
);
},
{
closed = 1;
nodes = (
"88 584 OFFCURVE",
"96 598 OFFCURVE",
"108 598 CURVE SMOOTH",
"112 598 OFFCURVE",
"119 596 OFFCURVE",
"122 592 CURVE",
"124 590 OFFCURVE",
"162 526 OFFCURVE",
"163 522 CURVE SMOOTH",
"168 504 OFFCURVE",
"151 486 OFFCURVE",
"138 497 CURVE",
"136 500 OFFCURVE",
"95 554 OFFCURVE",
"92 559 CURVE SMOOTH",
"90 562 OFFCURVE",
"88 568 OFFCURVE",
"88 573 CURVE SMOOTH"
);
},
{
closed = 1;
nodes = (
"391 0 OFFCURVE",
"378 0 OFFCURVE",
"371 0 CURVE SMOOTH",
"310 0 LINE SMOOTH",
"303 0 OFFCURVE",
"290 0 OFFCURVE",
"290 31 CURVE SMOOTH",
"290 61 OFFCURVE",
"303 61 OFFCURVE",
"310 61 CURVE SMOOTH",
"324 61 LINE",
"324 287 LINE",
"216 287 LINE",
"216 61 LINE",
"230 61 LINE SMOOTH",
"237 61 OFFCURVE",
"250 61 OFFCURVE",
"250 30 CURVE SMOOTH",
"250 0 OFFCURVE",
"237 0 OFFCURVE",
"230 0 CURVE SMOOTH",
"169 0 LINE SMOOTH",
"162 0 OFFCURVE",
"149 0 OFFCURVE",
"149 30 CURVE SMOOTH",
"149 61 OFFCURVE",
"160 61 OFFCURVE",
"169 61 CURVE SMOOTH",
"182 61 LINE",
"182 550 LINE",
"169 550 LINE SMOOTH",
"162 550 OFFCURVE",
"148 550 OFFCURVE",
"148 580 CURVE SMOOTH",
"148 611 OFFCURVE",
"160 611 OFFCURVE",
"169 611 CURVE SMOOTH",
"230 611 LINE SMOOTH",
"237 611 OFFCURVE",
"250 611 OFFCURVE",
"250 580 CURVE SMOOTH",
"250 550 OFFCURVE",
"237 550 OFFCURVE",
"230 550 CURVE SMOOTH",
"216 550 LINE",
"216 348 LINE",
"324 348 LINE",
"324 550 LINE",
"310 550 LINE SMOOTH",
"303 550 OFFCURVE",
"290 550 OFFCURVE",
"290 581 CURVE SMOOTH",
"290 611 OFFCURVE",
"303 611 OFFCURVE",
"310 611 CURVE SMOOTH",
"371 611 LINE SMOOTH",
"378 611 OFFCURVE",
"391 611 OFFCURVE",
"391 580 CURVE SMOOTH",
"391 550 OFFCURVE",
"378 550 OFFCURVE",
"371 550 CURVE SMOOTH",
"358 550 LINE",
"358 61 LINE",
"371 61 LINE SMOOTH",
"378 61 OFFCURVE",
"391 61 OFFCURVE",
"391 30 CURVE SMOOTH"
);
}
);
width = 525;
}
);
unicode = 1F9B;
}
{
glyphname = Etaprosgegrammeni;
layers = (
{
components = (
{
name = prosgegrammeni;
transform = "{1, 0, 0, 1, 172, 0}";
}
);
layerId = master01;
paths = (
{
closed = 1;
nodes = (
"369 0 OFFCURVE",
"352 0 OFFCURVE",
"341 0 CURVE SMOOTH",
"258 0 LINE SMOOTH",
"247 0 OFFCURVE",
"230 0 OFFCURVE",
"230 31 CURVE SMOOTH",
"230 61 OFFCURVE",
"247 61 OFFCURVE",
"258 61 CURVE SMOOTH",
"275 61 LINE",
"275 287 LINE",
"127 287 LINE",
"127 61 LINE",
"145 61 LINE SMOOTH",
"156 61 OFFCURVE",
"173 61 OFFCURVE",
"173 30 CURVE SMOOTH",
"173 0 OFFCURVE",
"155 0 OFFCURVE",
"145 0 CURVE SMOOTH",
"61 0 LINE SMOOTH",
"51 0 OFFCURVE",
"33 0 OFFCURVE",
"33 30 CURVE SMOOTH",
"33 61 OFFCURVE",
"50 61 OFFCURVE",
"61 61 CURVE SMOOTH",
"79 61 LINE",
"79 550 LINE",
"61 550 LINE SMOOTH",
"51 550 OFFCURVE",
"33 550 OFFCURVE",
"33 580 CURVE SMOOTH",
"33 611 OFFCURVE",
"50 611 OFFCURVE",
"61 611 CURVE SMOOTH",
"145 611 LINE SMOOTH",
"156 611 OFFCURVE",
"173 611 OFFCURVE",
"173 580 CURVE SMOOTH",
"173 550 OFFCURVE",
"155 550 OFFCURVE",
"145 550 CURVE SMOOTH",
"127 550 LINE",
"127 348 LINE",
"275 348 LINE",
"275 550 LINE",
"258 550 LINE SMOOTH",
"247 550 OFFCURVE",
"230 550 OFFCURVE",
"230 581 CURVE SMOOTH",
"230 611 OFFCURVE",
"247 611 OFFCURVE",
"258 611 CURVE SMOOTH",
"341 611 LINE SMOOTH",
"352 611 OFFCURVE",
"369 611 OFFCURVE",
"369 580 CURVE SMOOTH",
"369 550 OFFCURVE",
"352 550 OFFCURVE",
"341 550 CURVE SMOOTH",
"324 550 LINE",
"324 61 LINE",
"341 61 LINE SMOOTH",
"352 61 OFFCURVE",
"369 61 OFFCURVE",
"369 30 CURVE SMOOTH"
);
}
);
width = 525;
}
);
unicode = 1FCC;
}
{
glyphname = Etapsili;
layers = (
{
layerId = master01;
paths = (
{
closed = 1;
nodes = (
"30 608 OFFCURVE",
"42 620 OFFCURVE",
"58 620 CURVE SMOOTH",
"104 620 OFFCURVE",
"116 575 OFFCURVE",
"116 562 CURVE SMOOTH",
"116 515 OFFCURVE",
"66 503 OFFCURVE",
"52 503 CURVE SMOOTH",
"38 503 OFFCURVE",
"30 514 OFFCURVE",
"30 524 CURVE SMOOTH",
"30 553 OFFCURVE",
"74 538 OFFCURVE",
"74 562 CURVE SMOOTH",
"74 567 LINE",
"66 564 OFFCURVE",
"66 563 OFFCURVE",
"58 563 CURVE SMOOTH",
"36 563 OFFCURVE",
"30 578 OFFCURVE",
"30 591 CURVE SMOOTH"
);
},
{
closed = 1;
nodes = (
"496 0 OFFCURVE",
"478 0 OFFCURVE",
"468 0 CURVE SMOOTH",
"384 0 LINE SMOOTH",
"374 0 OFFCURVE",
"356 0 OFFCURVE",
"356 31 CURVE SMOOTH",
"356 61 OFFCURVE",
"374 61 OFFCURVE",
"384 61 CURVE SMOOTH",
"402 61 LINE",
"402 287 LINE",
"254 287 LINE",
"254 61 LINE",
"272 61 LINE SMOOTH",
"282 61 OFFCURVE",
"300 61 OFFCURVE",
"300 30 CURVE SMOOTH",
"300 0 OFFCURVE",
"282 0 OFFCURVE",
"272 0 CURVE SMOOTH",
"188 0 LINE SMOOTH",
"178 0 OFFCURVE",
"160 0 OFFCURVE",
"160 30 CURVE SMOOTH",
"160 61 OFFCURVE",
"176 61 OFFCURVE",
"188 61 CURVE SMOOTH",
"206 61 LINE",
"206 550 LINE",
"188 550 LINE SMOOTH",
"178 550 OFFCURVE",
"160 550 OFFCURVE",
"160 580 CURVE SMOOTH",
"160 611 OFFCURVE",
"176 611 OFFCURVE",
"188 611 CURVE SMOOTH",
"272 611 LINE SMOOTH",
"282 611 OFFCURVE",
"300 611 OFFCURVE",
"300 580 CURVE SMOOTH",
"300 550 OFFCURVE",
"282 550 OFFCURVE",
"272 550 CURVE SMOOTH",
"254 550 LINE",
"254 348 LINE",
"402 348 LINE",
"402 550 LINE",
"384 550 LINE SMOOTH",
"374 550 OFFCURVE",
"356 550 OFFCURVE",
"356 581 CURVE SMOOTH",
"356 611 OFFCURVE",
"374 611 OFFCURVE",
"384 611 CURVE SMOOTH",
"468 611 LINE SMOOTH",
"478 611 OFFCURVE",
"496 611 OFFCURVE",
"496 580 CURVE SMOOTH",
"496 550 OFFCURVE",
"478 550 OFFCURVE",
"468 550 CURVE SMOOTH",
"450 550 LINE",
"450 61 LINE",
"468 61 LINE SMOOTH",
"478 61 OFFCURVE",
"496 61 OFFCURVE",
"496 30 CURVE SMOOTH"
);
}
);
width = 525;
}
);
unicode = 1F28;
}
{
glyphname = Etapsilioxia;
layers = (
{
layerId = master01;
paths = (
{
closed = 1;
nodes = (
"12 608 OFFCURVE",
"24 619 OFFCURVE",
"40 619 CURVE SMOOTH",
"87 619 OFFCURVE",
"97 574 OFFCURVE",
"97 561 CURVE SMOOTH",
"97 514 OFFCURVE",
"49 502 OFFCURVE",
"34 502 CURVE SMOOTH",
"21 502 OFFCURVE",
"12 513 OFFCURVE",
"12 524 CURVE SMOOTH",
"12 552 OFFCURVE",
"57 537 OFFCURVE",
"57 561 CURVE SMOOTH",
"57 563 OFFCURVE",
"57 565 OFFCURVE",
"55 566 CURVE",
"49 563 OFFCURVE",
"49 562 OFFCURVE",
"40 562 CURVE SMOOTH",
"18 562 OFFCURVE",
"12 578 OFFCURVE",
"12 590 CURVE SMOOTH"
);
},
{
closed = 1;
nodes = (
"202 597 OFFCURVE",
"193 611 OFFCURVE",
"178 611 CURVE SMOOTH",
"172 611 OFFCURVE",
"164 609 OFFCURVE",
"160 605 CURVE",
"157 603 OFFCURVE",
"110 539 OFFCURVE",
"109 535 CURVE",
"102 517 OFFCURVE",
"124 499 OFFCURVE",
"140 510 CURVE",
"143 513 OFFCURVE",
"194 567 OFFCURVE",
"197 572 CURVE",
"200 575 OFFCURVE",
"202 581 OFFCURVE",
"202 586 CURVE SMOOTH"
);
},
{
closed = 1;
nodes = (
"513 0 OFFCURVE",
"497 0 OFFCURVE",
"488 0 CURVE SMOOTH",
"412 0 LINE SMOOTH",
"403 0 OFFCURVE",
"387 0 OFFCURVE",
"387 31 CURVE SMOOTH",
"387 61 OFFCURVE",
"403 61 OFFCURVE",
"412 61 CURVE SMOOTH",
"428 61 LINE",
"428 287 LINE",
"295 287 LINE",
"295 61 LINE",
"312 61 LINE SMOOTH",
"320 61 OFFCURVE",
"337 61 OFFCURVE",
"337 30 CURVE SMOOTH",
"337 0 OFFCURVE",
"320 0 OFFCURVE",
"312 0 CURVE SMOOTH",
"236 0 LINE SMOOTH",
"227 0 OFFCURVE",
"211 0 OFFCURVE",
"211 30 CURVE SMOOTH",
"211 61 OFFCURVE",
"225 61 OFFCURVE",
"236 61 CURVE SMOOTH",
"252 61 LINE",
"252 550 LINE",
"236 550 LINE SMOOTH",
"227 550 OFFCURVE",
"210 550 OFFCURVE",
"210 580 CURVE SMOOTH",
"210 611 OFFCURVE",
"225 611 OFFCURVE",
"236 611 CURVE SMOOTH",
"312 611 LINE SMOOTH",
"320 611 OFFCURVE",
"337 611 OFFCURVE",
"337 580 CURVE SMOOTH",
"337 550 OFFCURVE",
"320 550 OFFCURVE",
"312 550 CURVE SMOOTH",
"295 550 LINE",
"295 348 LINE",
"428 348 LINE",
"428 550 LINE",
"412 550 LINE SMOOTH",
"403 550 OFFCURVE",
"387 550 OFFCURVE",
"387 581 CURVE SMOOTH",
"387 611 OFFCURVE",
"403 611 OFFCURVE",
"412 611 CURVE SMOOTH",
"488 611 LINE SMOOTH",
"497 611 OFFCURVE",
"513 611 OFFCURVE",
"513 580 CURVE SMOOTH",
"513 550 OFFCURVE",
"497 550 OFFCURVE",
"488 550 CURVE SMOOTH",
"472 550 LINE",
"472 61 LINE",
"488 61 LINE SMOOTH",
"497 61 OFFCURVE",
"513 61 OFFCURVE",
"513 30 CURVE SMOOTH"
);
}
);
width = 525;
}
);
unicode = 1F2C;
}
{
glyphname = Etapsilioxiaprosgegrammeni;
layers = (
{
components = (
{
name = prosgegrammeni;
transform = "{1, 0, 0, 1, 198, 0}";
}
);
layerId = master01;
paths = (
{
closed = 1;
nodes = (
"7 608 OFFCURVE",
"16 619 OFFCURVE",
"29 619 CURVE SMOOTH",
"67 619 OFFCURVE",
"75 574 OFFCURVE",
"75 561 CURVE SMOOTH",
"75 514 OFFCURVE",
"36 502 OFFCURVE",
"24 502 CURVE SMOOTH",
"14 502 OFFCURVE",
"7 513 OFFCURVE",
"7 524 CURVE SMOOTH",
"7 552 OFFCURVE",
"43 537 OFFCURVE",
"43 561 CURVE SMOOTH",
"43 563 OFFCURVE",
"43 565 OFFCURVE",
"41 566 CURVE",
"36 563 OFFCURVE",
"36 562 OFFCURVE",
"29 562 CURVE SMOOTH",
"11 562 OFFCURVE",
"7 578 OFFCURVE",
"7 590 CURVE SMOOTH"
);
},
{
closed = 1;
nodes = (
"159 597 OFFCURVE",
"151 611 OFFCURVE",
"139 611 CURVE SMOOTH",
"135 611 OFFCURVE",
"128 609 OFFCURVE",
"125 605 CURVE",
"123 603 OFFCURVE",
"85 539 OFFCURVE",
"84 535 CURVE SMOOTH",
"79 517 OFFCURVE",
"96 499 OFFCURVE",
"109 510 CURVE",
"111 513 OFFCURVE",
"152 567 OFFCURVE",
"155 572 CURVE SMOOTH",
"157 575 OFFCURVE",
"159 581 OFFCURVE",
"159 586 CURVE SMOOTH"
);
},
{
closed = 1;
nodes = (
"411 0 OFFCURVE",
"395 0 OFFCURVE",
"387 0 CURVE SMOOTH",
"327 0 LINE SMOOTH",
"319 0 OFFCURVE",
"307 0 OFFCURVE",
"307 31 CURVE SMOOTH",
"307 61 OFFCURVE",
"319 61 OFFCURVE",
"327 61 CURVE SMOOTH",
"339 61 LINE",
"339 287 LINE",
"233 287 LINE",
"233 61 LINE",
"247 61 LINE SMOOTH",
"253 61 OFFCURVE",
"267 61 OFFCURVE",
"267 30 CURVE SMOOTH",
"267 0 OFFCURVE",
"253 0 OFFCURVE",
"247 0 CURVE SMOOTH",
"186 0 LINE SMOOTH",
"179 0 OFFCURVE",
"166 0 OFFCURVE",
"166 30 CURVE SMOOTH",
"166 61 OFFCURVE",
"177 61 OFFCURVE",
"186 61 CURVE SMOOTH",
"199 61 LINE",
"199 550 LINE",
"186 550 LINE SMOOTH",
"179 550 OFFCURVE",
"165 550 OFFCURVE",
"165 580 CURVE SMOOTH",
"165 611 OFFCURVE",
"177 611 OFFCURVE",
"186 611 CURVE SMOOTH",
"247 611 LINE SMOOTH",
"253 611 OFFCURVE",
"267 611 OFFCURVE",
"267 580 CURVE SMOOTH",
"267 550 OFFCURVE",
"253 550 OFFCURVE",
"247 550 CURVE SMOOTH",
"233 550 LINE",
"233 348 LINE",
"339 348 LINE",
"339 550 LINE",
"327 550 LINE SMOOTH",
"319 550 OFFCURVE",
"307 550 OFFCURVE",
"307 581 CURVE SMOOTH",
"307 611 OFFCURVE",
"319 611 OFFCURVE",
"327 611 CURVE SMOOTH",
"387 611 LINE SMOOTH",
"395 611 OFFCURVE",
"407 611 OFFCURVE",
"407 580 CURVE SMOOTH",
"407 550 OFFCURVE",
"395 550 OFFCURVE",
"387 550 CURVE SMOOTH",
"375 550 LINE",
"375 61 LINE",
"387 61 LINE SMOOTH",
"395 61 OFFCURVE",
"411 61 OFFCURVE",
"411 30 CURVE SMOOTH"
);
}
);
width = 525;
}
);
unicode = 1F9C;
}
{
glyphname = Etapsiliperispomeni;
layers = (
{
layerId = master01;
paths = (
{
closed = 1;
nodes = (
"80 590 OFFCURVE",
"89 599 OFFCURVE",
"101 599 CURVE SMOOTH",
"136 599 OFFCURVE",
"145 566 OFFCURVE",
"145 556 CURVE SMOOTH",
"145 521 OFFCURVE",
"107 512 OFFCURVE",
"97 512 CURVE SMOOTH",
"86 512 OFFCURVE",
"80 520 OFFCURVE",
"80 527 CURVE SMOOTH",
"80 549 OFFCURVE",
"113 538 OFFCURVE",
"113 556 CURVE SMOOTH",
"113 560 LINE",
"107 557 OFFCURVE",
"107 557 OFFCURVE",
"101 557 CURVE SMOOTH",
"85 557 OFFCURVE",
"80 568 OFFCURVE",
"80 578 CURVE SMOOTH"
);
},
{
closed = 1;
nodes = (
"216 671 OFFCURVE",
"215 657 OFFCURVE",
"215 653 CURVE",
"213 618 OFFCURVE",
"171 613 OFFCURVE",
"158 613 CURVE SMOOTH",
"126 613 OFFCURVE",
"95 636 OFFCURVE",
"76 636 CURVE SMOOTH",
"68 636 OFFCURVE",
"54 635 OFFCURVE",
"54 627 CURVE",
"53 608 OFFCURVE",
"18 607 OFFCURVE",
"18 630 CURVE SMOOTH",
"18 653 OFFCURVE",
"43 671 OFFCURVE",
"78 671 CURVE SMOOTH",
"115 670 OFFCURVE",
"129 648 OFFCURVE",
"158 648 CURVE SMOOTH",
"170 648 OFFCURVE",
"179 652 OFFCURVE",
"179 656 CURVE SMOOTH",
"179 659 OFFCURVE",
"181 671 OFFCURVE",
"196 671 CURVE SMOOTH"
);
},
{
closed = 1;
nodes = (
"507 0 OFFCURVE",
"490 0 OFFCURVE",
"481 0 CURVE SMOOTH",
"406 0 LINE SMOOTH",
"397 0 OFFCURVE",
"381 0 OFFCURVE",
"381 31 CURVE SMOOTH",
"381 61 OFFCURVE",
"397 61 OFFCURVE",
"406 61 CURVE SMOOTH",
"422 61 LINE",
"422 287 LINE",
"289 287 LINE",
"289 61 LINE",
"305 61 LINE SMOOTH",
"314 61 OFFCURVE",
"330 61 OFFCURVE",
"330 30 CURVE SMOOTH",
"330 0 OFFCURVE",
"314 0 OFFCURVE",
"305 0 CURVE SMOOTH",
"229 0 LINE SMOOTH",
"220 0 OFFCURVE",
"204 0 OFFCURVE",
"204 30 CURVE SMOOTH",
"204 61 OFFCURVE",
"219 61 OFFCURVE",
"229 61 CURVE SMOOTH",
"246 61 LINE",
"246 550 LINE",
"229 550 LINE SMOOTH",
"220 550 OFFCURVE",
"203 550 OFFCURVE",
"203 580 CURVE SMOOTH",
"203 611 OFFCURVE",
"219 611 OFFCURVE",
"229 611 CURVE SMOOTH",
"305 611 LINE SMOOTH",
"314 611 OFFCURVE",
"330 611 OFFCURVE",
"330 580 CURVE SMOOTH",
"330 550 OFFCURVE",
"314 550 OFFCURVE",
"305 550 CURVE SMOOTH",
"289 550 LINE",
"289 348 LINE",
"422 348 LINE",
"422 550 LINE",
"406 550 LINE SMOOTH",
"397 550 OFFCURVE",
"381 550 OFFCURVE",
"381 581 CURVE SMOOTH",
"381 611 OFFCURVE",
"397 611 OFFCURVE",
"406 611 CURVE SMOOTH",
"481 611 LINE SMOOTH",
"490 611 OFFCURVE",
"507 611 OFFCURVE",
"507 580 CURVE SMOOTH",
"507 550 OFFCURVE",
"490 550 OFFCURVE",
"481 550 CURVE SMOOTH",
"465 550 LINE",
"465 61 LINE",
"481 61 LINE SMOOTH",
"490 61 OFFCURVE",
"507 61 OFFCURVE",
"507 30 CURVE SMOOTH"
);
}
);
width = 525;
}
);
unicode = 1F2E;
}
{
glyphname = Etapsiliperispomeniprosgegrammeni;
layers = (
{
components = (
{
name = prosgegrammeni;
transform = "{1, 0, 0, 1, 192, 0}";
}
);
layerId = master01;
paths = (
{
closed = 1;
nodes = (
"63 590 OFFCURVE",
"70 599 OFFCURVE",
"80 599 CURVE SMOOTH",
"108 599 OFFCURVE",
"115 566 OFFCURVE",
"115 556 CURVE SMOOTH",
"115 521 OFFCURVE",
"85 512 OFFCURVE",
"77 512 CURVE SMOOTH",
"68 512 OFFCURVE",
"63 520 OFFCURVE",
"63 527 CURVE SMOOTH",
"63 549 OFFCURVE",
"89 538 OFFCURVE",
"89 556 CURVE SMOOTH",
"89 560 LINE",
"85 557 OFFCURVE",
"85 557 OFFCURVE",
"80 557 CURVE SMOOTH",
"67 557 OFFCURVE",
"63 568 OFFCURVE",
"63 578 CURVE SMOOTH"
);
},
{
closed = 1;
nodes = (
"172 671 OFFCURVE",
"171 657 OFFCURVE",
"171 653 CURVE",
"169 618 OFFCURVE",
"136 613 OFFCURVE",
"125 613 CURVE SMOOTH",
"100 613 OFFCURVE",
"75 636 OFFCURVE",
"60 636 CURVE SMOOTH",
"53 636 OFFCURVE",
"42 635 OFFCURVE",
"42 627 CURVE",
"41 608 OFFCURVE",
"13 607 OFFCURVE",
"13 630 CURVE SMOOTH",
"13 653 OFFCURVE",
"33 671 OFFCURVE",
"61 671 CURVE SMOOTH",
"91 670 OFFCURVE",
"102 648 OFFCURVE",
"125 648 CURVE SMOOTH",
"135 648 OFFCURVE",
"142 652 OFFCURVE",
"142 656 CURVE SMOOTH",
"142 659 OFFCURVE",
"144 671 OFFCURVE",
"156 671 CURVE SMOOTH"
);
},
{
closed = 1;
nodes = (
"405 0 OFFCURVE",
"391 0 OFFCURVE",
"384 0 CURVE SMOOTH",
"324 0 LINE SMOOTH",
"317 0 OFFCURVE",
"304 0 OFFCURVE",
"304 31 CURVE SMOOTH",
"304 61 OFFCURVE",
"317 61 OFFCURVE",
"324 61 CURVE SMOOTH",
"337 61 LINE",
"337 287 LINE",
"230 287 LINE",
"230 61 LINE",
"243 61 LINE SMOOTH",
"250 61 OFFCURVE",
"263 61 OFFCURVE",
"263 30 CURVE SMOOTH",
"263 0 OFFCURVE",
"250 0 OFFCURVE",
"243 0 CURVE SMOOTH",
"182 0 LINE SMOOTH",
"175 0 OFFCURVE",
"162 0 OFFCURVE",
"162 30 CURVE SMOOTH",
"162 61 OFFCURVE",
"174 61 OFFCURVE",
"182 61 CURVE SMOOTH",
"196 61 LINE",
"196 550 LINE",
"182 550 LINE SMOOTH",
"175 550 OFFCURVE",
"161 550 OFFCURVE",
"161 580 CURVE SMOOTH",
"161 611 OFFCURVE",
"174 611 OFFCURVE",
"182 611 CURVE SMOOTH",
"243 611 LINE SMOOTH",
"250 611 OFFCURVE",
"263 611 OFFCURVE",
"263 580 CURVE SMOOTH",
"263 550 OFFCURVE",
"250 550 OFFCURVE",
"243 550 CURVE SMOOTH",
"230 550 LINE",
"230 348 LINE",
"337 348 LINE",
"337 550 LINE",
"324 550 LINE SMOOTH",
"317 550 OFFCURVE",
"304 550 OFFCURVE",
"304 581 CURVE SMOOTH",
"304 611 OFFCURVE",
"317 611 OFFCURVE",
"324 611 CURVE SMOOTH",
"384 611 LINE SMOOTH",
"391 611 OFFCURVE",
"405 611 OFFCURVE",
"405 580 CURVE SMOOTH",
"405 550 OFFCURVE",
"391 550 OFFCURVE",
"384 550 CURVE SMOOTH",
"371 550 LINE",
"371 61 LINE",
"384 61 LINE SMOOTH",
"391 61 OFFCURVE",
"405 61 OFFCURVE",
"405 30 CURVE SMOOTH"
);
}
);
width = 525;
}
);
unicode = 1F9E;
}
{
glyphname = Etapsiliprosgegrammeni;
layers = (
{
components = (
{
name = prosgegrammeni;
transform = "{1, 0, 0, 1, 191, 0}";
}
);
layerId = master01;
paths = (
{
closed = 1;
nodes = (
"14 608 OFFCURVE",
"24 620 OFFCURVE",
"37 620 CURVE SMOOTH",
"74 620 OFFCURVE",
"83 575 OFFCURVE",
"83 562 CURVE SMOOTH",
"83 515 OFFCURVE",
"43 503 OFFCURVE",
"32 503 CURVE SMOOTH",
"21 503 OFFCURVE",
"14 514 OFFCURVE",
"14 524 CURVE SMOOTH",
"14 553 OFFCURVE",
"50 538 OFFCURVE",
"50 562 CURVE SMOOTH",
"50 567 LINE",
"43 564 OFFCURVE",
"43 563 OFFCURVE",
"37 563 CURVE SMOOTH",
"19 563 OFFCURVE",
"14 578 OFFCURVE",
"14 591 CURVE SMOOTH"
);
},
{
closed = 1;
nodes = (
"387 0 OFFCURVE",
"373 0 OFFCURVE",
"365 0 CURVE SMOOTH",
"298 0 LINE SMOOTH",
"290 0 OFFCURVE",
"275 0 OFFCURVE",
"275 31 CURVE SMOOTH",
"275 61 OFFCURVE",
"290 61 OFFCURVE",
"298 61 CURVE SMOOTH",
"312 61 LINE",
"312 287 LINE",
"194 287 LINE",
"194 61 LINE",
"208 61 LINE SMOOTH",
"216 61 OFFCURVE",
"230 61 OFFCURVE",
"230 30 CURVE SMOOTH",
"230 0 OFFCURVE",
"216 0 OFFCURVE",
"208 0 CURVE SMOOTH",
"141 0 LINE SMOOTH",
"133 0 OFFCURVE",
"118 0 OFFCURVE",
"118 30 CURVE SMOOTH",
"118 61 OFFCURVE",
"131 61 OFFCURVE",
"141 61 CURVE SMOOTH",
"155 61 LINE",
"155 550 LINE",
"141 550 LINE SMOOTH",
"133 550 OFFCURVE",
"118 550 OFFCURVE",
"118 580 CURVE SMOOTH",
"118 611 OFFCURVE",
"131 611 OFFCURVE",
"141 611 CURVE SMOOTH",
"208 611 LINE SMOOTH",
"216 611 OFFCURVE",
"230 611 OFFCURVE",
"230 580 CURVE SMOOTH",
"230 550 OFFCURVE",
"216 550 OFFCURVE",
"208 550 CURVE SMOOTH",
"194 550 LINE",
"194 348 LINE",
"312 348 LINE",
"312 550 LINE",
"298 550 LINE SMOOTH",
"290 550 OFFCURVE",
"275 550 OFFCURVE",
"275 581 CURVE SMOOTH",
"275 611 OFFCURVE",
"290 611 OFFCURVE",
"298 611 CURVE SMOOTH",
"365 611 LINE SMOOTH",
"373 611 OFFCURVE",
"387 611 OFFCURVE",
"387 580 CURVE SMOOTH",
"387 550 OFFCURVE",
"373 550 OFFCURVE",
"365 550 CURVE SMOOTH",
"350 550 LINE",
"350 61 LINE",
"365 61 LINE SMOOTH",
"373 61 OFFCURVE",
"387 61 OFFCURVE",
"387 30 CURVE SMOOTH"
);
}
);
width = 525;
}
);
unicode = 1F98;
}
{
glyphname = Etapsilivaria;
layers = (
{
layerId = master01;
paths = (
{
closed = 1;
nodes = (
"16 608 OFFCURVE",
"28 619 OFFCURVE",
"44 619 CURVE SMOOTH",
"91 619 OFFCURVE",
"101 574 OFFCURVE",
"101 561 CURVE SMOOTH",
"101 514 OFFCURVE",
"53 502 OFFCURVE",
"38 502 CURVE SMOOTH",
"25 502 OFFCURVE",
"16 513 OFFCURVE",
"16 524 CURVE SMOOTH",
"16 552 OFFCURVE",
"61 537 OFFCURVE",
"61 561 CURVE SMOOTH",
"61 563 OFFCURVE",
"61 565 OFFCURVE",
"59 566 CURVE",
"53 563 OFFCURVE",
"53 562 OFFCURVE",
"44 562 CURVE SMOOTH",
"22 562 OFFCURVE",
"16 578 OFFCURVE",
"16 590 CURVE SMOOTH"
);
},
{
closed = 1;
nodes = (
"113 584 OFFCURVE",
"122 598 OFFCURVE",
"137 598 CURVE SMOOTH",
"143 598 OFFCURVE",
"151 596 OFFCURVE",
"155 592 CURVE",
"158 590 OFFCURVE",
"205 526 OFFCURVE",
"206 522 CURVE",
"213 504 OFFCURVE",
"191 486 OFFCURVE",
"175 497 CURVE",
"172 500 OFFCURVE",
"121 554 OFFCURVE",
"118 559 CURVE",
"115 562 OFFCURVE",
"113 568 OFFCURVE",
"113 573 CURVE SMOOTH"
);
},
{
closed = 1;
nodes = (
"509 0 OFFCURVE",
"492 0 OFFCURVE",
"483 0 CURVE SMOOTH",
"408 0 LINE SMOOTH",
"399 0 OFFCURVE",
"383 0 OFFCURVE",
"383 31 CURVE SMOOTH",
"383 61 OFFCURVE",
"399 61 OFFCURVE",
"408 61 CURVE SMOOTH",
"424 61 LINE",
"424 287 LINE",
"291 287 LINE",
"291 61 LINE",
"307 61 LINE SMOOTH",
"316 61 OFFCURVE",
"332 61 OFFCURVE",
"332 30 CURVE SMOOTH",
"332 0 OFFCURVE",
"316 0 OFFCURVE",
"307 0 CURVE SMOOTH",
"231 0 LINE SMOOTH",
"222 0 OFFCURVE",
"206 0 OFFCURVE",
"206 30 CURVE SMOOTH",
"206 61 OFFCURVE",
"221 61 OFFCURVE",
"231 61 CURVE SMOOTH",
"248 61 LINE",
"248 550 LINE",
"231 550 LINE SMOOTH",
"222 550 OFFCURVE",
"205 550 OFFCURVE",
"205 580 CURVE SMOOTH",
"205 611 OFFCURVE",
"221 611 OFFCURVE",
"231 611 CURVE SMOOTH",
"307 611 LINE SMOOTH",
"316 611 OFFCURVE",
"332 611 OFFCURVE",
"332 580 CURVE SMOOTH",
"332 550 OFFCURVE",
"316 550 OFFCURVE",
"307 550 CURVE SMOOTH",
"291 550 LINE",
"291 348 LINE",
"424 348 LINE",
"424 550 LINE",
"408 550 LINE SMOOTH",
"399 550 OFFCURVE",
"383 550 OFFCURVE",
"383 581 CURVE SMOOTH",
"383 611 OFFCURVE",
"399 611 OFFCURVE",
"408 611 CURVE SMOOTH",
"483 611 LINE SMOOTH",
"492 611 OFFCURVE",
"509 611 OFFCURVE",
"509 580 CURVE SMOOTH",
"509 550 OFFCURVE",
"492 550 OFFCURVE",
"483 550 CURVE SMOOTH",
"467 550 LINE",
"467 61 LINE",
"483 61 LINE SMOOTH",
"492 61 OFFCURVE",
"509 61 OFFCURVE",
"509 30 CURVE SMOOTH"
);
}
);
width = 525;
}
);
unicode = 1F2A;
}
{
glyphname = Etapsilivariaprosgegrammeni;
layers = (
{
components = (
{
name = prosgegrammeni;
transform = "{1, 0, 0, 1, 195, 0}";
}
);
layerId = master01;
paths = (
{
closed = 1;
nodes = (
"10 608 OFFCURVE",
"20 619 OFFCURVE",
"33 619 CURVE SMOOTH",
"70 619 OFFCURVE",
"78 574 OFFCURVE",
"78 561 CURVE SMOOTH",
"78 514 OFFCURVE",
"40 502 OFFCURVE",
"28 502 CURVE SMOOTH",
"17 502 OFFCURVE",
"10 513 OFFCURVE",
"10 524 CURVE SMOOTH",
"10 552 OFFCURVE",
"46 537 OFFCURVE",
"46 561 CURVE SMOOTH",
"46 563 OFFCURVE",
"46 565 OFFCURVE",
"45 566 CURVE",
"40 563 OFFCURVE",
"40 562 OFFCURVE",
"33 562 CURVE SMOOTH",
"15 562 OFFCURVE",
"10 578 OFFCURVE",
"10 590 CURVE SMOOTH"
);
},
{
closed = 1;
nodes = (
"88 584 OFFCURVE",
"95 598 OFFCURVE",
"107 598 CURVE SMOOTH",
"112 598 OFFCURVE",
"118 596 OFFCURVE",
"121 592 CURVE",
"124 590 OFFCURVE",
"161 526 OFFCURVE",
"162 522 CURVE",
"168 504 OFFCURVE",
"150 486 OFFCURVE",
"137 497 CURVE",
"135 500 OFFCURVE",
"94 554 OFFCURVE",
"92 559 CURVE",
"89 562 OFFCURVE",
"88 568 OFFCURVE",
"88 573 CURVE SMOOTH"
);
},
{
closed = 1;
nodes = (
"405 0 OFFCURVE",
"391 0 OFFCURVE",
"384 0 CURVE SMOOTH",
"324 0 LINE SMOOTH",
"317 0 OFFCURVE",
"304 0 OFFCURVE",
"304 31 CURVE SMOOTH",
"304 61 OFFCURVE",
"317 61 OFFCURVE",
"324 61 CURVE SMOOTH",
"337 61 LINE",
"337 287 LINE",
"230 287 LINE",
"230 61 LINE",
"243 61 LINE SMOOTH",
"250 61 OFFCURVE",
"263 61 OFFCURVE",
"263 30 CURVE SMOOTH",
"263 0 OFFCURVE",
"250 0 OFFCURVE",
"243 0 CURVE SMOOTH",
"182 0 LINE SMOOTH",
"175 0 OFFCURVE",
"162 0 OFFCURVE",
"162 30 CURVE SMOOTH",
"162 61 OFFCURVE",
"174 61 OFFCURVE",
"182 61 CURVE SMOOTH",
"196 61 LINE",
"196 550 LINE",
"182 550 LINE SMOOTH",
"175 550 OFFCURVE",
"161 550 OFFCURVE",
"161 580 CURVE SMOOTH",
"161 611 OFFCURVE",
"174 611 OFFCURVE",
"182 611 CURVE SMOOTH",
"243 611 LINE SMOOTH",
"250 611 OFFCURVE",
"263 611 OFFCURVE",
"263 580 CURVE SMOOTH",
"263 550 OFFCURVE",
"250 550 OFFCURVE",
"243 550 CURVE SMOOTH",
"230 550 LINE",
"230 348 LINE",
"337 348 LINE",
"337 550 LINE",
"324 550 LINE SMOOTH",
"317 550 OFFCURVE",
"304 550 OFFCURVE",
"304 581 CURVE SMOOTH",
"304 611 OFFCURVE",
"317 611 OFFCURVE",
"324 611 CURVE SMOOTH",
"384 611 LINE SMOOTH",
"391 611 OFFCURVE",
"405 611 OFFCURVE",
"405 580 CURVE SMOOTH",
"405 550 OFFCURVE",
"391 550 OFFCURVE",
"384 550 CURVE SMOOTH",
"371 550 LINE",
"371 61 LINE",
"384 61 LINE SMOOTH",
"391 61 OFFCURVE",
"405 61 OFFCURVE",
"405 30 CURVE SMOOTH"
);
}
);
width = 525;
}
);
unicode = 1F9A;
}
{
glyphname = Etavaria;
layers = (
{
layerId = master01;
paths = (
{
closed = 1;
nodes = (
"25 621 OFFCURVE",
"37 641 OFFCURVE",
"57 641 CURVE SMOOTH",
"65 641 OFFCURVE",
"75 638 OFFCURVE",
"81 632 CURVE",
"85 629 OFFCURVE",
"147 544 OFFCURVE",
"149 539 CURVE",
"157 515 OFFCURVE",
"129 491 OFFCURVE",
"107 506 CURVE",
"103 510 OFFCURVE",
"35 582 OFFCURVE",
"31 588 CURVE",
"27 593 OFFCURVE",
"25 600 OFFCURVE",
"25 607 CURVE SMOOTH"
);
},
{
closed = 1;
nodes = (
"504 0 OFFCURVE",
"487 0 OFFCURVE",
"476 0 CURVE SMOOTH",
"393 0 LINE SMOOTH",
"382 0 OFFCURVE",
"365 0 OFFCURVE",
"365 31 CURVE SMOOTH",
"365 61 OFFCURVE",
"382 61 OFFCURVE",
"393 61 CURVE SMOOTH",
"410 61 LINE",
"410 287 LINE",
"262 287 LINE",
"262 61 LINE",
"280 61 LINE SMOOTH",
"291 61 OFFCURVE",
"308 61 OFFCURVE",
"308 30 CURVE SMOOTH",
"308 0 OFFCURVE",
"290 0 OFFCURVE",
"280 0 CURVE SMOOTH",
"196 0 LINE SMOOTH",
"186 0 OFFCURVE",
"168 0 OFFCURVE",
"168 30 CURVE SMOOTH",
"168 61 OFFCURVE",
"185 61 OFFCURVE",
"196 61 CURVE SMOOTH",
"214 61 LINE",
"214 550 LINE",
"196 550 LINE SMOOTH",
"186 550 OFFCURVE",
"168 550 OFFCURVE",
"168 580 CURVE SMOOTH",
"168 611 OFFCURVE",
"185 611 OFFCURVE",
"196 611 CURVE SMOOTH",
"280 611 LINE SMOOTH",
"291 611 OFFCURVE",
"308 611 OFFCURVE",
"308 580 CURVE SMOOTH",
"308 550 OFFCURVE",
"290 550 OFFCURVE",
"280 550 CURVE SMOOTH",
"262 550 LINE",
"262 348 LINE",
"410 348 LINE",
"410 550 LINE",
"393 550 LINE SMOOTH",
"382 550 OFFCURVE",
"365 550 OFFCURVE",
"365 581 CURVE SMOOTH",
"365 611 OFFCURVE",
"382 611 OFFCURVE",
"393 611 CURVE SMOOTH",
"476 611 LINE SMOOTH",
"487 611 OFFCURVE",
"504 611 OFFCURVE",
"504 580 CURVE SMOOTH",
"504 550 OFFCURVE",
"487 550 OFFCURVE",
"476 550 CURVE SMOOTH",
"459 550 LINE",
"459 61 LINE",
"476 61 LINE SMOOTH",
"487 61 OFFCURVE",
"504 61 OFFCURVE",
"504 30 CURVE SMOOTH"
);
}
);
width = 525;
}
);
unicode = 1FCA;
}
{
glyphname = Germandbls;
layers = (
{
layerId = master01;
paths = (
{
closed = 1;
nodes = (
"161 622 OFFCURVE",
"74 560 OFFCURVE",
"74 437 CURVE SMOOTH",
"74 61 LINE",
"64 61 LINE SMOOTH",
"49 61 OFFCURVE",
"23 61 OFFCURVE",
"23 30 CURVE SMOOTH",
"23 0 OFFCURVE",
"49 0 OFFCURVE",
"64 0 CURVE SMOOTH",
"153 0 LINE SMOOTH",
"168 0 OFFCURVE",
"194 0 OFFCURVE",
"194 30 CURVE SMOOTH",
"194 61 OFFCURVE",
"168 61 OFFCURVE",
"153 61 CURVE SMOOTH",
"143 61 LINE",
"143 432 LINE SMOOTH",
"143 519 OFFCURVE",
"208 561 OFFCURVE",
"261 561 CURVE SMOOTH",
"379 561 LINE",
"278 348 LINE SMOOTH",
"270 333 OFFCURVE",
"268 289 OFFCURVE",
"307 287 CURVE",
"392 287 OFFCURVE",
"422 224 OFFCURVE",
"422 179 CURVE SMOOTH",
"422 130 OFFCURVE",
"383 61 OFFCURVE",
"296 61 CURVE",
"296 85 OFFCURVE",
"296 87 OFFCURVE",
"289 97 CURVE",
"282 106 OFFCURVE",
"270 113 OFFCURVE",
"257 113 CURVE SMOOTH",
"236 113 OFFCURVE",
"216 98 OFFCURVE",
"216 71 CURVE SMOOTH",
"216 34 OFFCURVE",
"250 0 OFFCURVE",
"318 0 CURVE SMOOTH",
"431 0 OFFCURVE",
"491 99 OFFCURVE",
"491 177 CURVE SMOOTH",
"491 246 OFFCURVE",
"452 320 OFFCURVE",
"349 342 CURVE",
"457 562 LINE",
"466 583 OFFCURVE",
"476 616 OFFCURVE",
"437 622 CURVE",
"261 622 LINE SMOOTH"
);
}
);
width = 525;
}
);
unicode = 1E9E;
}
{
glyphname = Iotadasia;
layers = (
{
layerId = master01;
paths = (
{
closed = 1;
nodes = (
"124 578 OFFCURVE",
"118 563 OFFCURVE",
"96 563 CURVE SMOOTH",
"88 563 OFFCURVE",
"88 564 OFFCURVE",
"80 567 CURVE",
"80 562 LINE SMOOTH",
"80 538 OFFCURVE",
"124 553 OFFCURVE",
"124 524 CURVE SMOOTH",
"124 514 OFFCURVE",
"116 503 OFFCURVE",
"102 503 CURVE SMOOTH",
"88 503 OFFCURVE",
"38 515 OFFCURVE",
"38 562 CURVE SMOOTH",
"38 575 OFFCURVE",
"50 620 OFFCURVE",
"96 620 CURVE SMOOTH",
"112 620 OFFCURVE",
"124 608 OFFCURVE",
"124 591 CURVE SMOOTH"
);
},
{
closed = 1;
nodes = (
"504 0 OFFCURVE",
"483 0 OFFCURVE",
"471 0 CURVE SMOOTH",
"240 0 LINE SMOOTH",
"228 0 OFFCURVE",
"206 0 OFFCURVE",
"206 31 CURVE SMOOTH",
"206 61 OFFCURVE",
"228 61 OFFCURVE",
"240 61 CURVE SMOOTH",
"327 61 LINE",
"327 550 LINE",
"240 550 LINE SMOOTH",
"228 550 OFFCURVE",
"206 550 OFFCURVE",
"206 581 CURVE SMOOTH",
"206 611 OFFCURVE",
"228 611 OFFCURVE",
"240 611 CURVE SMOOTH",
"471 611 LINE SMOOTH",
"483 611 OFFCURVE",
"504 611 OFFCURVE",
"504 580 CURVE SMOOTH",
"504 550 OFFCURVE",
"483 550 OFFCURVE",
"471 550 CURVE SMOOTH",
"383 550 LINE",
"383 61 LINE",
"471 61 LINE SMOOTH",
"483 61 OFFCURVE",
"504 61 OFFCURVE",
"504 30 CURVE SMOOTH"
);
}
);
width = 525;
}
);
unicode = 1F39;
}
{
glyphname = Iotadasiaoxia;
layers = (
{
layerId = master01;
paths = (
{
closed = 1;
nodes = (
"94 579 OFFCURVE",
"87 563 OFFCURVE",
"63 563 CURVE SMOOTH",
"54 563 OFFCURVE",
"54 564 OFFCURVE",
"47 567 CURVE",
"46 566 OFFCURVE",
"46 563 OFFCURVE",
"46 562 CURVE SMOOTH",
"46 536 OFFCURVE",
"94 552 OFFCURVE",
"94 522 CURVE SMOOTH",
"94 510 OFFCURVE",
"84 499 OFFCURVE",
"70 499 CURVE SMOOTH",
"54 499 OFFCURVE",
"3 512 OFFCURVE",
"3 562 CURVE SMOOTH",
"3 576 OFFCURVE",
"14 623 OFFCURVE",
"63 623 CURVE SMOOTH",
"81 623 OFFCURVE",
"94 611 OFFCURVE",
"94 593 CURVE SMOOTH"
);
},
{
closed = 1;
nodes = (
"201 588 OFFCURVE",
"200 583 OFFCURVE",
"196 579 CURVE",
"193 574 OFFCURVE",
"139 516 OFFCURVE",
"136 513 CURVE",
"118 501 OFFCURVE",
"96 520 OFFCURVE",
"102 539 CURVE",
"104 543 OFFCURVE",
"153 611 OFFCURVE",
"156 614 CURVE SMOOTH",
"161 619 OFFCURVE",
"169 621 OFFCURVE",
"176 621 CURVE SMOOTH",
"192 621 OFFCURVE",
"201 605 OFFCURVE",
"201 594 CURVE SMOOTH"
);
},
{
closed = 1;
nodes = (
"504 0 OFFCURVE",
"483 0 OFFCURVE",
"471 0 CURVE SMOOTH",
"240 0 LINE SMOOTH",
"228 0 OFFCURVE",
"206 0 OFFCURVE",
"206 31 CURVE SMOOTH",
"206 61 OFFCURVE",
"228 61 OFFCURVE",
"240 61 CURVE SMOOTH",
"327 61 LINE",
"327 550 LINE",
"240 550 LINE SMOOTH",
"228 550 OFFCURVE",
"206 550 OFFCURVE",
"206 581 CURVE SMOOTH",
"206 611 OFFCURVE",
"228 611 OFFCURVE",
"240 611 CURVE SMOOTH",
"471 611 LINE SMOOTH",
"483 611 OFFCURVE",
"504 611 OFFCURVE",
"504 580 CURVE SMOOTH",
"504 550 OFFCURVE",
"483 550 OFFCURVE",
"471 550 CURVE SMOOTH",
"383 550 LINE",
"383 61 LINE",
"471 61 LINE SMOOTH",
"483 61 OFFCURVE",
"504 61 OFFCURVE",
"504 30 CURVE SMOOTH"
);
}
);
width = 525;
}
);
unicode = 1F3D;
}
{
glyphname = Iotadasiavaria;
layers = (
{
layerId = master01;
paths = (
{
closed = 1;
nodes = (
"102 611 OFFCURVE",
"89 623 OFFCURVE",
"71 623 CURVE SMOOTH",
"22 623 OFFCURVE",
"11 576 OFFCURVE",
"11 562 CURVE SMOOTH",
"11 512 OFFCURVE",
"62 499 OFFCURVE",
"78 499 CURVE SMOOTH",
"92 499 OFFCURVE",
"102 510 OFFCURVE",
"102 522 CURVE SMOOTH",
"102 552 OFFCURVE",
"54 536 OFFCURVE",
"54 562 CURVE SMOOTH",
"54 563 OFFCURVE",
"54 566 OFFCURVE",
"55 567 CURVE",
"62 564 OFFCURVE",
"62 563 OFFCURVE",
"71 563 CURVE SMOOTH",
"95 563 OFFCURVE",
"102 579 OFFCURVE",
"102 593 CURVE SMOOTH"
);
},
{
closed = 1;
nodes = (
"113 612 OFFCURVE",
"122 628 OFFCURVE",
"138 628 CURVE SMOOTH",
"145 628 OFFCURVE",
"153 626 OFFCURVE",
"158 621 CURVE SMOOTH",
"161 618 OFFCURVE",
"210 550 OFFCURVE",
"212 546 CURVE",
"218 527 OFFCURVE",
"196 508 OFFCURVE",
"178 520 CURVE",
"175 523 OFFCURVE",
"121 581 OFFCURVE",
"118 586 CURVE",
"114 590 OFFCURVE",
"113 595 OFFCURVE",
"113 601 CURVE SMOOTH"
);
},
{
closed = 1;
nodes = (
"504 0 OFFCURVE",
"483 0 OFFCURVE",
"471 0 CURVE SMOOTH",
"240 0 LINE SMOOTH",
"228 0 OFFCURVE",
"206 0 OFFCURVE",
"206 31 CURVE SMOOTH",
"206 61 OFFCURVE",
"228 61 OFFCURVE",
"240 61 CURVE SMOOTH",
"327 61 LINE",
"327 550 LINE",
"240 550 LINE SMOOTH",
"228 550 OFFCURVE",
"206 550 OFFCURVE",
"206 581 CURVE SMOOTH",
"206 611 OFFCURVE",
"228 611 OFFCURVE",
"240 611 CURVE SMOOTH",
"471 611 LINE SMOOTH",
"483 611 OFFCURVE",
"504 611 OFFCURVE",
"504 580 CURVE SMOOTH",
"504 550 OFFCURVE",
"483 550 OFFCURVE",
"471 550 CURVE SMOOTH",
"383 550 LINE",
"383 61 LINE",
"471 61 LINE SMOOTH",
"483 61 OFFCURVE",
"504 61 OFFCURVE",
"504 30 CURVE SMOOTH"
);
}
);
width = 525;
}
);
unicode = 1F3B;
}
{
glyphname = Iotapsili;
layers = (
{
layerId = master01;
paths = (
{
closed = 1;
nodes = (
"38 608 OFFCURVE",
"50 620 OFFCURVE",
"66 620 CURVE SMOOTH",
"112 620 OFFCURVE",
"124 575 OFFCURVE",
"124 562 CURVE SMOOTH",
"124 515 OFFCURVE",
"74 503 OFFCURVE",
"60 503 CURVE SMOOTH",
"46 503 OFFCURVE",
"38 514 OFFCURVE",
"38 524 CURVE SMOOTH",
"38 553 OFFCURVE",
"82 538 OFFCURVE",
"82 562 CURVE SMOOTH",
"82 567 LINE",
"74 564 OFFCURVE",
"74 563 OFFCURVE",
"66 563 CURVE SMOOTH",
"44 563 OFFCURVE",
"38 578 OFFCURVE",
"38 591 CURVE SMOOTH"
);
},
{
closed = 1;
nodes = (
"504 0 OFFCURVE",
"483 0 OFFCURVE",
"471 0 CURVE SMOOTH",
"240 0 LINE SMOOTH",
"228 0 OFFCURVE",
"206 0 OFFCURVE",
"206 31 CURVE SMOOTH",
"206 61 OFFCURVE",
"228 61 OFFCURVE",
"240 61 CURVE SMOOTH",
"327 61 LINE",
"327 550 LINE",
"240 550 LINE SMOOTH",
"228 550 OFFCURVE",
"206 550 OFFCURVE",
"206 581 CURVE SMOOTH",
"206 611 OFFCURVE",
"228 611 OFFCURVE",
"240 611 CURVE SMOOTH",
"471 611 LINE SMOOTH",
"483 611 OFFCURVE",
"504 611 OFFCURVE",
"504 580 CURVE SMOOTH",
"504 550 OFFCURVE",
"483 550 OFFCURVE",
"471 550 CURVE SMOOTH",
"383 550 LINE",
"383 61 LINE",
"471 61 LINE SMOOTH",
"483 61 OFFCURVE",
"504 61 OFFCURVE",
"504 30 CURVE SMOOTH"
);
}
);
width = 525;
}
);
unicode = 1F38;
}
{
glyphname = Iotapsilioxia;
layers = (
{
layerId = master01;
paths = (
{
closed = 1;
nodes = (
"6 611 OFFCURVE",
"19 623 OFFCURVE",
"37 623 CURVE SMOOTH",
"86 623 OFFCURVE",
"97 576 OFFCURVE",
"97 562 CURVE SMOOTH",
"97 512 OFFCURVE",
"46 499 OFFCURVE",
"30 499 CURVE SMOOTH",
"16 499 OFFCURVE",
"6 510 OFFCURVE",
"6 522 CURVE SMOOTH",
"6 552 OFFCURVE",
"54 536 OFFCURVE",
"54 562 CURVE SMOOTH",
"54 563 OFFCURVE",
"54 566 OFFCURVE",
"53 567 CURVE",
"46 564 OFFCURVE",
"46 563 OFFCURVE",
"37 563 CURVE SMOOTH",
"13 563 OFFCURVE",
"6 579 OFFCURVE",
"6 593 CURVE SMOOTH"
);
},
{
closed = 1;
nodes = (
"194 601 OFFCURVE",
"185 617 OFFCURVE",
"169 617 CURVE SMOOTH",
"162 617 OFFCURVE",
"154 615 OFFCURVE",
"149 610 CURVE SMOOTH",
"146 607 OFFCURVE",
"97 539 OFFCURVE",
"95 535 CURVE",
"89 516 OFFCURVE",
"111 497 OFFCURVE",
"129 509 CURVE",
"132 512 OFFCURVE",
"186 570 OFFCURVE",
"189 575 CURVE",
"193 579 OFFCURVE",
"194 584 OFFCURVE",
"194 590 CURVE SMOOTH"
);
},
{
closed = 1;
nodes = (
"504 0 OFFCURVE",
"483 0 OFFCURVE",
"471 0 CURVE SMOOTH",
"240 0 LINE SMOOTH",
"228 0 OFFCURVE",
"206 0 OFFCURVE",
"206 31 CURVE SMOOTH",
"206 61 OFFCURVE",
"228 61 OFFCURVE",
"240 61 CURVE SMOOTH",
"327 61 LINE",
"327 550 LINE",
"240 550 LINE SMOOTH",
"228 550 OFFCURVE",
"206 550 OFFCURVE",
"206 581 CURVE SMOOTH",
"206 611 OFFCURVE",
"228 611 OFFCURVE",
"240 611 CURVE SMOOTH",
"471 611 LINE SMOOTH",
"483 611 OFFCURVE",
"504 611 OFFCURVE",
"504 580 CURVE SMOOTH",
"504 550 OFFCURVE",
"483 550 OFFCURVE",
"471 550 CURVE SMOOTH",
"383 550 LINE",
"383 61 LINE",
"471 61 LINE SMOOTH",
"483 61 OFFCURVE",
"504 61 OFFCURVE",
"504 30 CURVE SMOOTH"
);
}
);
width = 525;
}
);
unicode = 1F3C;
}
{
glyphname = Iotapsiliperispomeni;
layers = (
{
layerId = master01;
paths = (
{
closed = 1;
nodes = (
"80 590 OFFCURVE",
"89 599 OFFCURVE",
"101 599 CURVE SMOOTH",
"136 599 OFFCURVE",
"145 566 OFFCURVE",
"145 556 CURVE SMOOTH",
"145 521 OFFCURVE",
"107 512 OFFCURVE",
"97 512 CURVE SMOOTH",
"86 512 OFFCURVE",
"80 520 OFFCURVE",
"80 527 CURVE SMOOTH",
"80 549 OFFCURVE",
"113 538 OFFCURVE",
"113 556 CURVE SMOOTH",
"113 560 LINE",
"107 557 OFFCURVE",
"107 557 OFFCURVE",
"101 557 CURVE SMOOTH",
"85 557 OFFCURVE",
"80 568 OFFCURVE",
"80 578 CURVE SMOOTH"
);
},
{
closed = 1;
nodes = (
"216 671 OFFCURVE",
"215 657 OFFCURVE",
"215 653 CURVE",
"213 618 OFFCURVE",
"171 613 OFFCURVE",
"158 613 CURVE SMOOTH",
"126 613 OFFCURVE",
"95 636 OFFCURVE",
"76 636 CURVE SMOOTH",
"68 636 OFFCURVE",
"54 635 OFFCURVE",
"54 627 CURVE",
"53 608 OFFCURVE",
"18 607 OFFCURVE",
"18 630 CURVE SMOOTH",
"18 653 OFFCURVE",
"43 671 OFFCURVE",
"78 671 CURVE SMOOTH",
"115 670 OFFCURVE",
"129 648 OFFCURVE",
"158 648 CURVE SMOOTH",
"170 648 OFFCURVE",
"179 652 OFFCURVE",
"179 656 CURVE SMOOTH",
"179 659 OFFCURVE",
"181 671 OFFCURVE",
"196 671 CURVE SMOOTH"
);
},
{
closed = 1;
nodes = (
"504 0 OFFCURVE",
"483 0 OFFCURVE",
"471 0 CURVE SMOOTH",
"240 0 LINE SMOOTH",
"228 0 OFFCURVE",
"206 0 OFFCURVE",
"206 31 CURVE SMOOTH",
"206 61 OFFCURVE",
"228 61 OFFCURVE",
"240 61 CURVE SMOOTH",
"327 61 LINE",
"327 550 LINE",
"240 550 LINE SMOOTH",
"228 550 OFFCURVE",
"206 550 OFFCURVE",
"206 581 CURVE SMOOTH",
"206 611 OFFCURVE",
"228 611 OFFCURVE",
"240 611 CURVE SMOOTH",
"471 611 LINE SMOOTH",
"483 611 OFFCURVE",
"504 611 OFFCURVE",
"504 580 CURVE SMOOTH",
"504 550 OFFCURVE",
"483 550 OFFCURVE",
"471 550 CURVE SMOOTH",
"383 550 LINE",
"383 61 LINE",
"471 61 LINE SMOOTH",
"483 61 OFFCURVE",
"504 61 OFFCURVE",
"504 30 CURVE SMOOTH"
);
}
);
width = 525;
}
);
unicode = 1F3E;
}
{
glyphname = Iotapsilivaria;
layers = (
{
layerId = master01;
paths = (
{
closed = 1;
nodes = (
"11 611 OFFCURVE",
"24 623 OFFCURVE",
"42 623 CURVE SMOOTH",
"91 623 OFFCURVE",
"102 576 OFFCURVE",
"102 562 CURVE SMOOTH",
"102 512 OFFCURVE",
"51 499 OFFCURVE",
"35 499 CURVE SMOOTH",
"21 499 OFFCURVE",
"11 510 OFFCURVE",
"11 522 CURVE SMOOTH",
"11 552 OFFCURVE",
"59 536 OFFCURVE",
"59 562 CURVE SMOOTH",
"59 563 OFFCURVE",
"59 566 OFFCURVE",
"58 567 CURVE",
"51 564 OFFCURVE",
"51 563 OFFCURVE",
"42 563 CURVE SMOOTH",
"18 563 OFFCURVE",
"11 579 OFFCURVE",
"11 593 CURVE SMOOTH"
);
},
{
closed = 1;
nodes = (
"113 612 OFFCURVE",
"122 628 OFFCURVE",
"138 628 CURVE SMOOTH",
"145 628 OFFCURVE",
"153 626 OFFCURVE",
"158 621 CURVE SMOOTH",
"161 618 OFFCURVE",
"210 550 OFFCURVE",
"212 546 CURVE",
"218 527 OFFCURVE",
"196 508 OFFCURVE",
"178 520 CURVE",
"175 523 OFFCURVE",
"121 581 OFFCURVE",
"118 586 CURVE",
"114 590 OFFCURVE",
"113 595 OFFCURVE",
"113 601 CURVE SMOOTH"
);
},
{
closed = 1;
nodes = (
"504 0 OFFCURVE",
"483 0 OFFCURVE",
"471 0 CURVE SMOOTH",
"240 0 LINE SMOOTH",
"228 0 OFFCURVE",
"206 0 OFFCURVE",
"206 31 CURVE SMOOTH",
"206 61 OFFCURVE",
"228 61 OFFCURVE",
"240 61 CURVE SMOOTH",
"327 61 LINE",
"327 550 LINE",
"240 550 LINE SMOOTH",
"228 550 OFFCURVE",
"206 550 OFFCURVE",
"206 581 CURVE SMOOTH",
"206 611 OFFCURVE",
"228 611 OFFCURVE",
"240 611 CURVE SMOOTH",
"471 611 LINE SMOOTH",
"483 611 OFFCURVE",
"504 611 OFFCURVE",
"504 580 CURVE SMOOTH",
"504 550 OFFCURVE",
"483 550 OFFCURVE",
"471 550 CURVE SMOOTH",
"383 550 LINE",
"383 61 LINE",
"471 61 LINE SMOOTH",
"483 61 OFFCURVE",
"504 61 OFFCURVE",
"504 30 CURVE SMOOTH"
);
}
);
width = 525;
}
);
unicode = 1F3A;
}
{
glyphname = Iotavaria;
layers = (
{
layerId = master01;
paths = (
{
closed = 1;
nodes = (
"23 621 OFFCURVE",
"35 641 OFFCURVE",
"55 641 CURVE SMOOTH",
"63 641 OFFCURVE",
"73 638 OFFCURVE",
"79 632 CURVE",
"83 629 OFFCURVE",
"145 544 OFFCURVE",
"147 539 CURVE",
"155 515 OFFCURVE",
"127 491 OFFCURVE",
"105 506 CURVE",
"101 510 OFFCURVE",
"33 582 OFFCURVE",
"29 588 CURVE",
"25 593 OFFCURVE",
"23 600 OFFCURVE",
"23 607 CURVE SMOOTH"
);
},
{
closed = 1;
nodes = (
"502 0 OFFCURVE",
"479 0 OFFCURVE",
"466 0 CURVE SMOOTH",
"209 0 LINE SMOOTH",
"196 0 OFFCURVE",
"172 0 OFFCURVE",
"172 31 CURVE SMOOTH",
"172 61 OFFCURVE",
"196 61 OFFCURVE",
"209 61 CURVE SMOOTH",
"306 61 LINE",
"306 550 LINE",
"209 550 LINE SMOOTH",
"196 550 OFFCURVE",
"172 550 OFFCURVE",
"172 581 CURVE SMOOTH",
"172 611 OFFCURVE",
"196 611 OFFCURVE",
"209 611 CURVE SMOOTH",
"466 611 LINE SMOOTH",
"479 611 OFFCURVE",
"502 611 OFFCURVE",
"502 580 CURVE SMOOTH",
"502 550 OFFCURVE",
"479 550 OFFCURVE",
"466 550 CURVE SMOOTH",
"368 550 LINE",
"368 61 LINE",
"466 61 LINE SMOOTH",
"479 61 OFFCURVE",
"502 61 OFFCURVE",
"502 30 CURVE SMOOTH"
);
}
);
width = 525;
}
);
unicode = 1FDA;
}
{
glyphname = Iotavrachy;
layers = (
{
components = (
{
name = I;
}
);
layerId = master01;
paths = (
{
closed = 1;
nodes = (
"127 754 OFFCURVE",
"192 695 OFFCURVE",
"261 694 CURVE SMOOTH",
"309 694 OFFCURVE",
"373 727 OFFCURVE",
"410 761 CURVE",
"426 761 OFFCURVE",
"430 751 OFFCURVE",
"430 744 CURVE",
"384 698 OFFCURVE",
"313 660 OFFCURVE",
"261 660 CURVE SMOOTH",
"189 660 OFFCURVE",
"126 713 OFFCURVE",
"94 744 CURVE",
"94 754 OFFCURVE",
"102 761 OFFCURVE",
"115 761 CURVE"
);
}
);
width = 525;
}
);
unicode = 1FD8;
}
{
glyphname = Ohorn;
layers = (
{
layerId = master01;
paths = (
{
closed = 1;
nodes = (
"495 604 OFFCURVE",
"477 566 OFFCURVE",
"445 548 CURVE",
"467 489 OFFCURVE",
"467 385 OFFCURVE",
"467 305 CURVE SMOOTH",
"467 214 OFFCURVE",
"467 90 OFFCURVE",
"434 39 CURVE SMOOTH",
"401 -11 OFFCURVE",
"327 -11 OFFCURVE",
"261 -11 CURVE SMOOTH",
"196 -11 OFFCURVE",
"121 -11 OFFCURVE",
"89 39 CURVE SMOOTH",
"56 90 OFFCURVE",
"56 214 OFFCURVE",
"56 305 CURVE SMOOTH",
"56 397 OFFCURVE",
"56 521 OFFCURVE",
"89 572 CURVE SMOOTH",
"121 622 OFFCURVE",
"196 622 OFFCURVE",
"261 622 CURVE SMOOTH",
"312 622 OFFCURVE",
"368 622 OFFCURVE",
"406 599 CURVE",
"414 600 OFFCURVE",
"421 605 OFFCURVE",
"427 614 CURVE",
"407 621 OFFCURVE",
"395 640 OFFCURVE",
"395 661 CURVE SMOOTH",
"395 686 OFFCURVE",
"415 710 OFFCURVE",
"445 711 CURVE",
"483 710 OFFCURVE",
"495 673 OFFCURVE",
"495 643 CURVE SMOOTH"
);
},
{
closed = 1;
nodes = (
"397 388 OFFCURVE",
"397 484 OFFCURVE",
"376 522 CURVE SMOOTH",
"355 560 OFFCURVE",
"306 561 OFFCURVE",
"261 561 CURVE SMOOTH",
"217 561 OFFCURVE",
"168 560 OFFCURVE",
"147 522 CURVE SMOOTH",
"125 484 OFFCURVE",
"125 388 OFFCURVE",
"125 318 CURVE SMOOTH",
"125 241 OFFCURVE",
"125 135 OFFCURVE",
"147 93 CURVE SMOOTH",
"167 54 OFFCURVE",
"216 50 OFFCURVE",
"261 50 CURVE SMOOTH",
"306 50 OFFCURVE",
"356 54 OFFCURVE",
"376 93 CURVE SMOOTH",
"397 135 OFFCURVE",
"397 241 OFFCURVE",
"397 318 CURVE SMOOTH"
);
}
);
width = 525;
}
);
unicode = 01A0;
}
{
glyphname = Omegadasia;
layers = (
{
layerId = master01;
paths = (
{
closed = 1;
nodes = (
"108 608 OFFCURVE",
"96 620 OFFCURVE",
"80 620 CURVE SMOOTH",
"34 620 OFFCURVE",
"22 575 OFFCURVE",
"22 562 CURVE SMOOTH",
"22 515 OFFCURVE",
"72 503 OFFCURVE",
"86 503 CURVE SMOOTH",
"100 503 OFFCURVE",
"108 514 OFFCURVE",
"108 524 CURVE SMOOTH",
"108 553 OFFCURVE",
"64 538 OFFCURVE",
"64 562 CURVE SMOOTH",
"64 567 LINE",
"72 564 OFFCURVE",
"72 563 OFFCURVE",
"80 563 CURVE SMOOTH",
"102 563 OFFCURVE",
"108 578 OFFCURVE",
"108 591 CURVE SMOOTH"
);
},
{
closed = 1;
nodes = (
"502 9 OFFCURVE",
"498 0 OFFCURVE",
"474 0 CURVE SMOOTH",
"400 0 LINE SMOOTH",
"386 0 OFFCURVE",
"370 0 OFFCURVE",
"370 35 CURVE SMOOTH",
"370 100 OFFCURVE",
"394 173 OFFCURVE",
"408 221 CURVE SMOOTH",
"430 293 OFFCURVE",
"446 347 OFFCURVE",
"446 406 CURVE SMOOTH",
"446 496 OFFCURVE",
"394 561 OFFCURVE",
"336 561 CURVE SMOOTH",
"278 561 OFFCURVE",
"226 496 OFFCURVE",
"226 406 CURVE SMOOTH",
"226 348 OFFCURVE",
"244 293 OFFCURVE",
"264 226 CURVE SMOOTH",
"282 170 OFFCURVE",
"304 100 OFFCURVE",
"304 35 CURVE SMOOTH",
"304 0 OFFCURVE",
"288 0 OFFCURVE",
"274 0 CURVE SMOOTH",
"200 0 LINE SMOOTH",
"178 0 OFFCURVE",
"170 8 OFFCURVE",
"170 41 CURVE SMOOTH",
"170 67 LINE SMOOTH",
"170 81 OFFCURVE",
"170 108 OFFCURVE",
"192 108 CURVE SMOOTH",
"212 108 OFFCURVE",
"212 82 OFFCURVE",
"212 61 CURVE",
"258 61 LINE",
"252 106 OFFCURVE",
"242 140 OFFCURVE",
"220 205 CURVE SMOOTH",
"198 270 OFFCURVE",
"178 335 OFFCURVE",
"178 406 CURVE SMOOTH",
"178 528 OFFCURVE",
"250 622 OFFCURVE",
"336 622 CURVE SMOOTH",
"424 622 OFFCURVE",
"496 528 OFFCURVE",
"496 406 CURVE SMOOTH",
"496 337 OFFCURVE",
"476 275 OFFCURVE",
"456 212 CURVE SMOOTH",
"432 145 OFFCURVE",
"422 110 OFFCURVE",
"416 61 CURVE",
"462 61 LINE",
"462 82 OFFCURVE",
"462 108 OFFCURVE",
"482 108 CURVE SMOOTH",
"502 108 OFFCURVE",
"502 81 OFFCURVE",
"502 67 CURVE SMOOTH",
"502 41 LINE SMOOTH"
);
}
);
width = 525;
}
);
unicode = 1F69;
}
{
glyphname = Omegadasiaoxia;
layers = (
{
layerId = master01;
paths = (
{
closed = 1;
nodes = (
"96 605 OFFCURVE",
"84 616 OFFCURVE",
"68 616 CURVE SMOOTH",
"24 616 OFFCURVE",
"14 574 OFFCURVE",
"14 561 CURVE SMOOTH",
"14 516 OFFCURVE",
"60 504 OFFCURVE",
"74 504 CURVE SMOOTH",
"87 504 OFFCURVE",
"96 514 OFFCURVE",
"96 525 CURVE SMOOTH",
"96 552 OFFCURVE",
"53 538 OFFCURVE",
"53 561 CURVE SMOOTH",
"53 565 LINE",
"60 563 OFFCURVE",
"60 562 OFFCURVE",
"68 562 CURVE SMOOTH",
"89 562 OFFCURVE",
"96 576 OFFCURVE",
"96 589 CURVE SMOOTH"
);
},
{
closed = 1;
nodes = (
"192 600 OFFCURVE",
"184 614 OFFCURVE",
"170 614 CURVE SMOOTH",
"163 614 OFFCURVE",
"156 612 OFFCURVE",
"152 608 CURVE SMOOTH",
"149 605 OFFCURVE",
"105 544 OFFCURVE",
"103 540 CURVE",
"98 523 OFFCURVE",
"117 506 OFFCURVE",
"134 517 CURVE",
"136 520 OFFCURVE",
"185 572 OFFCURVE",
"188 576 CURVE SMOOTH",
"191 580 OFFCURVE",
"192 584 OFFCURVE",
"192 590 CURVE SMOOTH"
);
},
{
closed = 1;
nodes = (
"511 9 OFFCURVE",
"506 0 OFFCURVE",
"482 0 CURVE SMOOTH",
"408 0 LINE SMOOTH",
"395 0 OFFCURVE",
"379 0 OFFCURVE",
"379 35 CURVE SMOOTH",
"379 100 OFFCURVE",
"402 173 OFFCURVE",
"417 221 CURVE SMOOTH",
"439 293 OFFCURVE",
"455 347 OFFCURVE",
"455 406 CURVE SMOOTH",
"455 496 OFFCURVE",
"403 561 OFFCURVE",
"345 561 CURVE SMOOTH",
"287 561 OFFCURVE",
"235 496 OFFCURVE",
"235 406 CURVE SMOOTH",
"235 348 OFFCURVE",
"252 293 OFFCURVE",
"273 226 CURVE SMOOTH",
"291 170 OFFCURVE",
"312 100 OFFCURVE",
"312 35 CURVE SMOOTH",
"312 0 OFFCURVE",
"297 0 OFFCURVE",
"283 0 CURVE SMOOTH",
"209 0 LINE SMOOTH",
"186 0 OFFCURVE",
"179 8 OFFCURVE",
"179 41 CURVE SMOOTH",
"179 67 LINE SMOOTH",
"179 81 OFFCURVE",
"179 108 OFFCURVE",
"200 108 CURVE SMOOTH",
"220 108 OFFCURVE",
"220 82 OFFCURVE",
"220 61 CURVE",
"266 61 LINE",
"261 106 OFFCURVE",
"251 140 OFFCURVE",
"229 205 CURVE SMOOTH",
"207 270 OFFCURVE",
"186 335 OFFCURVE",
"186 406 CURVE SMOOTH",
"186 528 OFFCURVE",
"259 622 OFFCURVE",
"345 622 CURVE SMOOTH",
"432 622 OFFCURVE",
"505 528 OFFCURVE",
"505 406 CURVE SMOOTH",
"505 337 OFFCURVE",
"485 275 OFFCURVE",
"464 212 CURVE SMOOTH",
"441 145 OFFCURVE",
"430 110 OFFCURVE",
"424 61 CURVE",
"471 61 LINE",
"471 82 OFFCURVE",
"471 108 OFFCURVE",
"491 108 CURVE SMOOTH",
"511 108 OFFCURVE",
"511 81 OFFCURVE",
"511 67 CURVE SMOOTH",
"511 41 LINE SMOOTH"
);
}
);
width = 525;
}
);
unicode = 1F6D;
}
{
glyphname = Omegadasiaoxiaprosgegrammeni;
layers = (
{
components = (
{
name = prosgegrammeni;
transform = "{1, 0, 0, 1, 191, 0}";
}
);
layerId = master01;
paths = (
{
closed = 1;
nodes = (
"79 606 OFFCURVE",
"70 617 OFFCURVE",
"57 617 CURVE SMOOTH",
"22 617 OFFCURVE",
"14 574 OFFCURVE",
"14 562 CURVE SMOOTH",
"14 517 OFFCURVE",
"50 505 OFFCURVE",
"62 505 CURVE SMOOTH",
"72 505 OFFCURVE",
"79 515 OFFCURVE",
"79 526 CURVE SMOOTH",
"79 553 OFFCURVE",
"44 538 OFFCURVE",
"44 562 CURVE SMOOTH",
"44 563 OFFCURVE",
"44 566 OFFCURVE",
"45 566 CURVE",
"50 564 OFFCURVE",
"50 563 OFFCURVE",
"57 563 CURVE SMOOTH",
"74 563 OFFCURVE",
"79 577 OFFCURVE",
"79 590 CURVE SMOOTH"
);
},
{
closed = 1;
nodes = (
"150 597 OFFCURVE",
"143 611 OFFCURVE",
"131 611 CURVE SMOOTH",
"127 611 OFFCURVE",
"121 610 OFFCURVE",
"117 605 CURVE",
"115 602 OFFCURVE",
"82 557 OFFCURVE",
"82 554 CURVE",
"87 536 OFFCURVE",
"99 523 OFFCURVE",
"112 534 CURVE",
"114 537 OFFCURVE",
"143 569 OFFCURVE",
"146 574 CURVE",
"149 577 OFFCURVE",
"150 582 OFFCURVE",
"150 587 CURVE SMOOTH"
);
},
{
closed = 1;
nodes = (
"384 9 OFFCURVE",
"380 0 OFFCURVE",
"361 0 CURVE SMOOTH",
"302 0 LINE SMOOTH",
"292 0 OFFCURVE",
"279 0 OFFCURVE",
"279 35 CURVE SMOOTH",
"279 100 OFFCURVE",
"297 173 OFFCURVE",
"309 221 CURVE SMOOTH",
"327 293 OFFCURVE",
"340 347 OFFCURVE",
"340 406 CURVE SMOOTH",
"340 496 OFFCURVE",
"298 561 OFFCURVE",
"252 561 CURVE SMOOTH",
"205 561 OFFCURVE",
"164 496 OFFCURVE",
"164 406 CURVE SMOOTH",
"164 348 OFFCURVE",
"177 293 OFFCURVE",
"194 226 CURVE SMOOTH",
"208 170 OFFCURVE",
"225 100 OFFCURVE",
"225 35 CURVE SMOOTH",
"225 0 OFFCURVE",
"213 0 OFFCURVE",
"202 0 CURVE SMOOTH",
"143 0 LINE SMOOTH",
"124 0 OFFCURVE",
"119 8 OFFCURVE",
"119 41 CURVE SMOOTH",
"119 67 LINE SMOOTH",
"119 81 OFFCURVE",
"119 108 OFFCURVE",
"136 108 CURVE SMOOTH",
"152 108 OFFCURVE",
"152 82 OFFCURVE",
"152 61 CURVE",
"188 61 LINE",
"184 106 OFFCURVE",
"176 140 OFFCURVE",
"159 205 CURVE SMOOTH",
"141 270 OFFCURVE",
"124 335 OFFCURVE",
"124 406 CURVE SMOOTH",
"124 528 OFFCURVE",
"183 622 OFFCURVE",
"252 622 CURVE SMOOTH",
"321 622 OFFCURVE",
"380 528 OFFCURVE",
"380 406 CURVE SMOOTH",
"380 337 OFFCURVE",
"364 275 OFFCURVE",
"347 212 CURVE SMOOTH",
"328 145 OFFCURVE",
"320 110 OFFCURVE",
"315 61 CURVE",
"352 61 LINE",
"352 82 OFFCURVE",
"352 108 OFFCURVE",
"368 108 CURVE SMOOTH",
"384 108 OFFCURVE",
"384 81 OFFCURVE",
"384 67 CURVE SMOOTH",
"384 41 LINE SMOOTH"
);
}
);
width = 525;
}
);
unicode = 1FAD;
}
{
glyphname = Omegadasiaperispomeniprosgegrammeni;
layers = (
{
components = (
{
name = prosgegrammeni;
transform = "{1, 0, 0, 1, 192, 0}";
}
);
layerId = master01;
paths = (
{
closed = 1;
nodes = (
"115 590 OFFCURVE",
"108 599 OFFCURVE",
"99 599 CURVE SMOOTH",
"71 599 OFFCURVE",
"63 566 OFFCURVE",
"63 556 CURVE SMOOTH",
"63 521 OFFCURVE",
"94 512 OFFCURVE",
"102 512 CURVE SMOOTH",
"111 512 OFFCURVE",
"115 520 OFFCURVE",
"115 527 CURVE SMOOTH",
"115 549 OFFCURVE",
"89 538 OFFCURVE",
"89 556 CURVE SMOOTH",
"89 560 LINE",
"94 557 OFFCURVE",
"94 557 OFFCURVE",
"99 557 CURVE SMOOTH",
"111 557 OFFCURVE",
"115 568 OFFCURVE",
"115 578 CURVE SMOOTH"
);
},
{
closed = 1;
nodes = (
"171 671 OFFCURVE",
"171 657 OFFCURVE",
"171 653 CURVE",
"169 618 OFFCURVE",
"135 613 OFFCURVE",
"125 613 CURVE SMOOTH",
"99 613 OFFCURVE",
"75 636 OFFCURVE",
"59 636 CURVE SMOOTH",
"53 636 OFFCURVE",
"42 635 OFFCURVE",
"42 627 CURVE",
"41 608 OFFCURVE",
"13 607 OFFCURVE",
"13 630 CURVE SMOOTH",
"13 653 OFFCURVE",
"33 671 OFFCURVE",
"61 671 CURVE SMOOTH",
"91 670 OFFCURVE",
"102 648 OFFCURVE",
"125 648 CURVE SMOOTH",
"135 648 OFFCURVE",
"142 652 OFFCURVE",
"142 656 CURVE SMOOTH",
"142 659 OFFCURVE",
"143 671 OFFCURVE",
"155 671 CURVE SMOOTH"
);
},
{
closed = 1;
nodes = (
"386 9 OFFCURVE",
"382 0 OFFCURVE",
"363 0 CURVE SMOOTH",
"303 0 LINE SMOOTH",
"293 0 OFFCURVE",
"280 0 OFFCURVE",
"280 35 CURVE SMOOTH",
"280 100 OFFCURVE",
"299 173 OFFCURVE",
"311 221 CURVE SMOOTH",
"328 293 OFFCURVE",
"341 347 OFFCURVE",
"341 406 CURVE SMOOTH",
"341 496 OFFCURVE",
"299 561 OFFCURVE",
"253 561 CURVE SMOOTH",
"207 561 OFFCURVE",
"165 496 OFFCURVE",
"165 406 CURVE SMOOTH",
"165 348 OFFCURVE",
"179 293 OFFCURVE",
"195 226 CURVE SMOOTH",
"210 170 OFFCURVE",
"227 100 OFFCURVE",
"227 35 CURVE SMOOTH",
"227 0 OFFCURVE",
"215 0 OFFCURVE",
"203 0 CURVE SMOOTH",
"144 0 LINE SMOOTH",
"126 0 OFFCURVE",
"120 8 OFFCURVE",
"120 41 CURVE SMOOTH",
"120 67 LINE SMOOTH",
"120 81 OFFCURVE",
"120 108 OFFCURVE",
"137 108 CURVE SMOOTH",
"153 108 OFFCURVE",
"153 82 OFFCURVE",
"153 61 CURVE",
"190 61 LINE",
"186 106 OFFCURVE",
"178 140 OFFCURVE",
"160 205 CURVE SMOOTH",
"143 270 OFFCURVE",
"126 335 OFFCURVE",
"126 406 CURVE SMOOTH",
"126 528 OFFCURVE",
"184 622 OFFCURVE",
"253 622 CURVE SMOOTH",
"323 622 OFFCURVE",
"381 528 OFFCURVE",
"381 406 CURVE SMOOTH",
"381 337 OFFCURVE",
"365 275 OFFCURVE",
"348 212 CURVE SMOOTH",
"330 145 OFFCURVE",
"321 110 OFFCURVE",
"316 61 CURVE",
"354 61 LINE",
"354 82 OFFCURVE",
"354 108 OFFCURVE",
"370 108 CURVE SMOOTH",
"386 108 OFFCURVE",
"386 81 OFFCURVE",
"386 67 CURVE SMOOTH",
"386 41 LINE SMOOTH"
);
}
);
width = 525;
}
);
unicode = 1FAF;
}
{
glyphname = Omegadasiaprosgegrammeni;
layers = (
{
components = (
{
name = prosgegrammeni;
transform = "{1, 0, 0, 1, 175, 0}";
}
);
layerId = master01;
paths = (
{
closed = 1;
nodes = (
"99 608 OFFCURVE",
"89 620 OFFCURVE",
"76 620 CURVE SMOOTH",
"39 620 OFFCURVE",
"30 575 OFFCURVE",
"30 562 CURVE SMOOTH",
"30 515 OFFCURVE",
"70 503 OFFCURVE",
"81 503 CURVE SMOOTH",
"92 503 OFFCURVE",
"99 514 OFFCURVE",
"99 524 CURVE SMOOTH",
"99 553 OFFCURVE",
"63 538 OFFCURVE",
"63 562 CURVE SMOOTH",
"63 567 LINE",
"70 564 OFFCURVE",
"70 563 OFFCURVE",
"76 563 CURVE SMOOTH",
"94 563 OFFCURVE",
"99 578 OFFCURVE",
"99 591 CURVE SMOOTH"
);
},
{
closed = 1;
nodes = (
"368 9 OFFCURVE",
"364 0 OFFCURVE",
"345 0 CURVE SMOOTH",
"286 0 LINE SMOOTH",
"275 0 OFFCURVE",
"262 0 OFFCURVE",
"262 35 CURVE SMOOTH",
"262 100 OFFCURVE",
"281 173 OFFCURVE",
"293 221 CURVE SMOOTH",
"310 293 OFFCURVE",
"323 347 OFFCURVE",
"323 406 CURVE SMOOTH",
"323 496 OFFCURVE",
"282 561 OFFCURVE",
"235 561 CURVE SMOOTH",
"189 561 OFFCURVE",
"147 496 OFFCURVE",
"147 406 CURVE SMOOTH",
"147 348 OFFCURVE",
"161 293 OFFCURVE",
"178 226 CURVE SMOOTH",
"192 170 OFFCURVE",
"209 100 OFFCURVE",
"209 35 CURVE SMOOTH",
"209 0 OFFCURVE",
"197 0 OFFCURVE",
"186 0 CURVE SMOOTH",
"126 0 LINE SMOOTH",
"108 0 OFFCURVE",
"102 8 OFFCURVE",
"102 41 CURVE SMOOTH",
"102 67 LINE SMOOTH",
"102 81 OFFCURVE",
"102 108 OFFCURVE",
"119 108 CURVE SMOOTH",
"135 108 OFFCURVE",
"135 82 OFFCURVE",
"135 61 CURVE",
"172 61 LINE",
"168 106 OFFCURVE",
"160 140 OFFCURVE",
"142 205 CURVE SMOOTH",
"125 270 OFFCURVE",
"108 335 OFFCURVE",
"108 406 CURVE SMOOTH",
"108 528 OFFCURVE",
"166 622 OFFCURVE",
"235 622 CURVE SMOOTH",
"305 622 OFFCURVE",
"363 528 OFFCURVE",
"363 406 CURVE SMOOTH",
"363 337 OFFCURVE",
"347 275 OFFCURVE",
"330 212 CURVE SMOOTH",
"312 145 OFFCURVE",
"303 110 OFFCURVE",
"298 61 CURVE",
"336 61 LINE",
"336 82 OFFCURVE",
"336 108 OFFCURVE",
"352 108 CURVE SMOOTH",
"368 108 OFFCURVE",
"368 81 OFFCURVE",
"368 67 CURVE SMOOTH",
"368 41 LINE SMOOTH"
);
}
);
width = 525;
}
);
unicode = 1FA9;
}
{
glyphname = Omegadasiavaria;
layers = (
{
layerId = master01;
paths = (
{
closed = 1;
nodes = (
"87 602 OFFCURVE",
"77 611 OFFCURVE",
"62 611 CURVE SMOOTH",
"23 611 OFFCURVE",
"14 574 OFFCURVE",
"14 562 CURVE SMOOTH",
"14 522 OFFCURVE",
"55 512 OFFCURVE",
"68 512 CURVE SMOOTH",
"79 512 OFFCURVE",
"87 521 OFFCURVE",
"87 530 CURVE SMOOTH",
"87 554 OFFCURVE",
"49 542 OFFCURVE",
"49 562 CURVE SMOOTH",
"49 566 LINE",
"55 564 OFFCURVE",
"55 563 OFFCURVE",
"62 563 CURVE SMOOTH",
"81 563 OFFCURVE",
"87 576 OFFCURVE",
"87 587 CURVE SMOOTH"
);
},
{
closed = 1;
nodes = (
"96 602 OFFCURVE",
"103 615 OFFCURVE",
"116 615 CURVE SMOOTH",
"121 615 OFFCURVE",
"128 614 OFFCURVE",
"132 610 CURVE",
"134 607 OFFCURVE",
"173 553 OFFCURVE",
"175 550 CURVE",
"180 534 OFFCURVE",
"162 519 OFFCURVE",
"148 529 CURVE SMOOTH",
"145 531 OFFCURVE",
"102 578 OFFCURVE",
"100 582 CURVE",
"97 585 OFFCURVE",
"96 589 OFFCURVE",
"96 594 CURVE SMOOTH"
);
},
{
closed = 1;
nodes = (
"511 9 OFFCURVE",
"506 0 OFFCURVE",
"482 0 CURVE SMOOTH",
"408 0 LINE SMOOTH",
"395 0 OFFCURVE",
"379 0 OFFCURVE",
"379 35 CURVE SMOOTH",
"379 100 OFFCURVE",
"402 173 OFFCURVE",
"417 221 CURVE SMOOTH",
"439 293 OFFCURVE",
"455 347 OFFCURVE",
"455 406 CURVE SMOOTH",
"455 496 OFFCURVE",
"403 561 OFFCURVE",
"345 561 CURVE SMOOTH",
"287 561 OFFCURVE",
"235 496 OFFCURVE",
"235 406 CURVE SMOOTH",
"235 348 OFFCURVE",
"252 293 OFFCURVE",
"273 226 CURVE SMOOTH",
"291 170 OFFCURVE",
"312 100 OFFCURVE",
"312 35 CURVE SMOOTH",
"312 0 OFFCURVE",
"297 0 OFFCURVE",
"283 0 CURVE SMOOTH",
"209 0 LINE SMOOTH",
"186 0 OFFCURVE",
"179 8 OFFCURVE",
"179 41 CURVE SMOOTH",
"179 67 LINE SMOOTH",
"179 81 OFFCURVE",
"179 108 OFFCURVE",
"200 108 CURVE SMOOTH",
"220 108 OFFCURVE",
"220 82 OFFCURVE",
"220 61 CURVE",
"266 61 LINE",
"261 106 OFFCURVE",
"251 140 OFFCURVE",
"229 205 CURVE SMOOTH",
"207 270 OFFCURVE",
"186 335 OFFCURVE",
"186 406 CURVE SMOOTH",
"186 528 OFFCURVE",
"259 622 OFFCURVE",
"345 622 CURVE SMOOTH",
"432 622 OFFCURVE",
"505 528 OFFCURVE",
"505 406 CURVE SMOOTH",
"505 337 OFFCURVE",
"485 275 OFFCURVE",
"464 212 CURVE SMOOTH",
"441 145 OFFCURVE",
"430 110 OFFCURVE",
"424 61 CURVE",
"471 61 LINE",
"471 82 OFFCURVE",
"471 108 OFFCURVE",
"491 108 CURVE SMOOTH",
"511 108 OFFCURVE",
"511 81 OFFCURVE",
"511 67 CURVE SMOOTH",
"511 41 LINE SMOOTH"
);
}
);
width = 525;
}
);
unicode = 1F6B;
}
{
glyphname = Omegadasiavariaprosgegrammeni;
layers = (
{
components = (
{
name = prosgegrammeni;
transform = "{1, 0, 0, 1, 193, 0}";
}
);
layerId = master01;
paths = (
{
closed = 1;
nodes = (
"71 602 OFFCURVE",
"63 611 OFFCURVE",
"50 611 CURVE SMOOTH",
"20 611 OFFCURVE",
"12 574 OFFCURVE",
"12 562 CURVE SMOOTH",
"12 522 OFFCURVE",
"45 512 OFFCURVE",
"55 512 CURVE SMOOTH",
"65 512 OFFCURVE",
"71 521 OFFCURVE",
"71 530 CURVE SMOOTH",
"71 554 OFFCURVE",
"41 542 OFFCURVE",
"41 562 CURVE SMOOTH",
"41 566 LINE",
"45 564 OFFCURVE",
"45 563 OFFCURVE",
"50 563 CURVE SMOOTH",
"66 563 OFFCURVE",
"71 576 OFFCURVE",
"71 587 CURVE SMOOTH"
);
},
{
closed = 1;
nodes = (
"78 602 OFFCURVE",
"84 615 OFFCURVE",
"94 615 CURVE SMOOTH",
"98 615 OFFCURVE",
"103 614 OFFCURVE",
"106 610 CURVE",
"108 607 OFFCURVE",
"140 553 OFFCURVE",
"142 550 CURVE",
"145 534 OFFCURVE",
"130 519 OFFCURVE",
"119 529 CURVE",
"118 531 OFFCURVE",
"82 578 OFFCURVE",
"81 582 CURVE",
"78 585 OFFCURVE",
"78 589 OFFCURVE",
"78 594 CURVE SMOOTH"
);
},
{
closed = 1;
nodes = (
"393 9 OFFCURVE",
"389 0 OFFCURVE",
"370 0 CURVE SMOOTH",
"310 0 LINE SMOOTH",
"300 0 OFFCURVE",
"287 0 OFFCURVE",
"287 35 CURVE SMOOTH",
"287 100 OFFCURVE",
"306 173 OFFCURVE",
"318 221 CURVE SMOOTH",
"335 293 OFFCURVE",
"348 347 OFFCURVE",
"348 406 CURVE SMOOTH",
"348 496 OFFCURVE",
"306 561 OFFCURVE",
"260 561 CURVE SMOOTH",
"214 561 OFFCURVE",
"172 496 OFFCURVE",
"172 406 CURVE SMOOTH",
"172 348 OFFCURVE",
"186 293 OFFCURVE",
"202 226 CURVE SMOOTH",
"217 170 OFFCURVE",
"234 100 OFFCURVE",
"234 35 CURVE SMOOTH",
"234 0 OFFCURVE",
"222 0 OFFCURVE",
"210 0 CURVE SMOOTH",
"151 0 LINE SMOOTH",
"133 0 OFFCURVE",
"127 8 OFFCURVE",
"127 41 CURVE SMOOTH",
"127 67 LINE SMOOTH",
"127 81 OFFCURVE",
"127 108 OFFCURVE",
"144 108 CURVE SMOOTH",
"160 108 OFFCURVE",
"160 82 OFFCURVE",
"160 61 CURVE",
"197 61 LINE",
"193 106 OFFCURVE",
"185 140 OFFCURVE",
"167 205 CURVE SMOOTH",
"150 270 OFFCURVE",
"133 335 OFFCURVE",
"133 406 CURVE SMOOTH",
"133 528 OFFCURVE",
"191 622 OFFCURVE",
"260 622 CURVE SMOOTH",
"330 622 OFFCURVE",
"388 528 OFFCURVE",
"388 406 CURVE SMOOTH",
"388 337 OFFCURVE",
"372 275 OFFCURVE",
"355 212 CURVE SMOOTH",
"337 145 OFFCURVE",
"328 110 OFFCURVE",
"323 61 CURVE",
"361 61 LINE",
"361 82 OFFCURVE",
"361 108 OFFCURVE",
"377 108 CURVE SMOOTH",
"393 108 OFFCURVE",
"393 81 OFFCURVE",
"393 67 CURVE SMOOTH",
"393 41 LINE SMOOTH"
);
}
);
width = 525;
}
);
unicode = 1FAB;
}
{
glyphname = Omegaprosgegrammeni;
layers = (
{
components = (
{
name = prosgegrammeni;
transform = "{1, 0, 0, 1, 191, 0}";
}
);
layerId = master01;
paths = (
{
closed = 1;
nodes = (
"387 9 OFFCURVE",
"382 0 OFFCURVE",
"355 0 CURVE SMOOTH",
"272 0 LINE SMOOTH",
"257 0 OFFCURVE",
"239 0 OFFCURVE",
"239 35 CURVE SMOOTH",
"239 100 OFFCURVE",
"265 173 OFFCURVE",
"282 221 CURVE SMOOTH",
"306 293 OFFCURVE",
"325 347 OFFCURVE",
"325 406 CURVE SMOOTH",
"325 496 OFFCURVE",
"266 561 OFFCURVE",
"201 561 CURVE SMOOTH",
"136 561 OFFCURVE",
"77 496 OFFCURVE",
"77 406 CURVE SMOOTH",
"77 348 OFFCURVE",
"96 293 OFFCURVE",
"120 226 CURVE SMOOTH",
"140 170 OFFCURVE",
"164 100 OFFCURVE",
"164 35 CURVE SMOOTH",
"164 0 OFFCURVE",
"147 0 OFFCURVE",
"131 0 CURVE SMOOTH",
"48 0 LINE SMOOTH",
"22 0 OFFCURVE",
"14 8 OFFCURVE",
"14 41 CURVE SMOOTH",
"14 67 LINE SMOOTH",
"14 81 OFFCURVE",
"14 108 OFFCURVE",
"38 108 CURVE SMOOTH",
"60 108 OFFCURVE",
"60 82 OFFCURVE",
"60 61 CURVE",
"112 61 LINE",
"106 106 OFFCURVE",
"95 140 OFFCURVE",
"70 205 CURVE SMOOTH",
"46 270 OFFCURVE",
"22 335 OFFCURVE",
"22 406 CURVE SMOOTH",
"22 528 OFFCURVE",
"104 622 OFFCURVE",
"201 622 CURVE SMOOTH",
"299 622 OFFCURVE",
"381 528 OFFCURVE",
"381 406 CURVE SMOOTH",
"381 337 OFFCURVE",
"358 275 OFFCURVE",
"335 212 CURVE SMOOTH",
"309 145 OFFCURVE",
"296 110 OFFCURVE",
"290 61 CURVE",
"342 61 LINE",
"342 82 OFFCURVE",
"342 108 OFFCURVE",
"365 108 CURVE SMOOTH",
"387 108 OFFCURVE",
"387 81 OFFCURVE",
"387 67 CURVE SMOOTH",
"387 41 LINE SMOOTH"
);
}
);
width = 525;
}
);
unicode = 1FFC;
}
{
glyphname = Omegapsili;
layers = (
{
layerId = master01;
paths = (
{
closed = 1;
nodes = (
"22 608 OFFCURVE",
"34 620 OFFCURVE",
"50 620 CURVE SMOOTH",
"96 620 OFFCURVE",
"108 575 OFFCURVE",
"108 562 CURVE SMOOTH",
"108 515 OFFCURVE",
"58 503 OFFCURVE",
"44 503 CURVE SMOOTH",
"30 503 OFFCURVE",
"22 514 OFFCURVE",
"22 524 CURVE SMOOTH",
"22 553 OFFCURVE",
"66 538 OFFCURVE",
"66 562 CURVE SMOOTH",
"66 567 LINE",
"58 564 OFFCURVE",
"58 563 OFFCURVE",
"50 563 CURVE SMOOTH",
"28 563 OFFCURVE",
"22 578 OFFCURVE",
"22 591 CURVE SMOOTH"
);
},
{
closed = 1;
nodes = (
"502 9 OFFCURVE",
"498 0 OFFCURVE",
"474 0 CURVE SMOOTH",
"400 0 LINE SMOOTH",
"386 0 OFFCURVE",
"370 0 OFFCURVE",
"370 35 CURVE SMOOTH",
"370 100 OFFCURVE",
"394 173 OFFCURVE",
"408 221 CURVE SMOOTH",
"430 293 OFFCURVE",
"446 347 OFFCURVE",
"446 406 CURVE SMOOTH",
"446 496 OFFCURVE",
"394 561 OFFCURVE",
"336 561 CURVE SMOOTH",
"278 561 OFFCURVE",
"226 496 OFFCURVE",
"226 406 CURVE SMOOTH",
"226 348 OFFCURVE",
"244 293 OFFCURVE",
"264 226 CURVE SMOOTH",
"282 170 OFFCURVE",
"304 100 OFFCURVE",
"304 35 CURVE SMOOTH",
"304 0 OFFCURVE",
"288 0 OFFCURVE",
"274 0 CURVE SMOOTH",
"200 0 LINE SMOOTH",
"178 0 OFFCURVE",
"170 8 OFFCURVE",
"170 41 CURVE SMOOTH",
"170 67 LINE SMOOTH",
"170 81 OFFCURVE",
"170 108 OFFCURVE",
"192 108 CURVE SMOOTH",
"212 108 OFFCURVE",
"212 82 OFFCURVE",
"212 61 CURVE",
"258 61 LINE",
"252 106 OFFCURVE",
"242 140 OFFCURVE",
"220 205 CURVE SMOOTH",
"198 270 OFFCURVE",
"178 335 OFFCURVE",
"178 406 CURVE SMOOTH",
"178 528 OFFCURVE",
"250 622 OFFCURVE",
"336 622 CURVE SMOOTH",
"424 622 OFFCURVE",
"496 528 OFFCURVE",
"496 406 CURVE SMOOTH",
"496 337 OFFCURVE",
"476 275 OFFCURVE",
"456 212 CURVE SMOOTH",
"432 145 OFFCURVE",
"422 110 OFFCURVE",
"416 61 CURVE",
"462 61 LINE",
"462 82 OFFCURVE",
"462 108 OFFCURVE",
"482 108 CURVE SMOOTH",
"502 108 OFFCURVE",
"502 81 OFFCURVE",
"502 67 CURVE SMOOTH",
"502 41 LINE SMOOTH"
);
}
);
width = 525;
}
);
unicode = 1F68;
}
{
glyphname = Omegapsilioxia;
layers = (
{
layerId = master01;
paths = (
{
closed = 1;
nodes = (
"16 606 OFFCURVE",
"28 617 OFFCURVE",
"44 617 CURVE SMOOTH",
"88 617 OFFCURVE",
"98 574 OFFCURVE",
"98 562 CURVE SMOOTH",
"98 517 OFFCURVE",
"52 505 OFFCURVE",
"38 505 CURVE SMOOTH",
"26 505 OFFCURVE",
"16 515 OFFCURVE",
"16 526 CURVE SMOOTH",
"16 553 OFFCURVE",
"60 538 OFFCURVE",
"60 562 CURVE SMOOTH",
"60 566 LINE",
"52 564 OFFCURVE",
"52 563 OFFCURVE",
"44 563 CURVE SMOOTH",
"24 563 OFFCURVE",
"16 577 OFFCURVE",
"16 590 CURVE SMOOTH"
);
},
{
closed = 1;
nodes = (
"186 597 OFFCURVE",
"178 611 OFFCURVE",
"164 611 CURVE SMOOTH",
"158 611 OFFCURVE",
"150 610 OFFCURVE",
"146 605 CURVE",
"142 602 OFFCURVE",
"98 541 OFFCURVE",
"98 538 CURVE",
"92 520 OFFCURVE",
"112 503 OFFCURVE",
"128 514 CURVE",
"130 517 OFFCURVE",
"178 569 OFFCURVE",
"182 574 CURVE",
"186 577 OFFCURVE",
"186 582 OFFCURVE",
"186 587 CURVE SMOOTH"
);
},
{
closed = 1;
nodes = (
"508 9 OFFCURVE",
"504 0 OFFCURVE",
"480 0 CURVE SMOOTH",
"406 0 LINE SMOOTH",
"392 0 OFFCURVE",
"376 0 OFFCURVE",
"376 35 CURVE SMOOTH",
"376 100 OFFCURVE",
"400 173 OFFCURVE",
"414 221 CURVE SMOOTH",
"436 293 OFFCURVE",
"452 347 OFFCURVE",
"452 406 CURVE SMOOTH",
"452 496 OFFCURVE",
"400 561 OFFCURVE",
"342 561 CURVE SMOOTH",
"284 561 OFFCURVE",
"232 496 OFFCURVE",
"232 406 CURVE SMOOTH",
"232 348 OFFCURVE",
"250 293 OFFCURVE",
"270 226 CURVE SMOOTH",
"288 170 OFFCURVE",
"310 100 OFFCURVE",
"310 35 CURVE SMOOTH",
"310 0 OFFCURVE",
"294 0 OFFCURVE",
"280 0 CURVE SMOOTH",
"206 0 LINE SMOOTH",
"184 0 OFFCURVE",
"176 8 OFFCURVE",
"176 41 CURVE SMOOTH",
"176 67 LINE SMOOTH",
"176 81 OFFCURVE",
"176 108 OFFCURVE",
"198 108 CURVE SMOOTH",
"218 108 OFFCURVE",
"218 82 OFFCURVE",
"218 61 CURVE",
"264 61 LINE",
"258 106 OFFCURVE",
"248 140 OFFCURVE",
"226 205 CURVE SMOOTH",
"204 270 OFFCURVE",
"184 335 OFFCURVE",
"184 406 CURVE SMOOTH",
"184 528 OFFCURVE",
"256 622 OFFCURVE",
"342 622 CURVE SMOOTH",
"430 622 OFFCURVE",
"502 528 OFFCURVE",
"502 406 CURVE SMOOTH",
"502 337 OFFCURVE",
"482 275 OFFCURVE",
"462 212 CURVE SMOOTH",
"438 145 OFFCURVE",
"428 110 OFFCURVE",
"422 61 CURVE",
"468 61 LINE",
"468 82 OFFCURVE",
"468 108 OFFCURVE",
"488 108 CURVE SMOOTH",
"508 108 OFFCURVE",
"508 81 OFFCURVE",
"508 67 CURVE SMOOTH",
"508 41 LINE SMOOTH"
);
}
);
width = 525;
}
);
unicode = 1F6C;
}
{
glyphname = Omegapsilioxiaprosgegrammeni;
layers = (
{
components = (
{
name = prosgegrammeni;
transform = "{1, 0, 0, 1, 191, 0}";
}
);
layerId = master01;
paths = (
{
closed = 1;
nodes = (
"14 606 OFFCURVE",
"23 617 OFFCURVE",
"36 617 CURVE SMOOTH",
"71 617 OFFCURVE",
"79 574 OFFCURVE",
"79 562 CURVE SMOOTH",
"79 517 OFFCURVE",
"43 505 OFFCURVE",
"31 505 CURVE SMOOTH",
"21 505 OFFCURVE",
"14 515 OFFCURVE",
"14 526 CURVE SMOOTH",
"14 553 OFFCURVE",
"49 538 OFFCURVE",
"49 562 CURVE SMOOTH",
"49 563 OFFCURVE",
"49 566 OFFCURVE",
"48 566 CURVE",
"43 564 OFFCURVE",
"43 563 OFFCURVE",
"36 563 CURVE SMOOTH",
"19 563 OFFCURVE",
"14 577 OFFCURVE",
"14 590 CURVE SMOOTH"
);
},
{
closed = 1;
nodes = (
"150 597 OFFCURVE",
"143 611 OFFCURVE",
"131 611 CURVE SMOOTH",
"127 611 OFFCURVE",
"121 610 OFFCURVE",
"117 605 CURVE",
"115 602 OFFCURVE",
"79 541 OFFCURVE",
"79 538 CURVE",
"74 520 OFFCURVE",
"90 503 OFFCURVE",
"103 514 CURVE",
"105 517 OFFCURVE",
"143 569 OFFCURVE",
"146 574 CURVE",
"149 577 OFFCURVE",
"150 582 OFFCURVE",
"150 587 CURVE SMOOTH"
);
},
{
closed = 1;
nodes = (
"384 9 OFFCURVE",
"380 0 OFFCURVE",
"361 0 CURVE SMOOTH",
"302 0 LINE SMOOTH",
"292 0 OFFCURVE",
"279 0 OFFCURVE",
"279 35 CURVE SMOOTH",
"279 100 OFFCURVE",
"297 173 OFFCURVE",
"309 221 CURVE SMOOTH",
"327 293 OFFCURVE",
"340 347 OFFCURVE",
"340 406 CURVE SMOOTH",
"340 496 OFFCURVE",
"298 561 OFFCURVE",
"252 561 CURVE SMOOTH",
"205 561 OFFCURVE",
"164 496 OFFCURVE",
"164 406 CURVE SMOOTH",
"164 348 OFFCURVE",
"177 293 OFFCURVE",
"194 226 CURVE SMOOTH",
"208 170 OFFCURVE",
"225 100 OFFCURVE",
"225 35 CURVE SMOOTH",
"225 0 OFFCURVE",
"213 0 OFFCURVE",
"202 0 CURVE SMOOTH",
"143 0 LINE SMOOTH",
"124 0 OFFCURVE",
"119 8 OFFCURVE",
"119 41 CURVE SMOOTH",
"119 67 LINE SMOOTH",
"119 81 OFFCURVE",
"119 108 OFFCURVE",
"136 108 CURVE SMOOTH",
"152 108 OFFCURVE",
"152 82 OFFCURVE",
"152 61 CURVE",
"188 61 LINE",
"184 106 OFFCURVE",
"176 140 OFFCURVE",
"159 205 CURVE SMOOTH",
"141 270 OFFCURVE",
"124 335 OFFCURVE",
"124 406 CURVE SMOOTH",
"124 528 OFFCURVE",
"183 622 OFFCURVE",
"252 622 CURVE SMOOTH",
"321 622 OFFCURVE",
"380 528 OFFCURVE",
"380 406 CURVE SMOOTH",
"380 337 OFFCURVE",
"364 275 OFFCURVE",
"347 212 CURVE SMOOTH",
"328 145 OFFCURVE",
"320 110 OFFCURVE",
"315 61 CURVE",
"352 61 LINE",
"352 82 OFFCURVE",
"352 108 OFFCURVE",
"368 108 CURVE SMOOTH",
"384 108 OFFCURVE",
"384 81 OFFCURVE",
"384 67 CURVE SMOOTH",
"384 41 LINE SMOOTH"
);
}
);
width = 525;
}
);
unicode = 1FAC;
}
{
glyphname = Omegapsiliperispomeni;
layers = (
{
layerId = master01;
paths = (
{
closed = 1;
nodes = (
"76 590 OFFCURVE",
"86 599 OFFCURVE",
"98 599 CURVE SMOOTH",
"132 599 OFFCURVE",
"142 566 OFFCURVE",
"142 556 CURVE SMOOTH",
"142 521 OFFCURVE",
"104 512 OFFCURVE",
"94 512 CURVE SMOOTH",
"82 512 OFFCURVE",
"76 520 OFFCURVE",
"76 527 CURVE SMOOTH",
"76 549 OFFCURVE",
"110 538 OFFCURVE",
"110 556 CURVE SMOOTH",
"110 560 LINE",
"104 557 OFFCURVE",
"104 557 OFFCURVE",
"98 557 CURVE SMOOTH",
"82 557 OFFCURVE",
"76 568 OFFCURVE",
"76 578 CURVE SMOOTH"
);
},
{
closed = 1;
nodes = (
"212 671 OFFCURVE",
"212 657 OFFCURVE",
"212 653 CURVE",
"210 618 OFFCURVE",
"168 613 OFFCURVE",
"154 613 CURVE SMOOTH",
"122 613 OFFCURVE",
"92 636 OFFCURVE",
"72 636 CURVE SMOOTH",
"64 636 OFFCURVE",
"50 635 OFFCURVE",
"50 627 CURVE SMOOTH",
"50 608 OFFCURVE",
"14 607 OFFCURVE",
"14 630 CURVE SMOOTH",
"14 653 OFFCURVE",
"40 671 OFFCURVE",
"74 671 CURVE SMOOTH",
"112 670 OFFCURVE",
"126 648 OFFCURVE",
"154 648 CURVE SMOOTH",
"166 648 OFFCURVE",
"176 652 OFFCURVE",
"176 656 CURVE SMOOTH",
"176 659 OFFCURVE",
"178 671 OFFCURVE",
"192 671 CURVE SMOOTH"
);
},
{
closed = 1;
nodes = (
"510 9 OFFCURVE",
"506 0 OFFCURVE",
"482 0 CURVE SMOOTH",
"408 0 LINE SMOOTH",
"394 0 OFFCURVE",
"378 0 OFFCURVE",
"378 35 CURVE SMOOTH",
"378 100 OFFCURVE",
"402 173 OFFCURVE",
"416 221 CURVE SMOOTH",
"438 293 OFFCURVE",
"454 347 OFFCURVE",
"454 406 CURVE SMOOTH",
"454 496 OFFCURVE",
"402 561 OFFCURVE",
"344 561 CURVE SMOOTH",
"286 561 OFFCURVE",
"234 496 OFFCURVE",
"234 406 CURVE SMOOTH",
"234 348 OFFCURVE",
"252 293 OFFCURVE",
"272 226 CURVE SMOOTH",
"290 170 OFFCURVE",
"312 100 OFFCURVE",
"312 35 CURVE SMOOTH",
"312 0 OFFCURVE",
"296 0 OFFCURVE",
"282 0 CURVE SMOOTH",
"208 0 LINE SMOOTH",
"186 0 OFFCURVE",
"178 8 OFFCURVE",
"178 41 CURVE SMOOTH",
"178 67 LINE SMOOTH",
"178 81 OFFCURVE",
"178 108 OFFCURVE",
"200 108 CURVE SMOOTH",
"220 108 OFFCURVE",
"220 82 OFFCURVE",
"220 61 CURVE",
"266 61 LINE",
"260 106 OFFCURVE",
"250 140 OFFCURVE",
"228 205 CURVE SMOOTH",
"206 270 OFFCURVE",
"186 335 OFFCURVE",
"186 406 CURVE SMOOTH",
"186 528 OFFCURVE",
"258 622 OFFCURVE",
"344 622 CURVE SMOOTH",
"432 622 OFFCURVE",
"504 528 OFFCURVE",
"504 406 CURVE SMOOTH",
"504 337 OFFCURVE",
"484 275 OFFCURVE",
"464 212 CURVE SMOOTH",
"440 145 OFFCURVE",
"430 110 OFFCURVE",
"424 61 CURVE",
"470 61 LINE",
"470 82 OFFCURVE",
"470 108 OFFCURVE",
"490 108 CURVE SMOOTH",
"510 108 OFFCURVE",
"510 81 OFFCURVE",
"510 67 CURVE SMOOTH",
"510 41 LINE SMOOTH"
);
}
);
width = 525;
}
);
unicode = 1F6E;
}
{
glyphname = Omegapsiliprosgegrammeni;
layers = (
{
components = (
{
name = prosgegrammeni;
transform = "{1, 0, 0, 1, 175, 0}";
}
);
layerId = master01;
paths = (
{
closed = 1;
nodes = (
"30 608 OFFCURVE",
"40 620 OFFCURVE",
"53 620 CURVE SMOOTH",
"90 620 OFFCURVE",
"99 575 OFFCURVE",
"99 562 CURVE SMOOTH",
"99 515 OFFCURVE",
"59 503 OFFCURVE",
"48 503 CURVE SMOOTH",
"37 503 OFFCURVE",
"30 514 OFFCURVE",
"30 524 CURVE SMOOTH",
"30 553 OFFCURVE",
"66 538 OFFCURVE",
"66 562 CURVE SMOOTH",
"66 567 LINE",
"59 564 OFFCURVE",
"59 563 OFFCURVE",
"53 563 CURVE SMOOTH",
"35 563 OFFCURVE",
"30 578 OFFCURVE",
"30 591 CURVE SMOOTH"
);
},
{
closed = 1;
nodes = (
"368 9 OFFCURVE",
"364 0 OFFCURVE",
"345 0 CURVE SMOOTH",
"286 0 LINE SMOOTH",
"275 0 OFFCURVE",
"262 0 OFFCURVE",
"262 35 CURVE SMOOTH",
"262 100 OFFCURVE",
"281 173 OFFCURVE",
"293 221 CURVE SMOOTH",
"310 293 OFFCURVE",
"323 347 OFFCURVE",
"323 406 CURVE SMOOTH",
"323 496 OFFCURVE",
"282 561 OFFCURVE",
"235 561 CURVE SMOOTH",
"189 561 OFFCURVE",
"147 496 OFFCURVE",
"147 406 CURVE SMOOTH",
"147 348 OFFCURVE",
"161 293 OFFCURVE",
"178 226 CURVE SMOOTH",
"192 170 OFFCURVE",
"209 100 OFFCURVE",
"209 35 CURVE SMOOTH",
"209 0 OFFCURVE",
"197 0 OFFCURVE",
"186 0 CURVE SMOOTH",
"126 0 LINE SMOOTH",
"108 0 OFFCURVE",
"102 8 OFFCURVE",
"102 41 CURVE SMOOTH",
"102 67 LINE SMOOTH",
"102 81 OFFCURVE",
"102 108 OFFCURVE",
"119 108 CURVE SMOOTH",
"135 108 OFFCURVE",
"135 82 OFFCURVE",
"135 61 CURVE",
"172 61 LINE",
"168 106 OFFCURVE",
"160 140 OFFCURVE",
"142 205 CURVE SMOOTH",
"125 270 OFFCURVE",
"108 335 OFFCURVE",
"108 406 CURVE SMOOTH",
"108 528 OFFCURVE",
"166 622 OFFCURVE",
"235 622 CURVE SMOOTH",
"305 622 OFFCURVE",
"363 528 OFFCURVE",
"363 406 CURVE SMOOTH",
"363 337 OFFCURVE",
"347 275 OFFCURVE",
"330 212 CURVE SMOOTH",
"312 145 OFFCURVE",
"303 110 OFFCURVE",
"298 61 CURVE",
"336 61 LINE",
"336 82 OFFCURVE",
"336 108 OFFCURVE",
"352 108 CURVE SMOOTH",
"368 108 OFFCURVE",
"368 81 OFFCURVE",
"368 67 CURVE SMOOTH",
"368 41 LINE SMOOTH"
);
}
);
width = 525;
}
);
unicode = 1FA8;
}
{
glyphname = Omegapsilivaria;
layers = (
{
layerId = master01;
paths = (
{
closed = 1;
nodes = (
"14 602 OFFCURVE",
"24 611 OFFCURVE",
"40 611 CURVE SMOOTH",
"78 611 OFFCURVE",
"88 574 OFFCURVE",
"88 562 CURVE SMOOTH",
"88 522 OFFCURVE",
"46 512 OFFCURVE",
"34 512 CURVE SMOOTH",
"22 512 OFFCURVE",
"14 521 OFFCURVE",
"14 530 CURVE SMOOTH",
"14 554 OFFCURVE",
"52 542 OFFCURVE",
"52 562 CURVE SMOOTH",
"52 566 LINE",
"46 564 OFFCURVE",
"46 563 OFFCURVE",
"40 563 CURVE SMOOTH",
"20 563 OFFCURVE",
"14 576 OFFCURVE",
"14 587 CURVE SMOOTH"
);
},
{
closed = 1;
nodes = (
"96 602 OFFCURVE",
"104 615 OFFCURVE",
"116 615 CURVE SMOOTH",
"122 615 OFFCURVE",
"128 614 OFFCURVE",
"132 610 CURVE",
"134 607 OFFCURVE",
"174 553 OFFCURVE",
"176 550 CURVE",
"180 534 OFFCURVE",
"162 519 OFFCURVE",
"148 529 CURVE",
"146 531 OFFCURVE",
"102 578 OFFCURVE",
"100 582 CURVE",
"96 585 OFFCURVE",
"96 589 OFFCURVE",
"96 594 CURVE SMOOTH"
);
},
{
closed = 1;
nodes = (
"510 9 OFFCURVE",
"506 0 OFFCURVE",
"482 0 CURVE SMOOTH",
"408 0 LINE SMOOTH",
"394 0 OFFCURVE",
"378 0 OFFCURVE",
"378 35 CURVE SMOOTH",
"378 100 OFFCURVE",
"402 173 OFFCURVE",
"416 221 CURVE SMOOTH",
"438 293 OFFCURVE",
"454 347 OFFCURVE",
"454 406 CURVE SMOOTH",
"454 496 OFFCURVE",
"402 561 OFFCURVE",
"344 561 CURVE SMOOTH",
"286 561 OFFCURVE",
"234 496 OFFCURVE",
"234 406 CURVE SMOOTH",
"234 348 OFFCURVE",
"252 293 OFFCURVE",
"272 226 CURVE SMOOTH",
"290 170 OFFCURVE",
"312 100 OFFCURVE",
"312 35 CURVE SMOOTH",
"312 0 OFFCURVE",
"296 0 OFFCURVE",
"282 0 CURVE SMOOTH",
"208 0 LINE SMOOTH",
"186 0 OFFCURVE",
"178 8 OFFCURVE",
"178 41 CURVE SMOOTH",
"178 67 LINE SMOOTH",
"178 81 OFFCURVE",
"178 108 OFFCURVE",
"200 108 CURVE SMOOTH",
"220 108 OFFCURVE",
"220 82 OFFCURVE",
"220 61 CURVE",
"266 61 LINE",
"260 106 OFFCURVE",
"250 140 OFFCURVE",
"228 205 CURVE SMOOTH",
"206 270 OFFCURVE",
"186 335 OFFCURVE",
"186 406 CURVE SMOOTH",
"186 528 OFFCURVE",
"258 622 OFFCURVE",
"344 622 CURVE SMOOTH",
"432 622 OFFCURVE",
"504 528 OFFCURVE",
"504 406 CURVE SMOOTH",
"504 337 OFFCURVE",
"484 275 OFFCURVE",
"464 212 CURVE SMOOTH",
"440 145 OFFCURVE",
"430 110 OFFCURVE",
"424 61 CURVE",
"470 61 LINE",
"470 82 OFFCURVE",
"470 108 OFFCURVE",
"490 108 CURVE SMOOTH",
"510 108 OFFCURVE",
"510 81 OFFCURVE",
"510 67 CURVE SMOOTH",
"510 41 LINE SMOOTH"
);
}
);
width = 525;
}
);
unicode = 1F6A;
}
{
glyphname = Omegapsilivariaprosgegrammeni;
layers = (
{
components = (
{
name = prosgegrammeni;
transform = "{1, 0, 0, 1, 193, 0}";
}
);
layerId = master01;
paths = (
{
closed = 1;
nodes = (
"12 602 OFFCURVE",
"20 611 OFFCURVE",
"33 611 CURVE SMOOTH",
"63 611 OFFCURVE",
"71 574 OFFCURVE",
"71 562 CURVE SMOOTH",
"71 522 OFFCURVE",
"38 512 OFFCURVE",
"28 512 CURVE SMOOTH",
"18 512 OFFCURVE",
"12 521 OFFCURVE",
"12 530 CURVE SMOOTH",
"12 554 OFFCURVE",
"42 542 OFFCURVE",
"42 562 CURVE SMOOTH",
"42 566 LINE",
"38 564 OFFCURVE",
"38 563 OFFCURVE",
"33 563 CURVE SMOOTH",
"17 563 OFFCURVE",
"12 576 OFFCURVE",
"12 587 CURVE SMOOTH"
);
},
{
closed = 1;
nodes = (
"78 602 OFFCURVE",
"84 615 OFFCURVE",
"94 615 CURVE SMOOTH",
"98 615 OFFCURVE",
"103 614 OFFCURVE",
"106 610 CURVE",
"108 607 OFFCURVE",
"140 553 OFFCURVE",
"142 550 CURVE",
"145 534 OFFCURVE",
"130 519 OFFCURVE",
"119 529 CURVE",
"118 531 OFFCURVE",
"82 578 OFFCURVE",
"81 582 CURVE",
"78 585 OFFCURVE",
"78 589 OFFCURVE",
"78 594 CURVE SMOOTH"
);
},
{
closed = 1;
nodes = (
"393 9 OFFCURVE",
"389 0 OFFCURVE",
"370 0 CURVE SMOOTH",
"310 0 LINE SMOOTH",
"300 0 OFFCURVE",
"287 0 OFFCURVE",
"287 35 CURVE SMOOTH",
"287 100 OFFCURVE",
"306 173 OFFCURVE",
"318 221 CURVE SMOOTH",
"335 293 OFFCURVE",
"348 347 OFFCURVE",
"348 406 CURVE SMOOTH",
"348 496 OFFCURVE",
"306 561 OFFCURVE",
"260 561 CURVE SMOOTH",
"214 561 OFFCURVE",
"172 496 OFFCURVE",
"172 406 CURVE SMOOTH",
"172 348 OFFCURVE",
"186 293 OFFCURVE",
"202 226 CURVE SMOOTH",
"217 170 OFFCURVE",
"234 100 OFFCURVE",
"234 35 CURVE SMOOTH",
"234 0 OFFCURVE",
"222 0 OFFCURVE",
"210 0 CURVE SMOOTH",
"151 0 LINE SMOOTH",
"133 0 OFFCURVE",
"127 8 OFFCURVE",
"127 41 CURVE SMOOTH",
"127 67 LINE SMOOTH",
"127 81 OFFCURVE",
"127 108 OFFCURVE",
"144 108 CURVE SMOOTH",
"160 108 OFFCURVE",
"160 82 OFFCURVE",
"160 61 CURVE",
"197 61 LINE",
"193 106 OFFCURVE",
"185 140 OFFCURVE",
"167 205 CURVE SMOOTH",
"150 270 OFFCURVE",
"133 335 OFFCURVE",
"133 406 CURVE SMOOTH",
"133 528 OFFCURVE",
"191 622 OFFCURVE",
"260 622 CURVE SMOOTH",
"330 622 OFFCURVE",
"388 528 OFFCURVE",
"388 406 CURVE SMOOTH",
"388 337 OFFCURVE",
"372 275 OFFCURVE",
"355 212 CURVE SMOOTH",
"337 145 OFFCURVE",
"328 110 OFFCURVE",
"323 61 CURVE",
"361 61 LINE",
"361 82 OFFCURVE",
"361 108 OFFCURVE",
"377 108 CURVE SMOOTH",
"393 108 OFFCURVE",
"393 81 OFFCURVE",
"393 67 CURVE SMOOTH",
"393 41 LINE SMOOTH"
);
}
);
width = 525;
}
);
unicode = 1FAA;
}
{
glyphname = Omegavaria;
layers = (
{
layerId = master01;
paths = (
{
closed = 1;
nodes = (
"6 621 OFFCURVE",
"18 641 OFFCURVE",
"38 641 CURVE SMOOTH",
"46 641 OFFCURVE",
"56 638 OFFCURVE",
"62 632 CURVE",
"66 629 OFFCURVE",
"128 544 OFFCURVE",
"130 539 CURVE",
"138 515 OFFCURVE",
"110 491 OFFCURVE",
"88 506 CURVE",
"84 510 OFFCURVE",
"16 582 OFFCURVE",
"12 588 CURVE",
"8 593 OFFCURVE",
"6 600 OFFCURVE",
"6 607 CURVE SMOOTH"
);
},
{
closed = 1;
nodes = (
"518 9 OFFCURVE",
"512 0 OFFCURVE",
"482 0 CURVE SMOOTH",
"390 0 LINE SMOOTH",
"374 0 OFFCURVE",
"354 0 OFFCURVE",
"354 35 CURVE SMOOTH",
"354 100 OFFCURVE",
"382 173 OFFCURVE",
"402 221 CURVE SMOOTH",
"428 293 OFFCURVE",
"450 347 OFFCURVE",
"450 406 CURVE SMOOTH",
"450 496 OFFCURVE",
"384 561 OFFCURVE",
"312 561 CURVE SMOOTH",
"240 561 OFFCURVE",
"174 496 OFFCURVE",
"174 406 CURVE SMOOTH",
"174 348 OFFCURVE",
"196 293 OFFCURVE",
"222 226 CURVE SMOOTH",
"244 170 OFFCURVE",
"270 100 OFFCURVE",
"270 35 CURVE SMOOTH",
"270 0 OFFCURVE",
"252 0 OFFCURVE",
"234 0 CURVE SMOOTH",
"142 0 LINE SMOOTH",
"112 0 OFFCURVE",
"104 8 OFFCURVE",
"104 41 CURVE SMOOTH",
"104 67 LINE SMOOTH",
"104 81 OFFCURVE",
"104 108 OFFCURVE",
"130 108 CURVE SMOOTH",
"156 108 OFFCURVE",
"156 82 OFFCURVE",
"156 61 CURVE",
"212 61 LINE",
"206 106 OFFCURVE",
"194 140 OFFCURVE",
"166 205 CURVE SMOOTH",
"140 270 OFFCURVE",
"112 335 OFFCURVE",
"112 406 CURVE SMOOTH",
"112 528 OFFCURVE",
"204 622 OFFCURVE",
"312 622 CURVE SMOOTH",
"420 622 OFFCURVE",
"512 528 OFFCURVE",
"512 406 CURVE SMOOTH",
"512 337 OFFCURVE",
"486 275 OFFCURVE",
"460 212 CURVE SMOOTH",
"432 145 OFFCURVE",
"418 110 OFFCURVE",
"410 61 CURVE",
"468 61 LINE",
"468 82 OFFCURVE",
"468 108 OFFCURVE",
"494 108 CURVE SMOOTH",
"518 108 OFFCURVE",
"518 81 OFFCURVE",
"518 67 CURVE SMOOTH",
"518 41 LINE SMOOTH"
);
}
);
width = 525;
}
);
unicode = 1FFA;
}
{
glyphname = Omicrondasia;
layers = (
{
layerId = master01;
paths = (
{
closed = 1;
nodes = (
"120 608 OFFCURVE",
"108 620 OFFCURVE",
"92 620 CURVE SMOOTH",
"46 620 OFFCURVE",
"34 575 OFFCURVE",
"34 562 CURVE SMOOTH",
"34 515 OFFCURVE",
"84 503 OFFCURVE",
"98 503 CURVE SMOOTH",
"112 503 OFFCURVE",
"120 514 OFFCURVE",
"120 524 CURVE SMOOTH",
"120 553 OFFCURVE",
"76 538 OFFCURVE",
"76 562 CURVE SMOOTH",
"76 567 LINE",
"84 564 OFFCURVE",
"84 563 OFFCURVE",
"92 563 CURVE SMOOTH",
"114 563 OFFCURVE",
"120 578 OFFCURVE",
"120 591 CURVE SMOOTH"
);
},
{
closed = 1;
nodes = (
"492 16 OFFCURVE",
"474 -11 OFFCURVE",
"324 -11 CURVE SMOOTH",
"174 -11 OFFCURVE",
"158 16 OFFCURVE",
"158 305 CURVE SMOOTH",
"158 595 OFFCURVE",
"174 622 OFFCURVE",
"324 622 CURVE SMOOTH",
"474 622 OFFCURVE",
"492 594 OFFCURVE",
"492 305 CURVE SMOOTH"
);
},
{
closed = 1;
nodes = (
"436 533 OFFCURVE",
"428 561 OFFCURVE",
"324 561 CURVE SMOOTH",
"258 561 OFFCURVE",
"230 550 OFFCURVE",
"222 490 CURVE SMOOTH",
"208 370 OFFCURVE",
"212 241 OFFCURVE",
"224 121 CURVE SMOOTH",
"228 70 OFFCURVE",
"254 50 OFFCURVE",
"324 50 CURVE SMOOTH",
"396 50 OFFCURVE",
"418 71 OFFCURVE",
"426 127 CURVE SMOOTH",
"436 181 OFFCURVE",
"436 252 OFFCURVE",
"436 314 CURVE SMOOTH"
);
}
);
width = 525;
}
);
unicode = 1F49;
}
{
glyphname = Omicrondasiaoxia;
layers = (
{
layerId = master01;
paths = (
{
closed = 1;
nodes = (
"99 605 OFFCURVE",
"87 616 OFFCURVE",
"71 616 CURVE SMOOTH",
"27 616 OFFCURVE",
"17 574 OFFCURVE",
"17 561 CURVE SMOOTH",
"17 516 OFFCURVE",
"63 504 OFFCURVE",
"77 504 CURVE SMOOTH",
"90 504 OFFCURVE",
"99 514 OFFCURVE",
"99 525 CURVE SMOOTH",
"99 552 OFFCURVE",
"56 538 OFFCURVE",
"56 561 CURVE SMOOTH",
"56 565 LINE",
"63 563 OFFCURVE",
"63 562 OFFCURVE",
"71 562 CURVE SMOOTH",
"92 562 OFFCURVE",
"99 576 OFFCURVE",
"99 589 CURVE SMOOTH"
);
},
{
closed = 1;
nodes = (
"195 600 OFFCURVE",
"187 614 OFFCURVE",
"173 614 CURVE SMOOTH",
"166 614 OFFCURVE",
"159 612 OFFCURVE",
"155 608 CURVE SMOOTH",
"152 605 OFFCURVE",
"108 544 OFFCURVE",
"106 540 CURVE",
"101 523 OFFCURVE",
"120 506 OFFCURVE",
"137 517 CURVE",
"139 520 OFFCURVE",
"188 572 OFFCURVE",
"191 576 CURVE SMOOTH",
"194 580 OFFCURVE",
"195 584 OFFCURVE",
"195 590 CURVE SMOOTH"
);
},
{
closed = 1;
nodes = (
"508 16 OFFCURVE",
"490 -11 OFFCURVE",
"341 -11 CURVE SMOOTH",
"191 -11 OFFCURVE",
"174 16 OFFCURVE",
"174 305 CURVE SMOOTH",
"174 595 OFFCURVE",
"191 622 OFFCURVE",
"341 622 CURVE SMOOTH",
"491 622 OFFCURVE",
"508 594 OFFCURVE",
"508 305 CURVE SMOOTH"
);
},
{
closed = 1;
nodes = (
"452 533 OFFCURVE",
"444 561 OFFCURVE",
"341 561 CURVE SMOOTH",
"275 561 OFFCURVE",
"246 550 OFFCURVE",
"239 490 CURVE SMOOTH",
"225 370 OFFCURVE",
"229 241 OFFCURVE",
"240 121 CURVE SMOOTH",
"245 70 OFFCURVE",
"270 50 OFFCURVE",
"341 50 CURVE SMOOTH",
"413 50 OFFCURVE",
"434 71 OFFCURVE",
"443 127 CURVE SMOOTH",
"452 181 OFFCURVE",
"452 252 OFFCURVE",
"452 314 CURVE SMOOTH"
);
}
);
width = 525;
}
);
unicode = 1F4D;
}
{
glyphname = Omicrondasiavaria;
layers = (
{
layerId = master01;
paths = (
{
closed = 1;
nodes = (
"90 602 OFFCURVE",
"80 611 OFFCURVE",
"65 611 CURVE SMOOTH",
"26 611 OFFCURVE",
"17 574 OFFCURVE",
"17 562 CURVE SMOOTH",
"17 522 OFFCURVE",
"58 512 OFFCURVE",
"71 512 CURVE SMOOTH",
"82 512 OFFCURVE",
"90 521 OFFCURVE",
"90 530 CURVE SMOOTH",
"90 554 OFFCURVE",
"52 542 OFFCURVE",
"52 562 CURVE SMOOTH",
"52 566 LINE",
"58 564 OFFCURVE",
"58 563 OFFCURVE",
"65 563 CURVE SMOOTH",
"84 563 OFFCURVE",
"90 576 OFFCURVE",
"90 587 CURVE SMOOTH"
);
},
{
closed = 1;
nodes = (
"99 602 OFFCURVE",
"106 615 OFFCURVE",
"119 615 CURVE SMOOTH",
"124 615 OFFCURVE",
"131 614 OFFCURVE",
"135 610 CURVE",
"137 607 OFFCURVE",
"176 553 OFFCURVE",
"178 550 CURVE",
"183 534 OFFCURVE",
"165 519 OFFCURVE",
"151 529 CURVE SMOOTH",
"148 531 OFFCURVE",
"105 578 OFFCURVE",
"103 582 CURVE",
"100 585 OFFCURVE",
"99 589 OFFCURVE",
"99 594 CURVE SMOOTH"
);
},
{
closed = 1;
nodes = (
"508 16 OFFCURVE",
"490 -11 OFFCURVE",
"341 -11 CURVE SMOOTH",
"191 -11 OFFCURVE",
"174 16 OFFCURVE",
"174 305 CURVE SMOOTH",
"174 595 OFFCURVE",
"191 622 OFFCURVE",
"341 622 CURVE SMOOTH",
"491 622 OFFCURVE",
"508 594 OFFCURVE",
"508 305 CURVE SMOOTH"
);
},
{
closed = 1;
nodes = (
"452 533 OFFCURVE",
"444 561 OFFCURVE",
"341 561 CURVE SMOOTH",
"275 561 OFFCURVE",
"246 550 OFFCURVE",
"239 490 CURVE SMOOTH",
"225 370 OFFCURVE",
"229 241 OFFCURVE",
"240 121 CURVE SMOOTH",
"245 70 OFFCURVE",
"270 50 OFFCURVE",
"341 50 CURVE SMOOTH",
"413 50 OFFCURVE",
"434 71 OFFCURVE",
"443 127 CURVE SMOOTH",
"452 181 OFFCURVE",
"452 252 OFFCURVE",
"452 314 CURVE SMOOTH"
);
}
);
width = 525;
}
);
unicode = 1F4B;
}
{
glyphname = Omicronpsili;
layers = (
{
layerId = master01;
paths = (
{
closed = 1;
nodes = (
"34 608 OFFCURVE",
"46 620 OFFCURVE",
"62 620 CURVE SMOOTH",
"108 620 OFFCURVE",
"120 575 OFFCURVE",
"120 562 CURVE SMOOTH",
"120 515 OFFCURVE",
"70 503 OFFCURVE",
"56 503 CURVE SMOOTH",
"42 503 OFFCURVE",
"34 514 OFFCURVE",
"34 524 CURVE SMOOTH",
"34 553 OFFCURVE",
"78 538 OFFCURVE",
"78 562 CURVE SMOOTH",
"78 567 LINE",
"70 564 OFFCURVE",
"70 563 OFFCURVE",
"62 563 CURVE SMOOTH",
"40 563 OFFCURVE",
"34 578 OFFCURVE",
"34 591 CURVE SMOOTH"
);
},
{
closed = 1;
nodes = (
"492 16 OFFCURVE",
"474 -11 OFFCURVE",
"324 -11 CURVE SMOOTH",
"174 -11 OFFCURVE",
"158 16 OFFCURVE",
"158 305 CURVE SMOOTH",
"158 595 OFFCURVE",
"174 622 OFFCURVE",
"324 622 CURVE SMOOTH",
"474 622 OFFCURVE",
"492 594 OFFCURVE",
"492 305 CURVE SMOOTH"
);
},
{
closed = 1;
nodes = (
"436 533 OFFCURVE",
"428 561 OFFCURVE",
"324 561 CURVE SMOOTH",
"258 561 OFFCURVE",
"230 550 OFFCURVE",
"222 490 CURVE SMOOTH",
"208 370 OFFCURVE",
"212 241 OFFCURVE",
"224 121 CURVE SMOOTH",
"228 70 OFFCURVE",
"254 50 OFFCURVE",
"324 50 CURVE SMOOTH",
"396 50 OFFCURVE",
"418 71 OFFCURVE",
"426 127 CURVE SMOOTH",
"436 181 OFFCURVE",
"436 252 OFFCURVE",
"436 314 CURVE SMOOTH"
);
}
);
width = 525;
}
);
unicode = 1F48;
}
{
glyphname = Omicronpsilioxia;
layers = (
{
layerId = master01;
paths = (
{
closed = 1;
nodes = (
"22 606 OFFCURVE",
"34 617 OFFCURVE",
"50 617 CURVE SMOOTH",
"94 617 OFFCURVE",
"104 574 OFFCURVE",
"104 562 CURVE SMOOTH",
"104 517 OFFCURVE",
"58 505 OFFCURVE",
"44 505 CURVE SMOOTH",
"31 505 OFFCURVE",
"22 515 OFFCURVE",
"22 526 CURVE SMOOTH",
"22 553 OFFCURVE",
"66 538 OFFCURVE",
"66 562 CURVE SMOOTH",
"66 563 OFFCURVE",
"66 566 OFFCURVE",
"65 566 CURVE",
"58 564 OFFCURVE",
"58 563 OFFCURVE",
"50 563 CURVE SMOOTH",
"29 563 OFFCURVE",
"22 577 OFFCURVE",
"22 590 CURVE SMOOTH"
);
},
{
closed = 1;
nodes = (
"192 597 OFFCURVE",
"183 611 OFFCURVE",
"169 611 CURVE SMOOTH",
"163 611 OFFCURVE",
"156 610 OFFCURVE",
"151 605 CURVE SMOOTH",
"148 602 OFFCURVE",
"104 541 OFFCURVE",
"103 538 CURVE SMOOTH",
"97 520 OFFCURVE",
"117 503 OFFCURVE",
"133 514 CURVE",
"136 517 OFFCURVE",
"184 569 OFFCURVE",
"187 574 CURVE",
"191 577 OFFCURVE",
"192 582 OFFCURVE",
"192 587 CURVE SMOOTH"
);
},
{
closed = 1;
nodes = (
"503 16 OFFCURVE",
"485 -11 OFFCURVE",
"336 -11 CURVE SMOOTH",
"186 -11 OFFCURVE",
"169 16 OFFCURVE",
"169 305 CURVE SMOOTH",
"169 595 OFFCURVE",
"186 622 OFFCURVE",
"336 622 CURVE SMOOTH",
"486 622 OFFCURVE",
"503 594 OFFCURVE",
"503 305 CURVE SMOOTH"
);
},
{
closed = 1;
nodes = (
"447 533 OFFCURVE",
"439 561 OFFCURVE",
"336 561 CURVE SMOOTH",
"270 561 OFFCURVE",
"241 550 OFFCURVE",
"234 490 CURVE SMOOTH",
"220 370 OFFCURVE",
"224 241 OFFCURVE",
"235 121 CURVE SMOOTH",
"240 70 OFFCURVE",
"265 50 OFFCURVE",
"336 50 CURVE SMOOTH",
"408 50 OFFCURVE",
"429 71 OFFCURVE",
"438 127 CURVE SMOOTH",
"447 181 OFFCURVE",
"447 252 OFFCURVE",
"447 314 CURVE SMOOTH"
);
}
);
width = 525;
}
);
unicode = 1F4C;
}
{
glyphname = Omicronpsilivaria;
layers = (
{
layerId = master01;
paths = (
{
closed = 1;
nodes = (
"18 602 OFFCURVE",
"28 611 OFFCURVE",
"44 611 CURVE SMOOTH",
"82 611 OFFCURVE",
"92 574 OFFCURVE",
"92 562 CURVE SMOOTH",
"92 522 OFFCURVE",
"50 512 OFFCURVE",
"38 512 CURVE SMOOTH",
"26 512 OFFCURVE",
"18 521 OFFCURVE",
"18 530 CURVE SMOOTH",
"18 554 OFFCURVE",
"56 542 OFFCURVE",
"56 562 CURVE SMOOTH",
"56 566 LINE",
"50 564 OFFCURVE",
"50 563 OFFCURVE",
"44 563 CURVE SMOOTH",
"24 563 OFFCURVE",
"18 576 OFFCURVE",
"18 587 CURVE SMOOTH"
);
},
{
closed = 1;
nodes = (
"100 602 OFFCURVE",
"108 615 OFFCURVE",
"120 615 CURVE SMOOTH",
"126 615 OFFCURVE",
"132 614 OFFCURVE",
"136 610 CURVE",
"138 607 OFFCURVE",
"178 553 OFFCURVE",
"180 550 CURVE",
"184 534 OFFCURVE",
"166 519 OFFCURVE",
"152 529 CURVE",
"150 531 OFFCURVE",
"106 578 OFFCURVE",
"104 582 CURVE",
"100 585 OFFCURVE",
"100 589 OFFCURVE",
"100 594 CURVE SMOOTH"
);
},
{
closed = 1;
nodes = (
"506 16 OFFCURVE",
"488 -11 OFFCURVE",
"340 -11 CURVE SMOOTH",
"190 -11 OFFCURVE",
"172 16 OFFCURVE",
"172 305 CURVE SMOOTH",
"172 595 OFFCURVE",
"190 622 OFFCURVE",
"340 622 CURVE SMOOTH",
"490 622 OFFCURVE",
"506 594 OFFCURVE",
"506 305 CURVE SMOOTH"
);
},
{
closed = 1;
nodes = (
"450 533 OFFCURVE",
"442 561 OFFCURVE",
"340 561 CURVE SMOOTH",
"274 561 OFFCURVE",
"244 550 OFFCURVE",
"238 490 CURVE SMOOTH",
"224 370 OFFCURVE",
"228 241 OFFCURVE",
"238 121 CURVE SMOOTH",
"244 70 OFFCURVE",
"268 50 OFFCURVE",
"340 50 CURVE SMOOTH",
"412 50 OFFCURVE",
"432 71 OFFCURVE",
"442 127 CURVE SMOOTH",
"450 181 OFFCURVE",
"450 252 OFFCURVE",
"450 314 CURVE SMOOTH"
);
}
);
width = 525;
}
);
unicode = 1F4A;
}
{
glyphname = Omicronvaria;
layers = (
{
layerId = master01;
paths = (
{
closed = 1;
nodes = (
"16 621 OFFCURVE",
"28 641 OFFCURVE",
"48 641 CURVE SMOOTH",
"56 641 OFFCURVE",
"66 638 OFFCURVE",
"72 632 CURVE",
"76 629 OFFCURVE",
"138 544 OFFCURVE",
"140 539 CURVE",
"148 515 OFFCURVE",
"120 491 OFFCURVE",
"98 506 CURVE",
"94 510 OFFCURVE",
"26 582 OFFCURVE",
"22 588 CURVE",
"18 593 OFFCURVE",
"16 600 OFFCURVE",
"16 607 CURVE SMOOTH"
);
},
{
closed = 1;
nodes = (
"510 16 OFFCURVE",
"490 -11 OFFCURVE",
"324 -11 CURVE SMOOTH",
"158 -11 OFFCURVE",
"138 16 OFFCURVE",
"138 305 CURVE SMOOTH",
"138 595 OFFCURVE",
"158 622 OFFCURVE",
"324 622 CURVE SMOOTH",
"490 622 OFFCURVE",
"510 594 OFFCURVE",
"510 305 CURVE SMOOTH"
);
},
{
closed = 1;
nodes = (
"448 533 OFFCURVE",
"438 561 OFFCURVE",
"324 561 CURVE SMOOTH",
"250 561 OFFCURVE",
"220 550 OFFCURVE",
"210 490 CURVE SMOOTH",
"196 370 OFFCURVE",
"200 241 OFFCURVE",
"212 121 CURVE SMOOTH",
"218 70 OFFCURVE",
"246 50 OFFCURVE",
"324 50 CURVE SMOOTH",
"404 50 OFFCURVE",
"428 71 OFFCURVE",
"438 127 CURVE SMOOTH",
"448 181 OFFCURVE",
"448 252 OFFCURVE",
"448 314 CURVE SMOOTH"
);
}
);
width = 525;
}
);
unicode = 1FF8;
}
{
glyphname = Oogonek;
layers = (
{
layerId = master01;
paths = (
{
closed = 1;
nodes = (
"468 28 OFFCURVE",
"448 -8 OFFCURVE",
"284 -11 CURVE",
"255 -34 OFFCURVE",
"236 -70 OFFCURVE",
"236 -110 CURVE SMOOTH",
"236 -134 OFFCURVE",
"262 -149 OFFCURVE",
"280 -149 CURVE SMOOTH",
"300 -149 OFFCURVE",
"323 -128 OFFCURVE",
"334 -112 CURVE",
"340 -106 OFFCURVE",
"362 -102 OFFCURVE",
"371 -107 CURVE",
"379 -114 OFFCURVE",
"383 -135 OFFCURVE",
"376 -144 CURVE SMOOTH",
"352 -177 OFFCURVE",
"314 -203 OFFCURVE",
"276 -203 CURVE SMOOTH",
"213 -203 OFFCURVE",
"177 -151 OFFCURVE",
"177 -108 CURVE SMOOTH",
"177 -72 OFFCURVE",
"199 -36 OFFCURVE",
"227 -11 CURVE",
"74 -6 OFFCURVE",
"56 35 OFFCURVE",
"56 305 CURVE SMOOTH",
"56 595 OFFCURVE",
"77 622 OFFCURVE",
"262 622 CURVE SMOOTH",
"447 622 OFFCURVE",
"468 594 OFFCURVE",
"468 305 CURVE SMOOTH"
);
},
{
closed = 1;
nodes = (
"399 375 OFFCURVE",
"399 450 OFFCURVE",
"387 497 CURVE SMOOTH",
"372 552 OFFCURVE",
"337 561 OFFCURVE",
"262 561 CURVE SMOOTH",
"180 561 OFFCURVE",
"149 549 OFFCURVE",
"136 490 CURVE SMOOTH",
"125 444 OFFCURVE",
"125 376 OFFCURVE",
"125 314 CURVE SMOOTH",
"125 259 OFFCURVE",
"125 172 OFFCURVE",
"137 121 CURVE SMOOTH",
"149 71 OFFCURVE",
"174 50 OFFCURVE",
"262 50 CURVE SMOOTH",
"351 50 OFFCURVE",
"377 71 OFFCURVE",
"388 127 CURVE SMOOTH",
"399 181 OFFCURVE",
"399 252 OFFCURVE",
"399 314 CURVE SMOOTH"
);
}
);
width = 525;
}
);
unicode = 01EA;
}
{
glyphname = Rhodasia;
layers = (
{
layerId = master01;
paths = (
{
closed = 1;
nodes = (
"112 578 OFFCURVE",
"106 563 OFFCURVE",
"84 563 CURVE SMOOTH",
"76 563 OFFCURVE",
"76 564 OFFCURVE",
"68 567 CURVE",
"68 562 LINE SMOOTH",
"68 538 OFFCURVE",
"112 553 OFFCURVE",
"112 524 CURVE SMOOTH",
"112 514 OFFCURVE",
"104 503 OFFCURVE",
"90 503 CURVE SMOOTH",
"76 503 OFFCURVE",
"26 515 OFFCURVE",
"26 562 CURVE SMOOTH",
"26 575 OFFCURVE",
"38 620 OFFCURVE",
"84 620 CURVE SMOOTH",
"100 620 OFFCURVE",
"112 608 OFFCURVE",
"112 591 CURVE SMOOTH"
);
},
{
closed = 1;
nodes = (
"499 335 OFFCURVE",
"439 245 OFFCURVE",
"347 245 CURVE SMOOTH",
"247 245 LINE",
"247 61 LINE",
"271 61 LINE SMOOTH",
"283 61 OFFCURVE",
"303 61 OFFCURVE",
"303 30 CURVE SMOOTH",
"303 0 OFFCURVE",
"283 0 OFFCURVE",
"271 0 CURVE SMOOTH",
"167 0 LINE SMOOTH",
"156 0 OFFCURVE",
"135 0 OFFCURVE",
"135 30 CURVE SMOOTH",
"135 61 OFFCURVE",
"155 61 OFFCURVE",
"167 61 CURVE SMOOTH",
"191 61 LINE",
"191 550 LINE",
"167 550 LINE SMOOTH",
"156 550 OFFCURVE",
"135 550 OFFCURVE",
"135 581 CURVE SMOOTH",
"135 611 OFFCURVE",
"156 611 OFFCURVE",
"167 611 CURVE SMOOTH",
"347 611 LINE SMOOTH",
"439 611 OFFCURVE",
"499 521 OFFCURVE",
"499 428 CURVE SMOOTH"
);
},
{
closed = 1;
nodes = (
"443 481 OFFCURVE",
"409 550 OFFCURVE",
"332 550 CURVE SMOOTH",
"247 550 LINE",
"247 306 LINE",
"332 306 LINE SMOOTH",
"409 306 OFFCURVE",
"443 375 OFFCURVE",
"443 428 CURVE SMOOTH"
);
}
);
width = 525;
}
);
unicode = 1FEC;
}
